<svg width="500" height="375" viewBox="0 0 500 375" fill="#fff" xmlns="http://www.w3.org/2000/svg"><g clip-path="url(#a)"><path d="M232.74 7.053c-25.854 26.926-34.614 38.68-38.887 50.86-4.06 11.54-4.06 30.346 0 38.253 5.555 10.685 11.538 32.056 19.23 68.812 1.923 9.189 4.273 17.096 5.555 17.737 2.564 1.71 2.564 5.343 0 5.343-2.778 0-33.973-29.491-36.964-35.047-2.778-4.915-17.735-34.192-17.735-34.62 0-.213-4.273-1.068-9.615-1.709-5.342-.855-8.547-.855-7.265.213 1.282.855 6.41 9.831 11.752 19.661 12.179 23.08 28.204 42.313 45.725 54.708 7.692 5.556 13.889 10.685 13.889 11.753 0 4.702 19.657 22.866 27.349 25.217 19.871 5.984 26.495 2.564 63.032-33.551 21.581-21.37 42.734-36.543 51.281-36.543 5.128 0 4.487-3.633-1.069-4.915-10.469-2.778-53.844 22.652-77.775 45.946-16.666 16.027-27.991 23.079-36.965 23.079-2.35 0-4.914-1.068-5.555-2.137-2.137-3.419 8.974-25.43 17.734-35.047 13.675-15.173 21.795-25.43 21.795-27.354 0-1.068 2.777-5.983 5.982-10.898 9.402-13.891 12.179-22.653 11.966-37.826-.214-19.233-4.06-34.406-14.102-54.494C269.491 29.064 247.697 0 241.287 0c-1.068 0-4.914 3.206-8.547 7.053m9.402 24.362c0 5.129.854 9.189 1.923 9.189 4.7 0-3.419 26.926-14.102 47.655-6.624 12.395-7.051 14.532-3.846 13.891 4.7-.855 17.307-19.233 25.64-37.612 3.632-7.693 7.264-13.035 8.974-12.822 6.624 1.496 17.948 51.289 15.17 67.103-.854 4.701-6.41 18.805-12.606 31.2-10.043 20.943-11.538 22.866-19.444 26.072-4.701 1.923-9.401 2.992-10.256 2.35-1.068-.427-2.778-5.128-4.06-10.044a6228 6228 0 0 1-13.247-54.707c-4.915-21.37-5.556-52.57-.855-61.119 1.496-3.42 2.992-7.052 2.992-8.12 0-1.07 2.777-5.984 6.196-10.9 3.205-4.914 7.692-11.753 9.829-15.172l3.846-6.411 1.923 5.342c1.282 2.778 2.136 9.19 1.923 14.105"/><path d="M137.444 172.03c.428 8.548 3.205 13.677 15.171 26.499 6.837 7.052 12.606 13.036 13.247 13.036.855 0 11.325 7.052 34.614 23.294 12.393 8.761 13.248 9.83 14.957 19.446.855 4.061 3.205 9.831 5.342 12.609 2.35 2.778 4.06 5.983 4.06 7.052 0 1.923-11.111-5.129-17.094-10.899-8.547-8.334-52.135-33.337-65.596-37.398-4.273-1.282-4.914-.854-4.914 3.847 0 7.052 5.341 11.754 23.93 21.37 8.333 4.274 20.513 11.54 27.136 16.455 6.624 4.702 15.384 10.685 19.444 13.25 4.06 2.778 8.547 7.052 9.829 9.83 1.496 2.564 2.991 3.847 3.846 2.778 1.496-2.564 9.829-.855 9.829 1.923 0 3.847 11.11 1.71 19.871-3.632 4.914-3.206 14.316-10.686 20.939-16.669 6.624-5.984 15.812-13.25 20.726-16.028 4.914-2.992 11.966-8.121 15.598-11.326 3.632-3.419 7.265-5.556 8.119-5.129.855.641 3.633-3.633 5.983-9.616 5.983-13.677 2.35-14.105-12.82-1.069-12.82 10.899-35.255 23.08-38.674 21.157-1.282-.855-5.555-3.847-9.401-6.625-8.12-6.198-11.752-4.702-5.129 2.35 4.274 4.702 4.274 4.916.428 15.387-1.923 5.77-5.128 13.25-6.838 16.455l-3.205 5.984-2.35-4.915c-1.282-2.565-3.419-10.472-4.914-17.524-3.633-19.233-7.265-24.789-21.794-33.979-7.265-4.701-22.436-15.172-33.546-23.507-11.111-8.334-24.359-17.951-29.487-21.37-4.914-3.419-10.897-8.762-13.247-11.754-3.632-4.915-4.06-5.128-4.06-1.282"/></g><path d="M42.417 343.376q0-7.016 2.847-13.015t7.625-10.372q4.779-4.474 11.082-6.915a34.7 34.7 0 0 1 13.116-2.542q3.255 0 6.812.915 3.66.916 6.61 2.746 3.05 1.83 4.981 4.677 1.932 2.746 1.932 6.61 0 2.135-.813 3.457-.814 1.322-3.152 1.322-2.949 0-5.287-1.525a93 93 0 0 1-4.474-3.254 40 40 0 0 0-4.779-3.356q-2.541-1.525-5.998-1.525-4.677 0-8.54 1.83a20.6 20.6 0 0 0-6.711 4.779q-2.745 2.949-4.27 7.017-1.526 3.965-1.526 8.541 0 4.983 1.729 9.355 1.83 4.372 4.88 7.728 3.151 3.254 7.422 5.186 4.373 1.83 9.456 1.83 3.151 0 5.49-.915 2.44-.915 4.372-2.237a30 30 0 0 0 3.457-2.949 43 43 0 0 1 3.254-2.949 17.6 17.6 0 0 1 3.355-2.338q1.83-.915 4.067-.915 1.321 0 2.338.406 1.119.306 1.119 2.034a9.8 9.8 0 0 1-1.525 5.288q-1.423 2.44-3.864 4.474-2.44 2.033-5.592 3.559a42.4 42.4 0 0 1-6.304 2.542 56 56 0 0 1-6.202 1.627q-3.05.508-5.287.508-6.507 0-12.302-2.44-5.797-2.543-10.066-6.813t-6.812-10.067q-2.44-5.796-2.44-12.304m80.653 29.489q-.712-.509-1.627-1.424-.813-.915-1.118-1.932v-8.135q0-12.1.406-23.997.509-11.898.305-24.099.712-1.525 1.424-1.831.711-.305 1.83-.305 2.135 0 3.457 1.119t2.033 2.847q.813 1.728 1.119 3.966.406 2.236.406 4.372a41 41 0 0 1 0 4.067v3.153q0 5.389-.406 10.677a139 139 0 0 0-.407 10.676q0 7.322 4.067 11.084 4.169 3.762 11.489 3.762a33 33 0 0 0 5.185-.406 34.6 34.6 0 0 1 5.287-.407q2.034 0 2.644.813.61.712.61 2.644 0 1.83-.712 2.949-.61 1.017-1.728 1.627-1.119.508-2.542.712t-2.949.203a63 63 0 0 1-7.219-.407l-7.117-.813a252 252 0 0 0-7.117-.712 43.6 43.6 0 0 0-7.32-.203m49.715-1.627v-.509q.102-.406.101-.508 1.525-3.152 3.051-8.745 1.626-5.592 3.457-12.1a573 573 0 0 1 4.066-13.118q2.238-6.71 4.779-12.1 2.643-5.492 5.694-8.948 3.05-3.458 6.71-3.458 1.729 0 3.05.407 1.322.305 2.339 1.729a27 27 0 0 1 2.745 5.389 76 76 0 0 1 2.034 5.898l1.83 6.101a41.4 41.4 0 0 0 2.236 5.694q.509 1.119 1.627 3.457l2.542 5.085a268 268 0 0 1 2.949 6.101 506 506 0 0 0 2.948 5.999 335 335 0 0 1 2.542 5.186q1.119 2.237 1.627 3.356.61 1.016.61 2.033.102.915.101 2.034 0 2.034-.915 2.745t-2.948.712q-2.136 0-3.559-1.017-1.424-1.118-2.745-2.745a349 349 0 0 0-2.847-3.457q-1.424-1.831-3.66-3.458t-5.49-2.643q-3.153-1.119-8.033-1.119-4.066 0-6.913 1.119-2.745 1.016-4.677 2.643a23 23 0 0 0-3.355 3.458 252 252 0 0 1-2.542 3.457q-1.22 1.627-2.542 2.745-1.322 1.017-3.254 1.017a5.8 5.8 0 0 1-2.44-.508q-1.118-.509-1.118-1.932m19.724-27.862q0 3.864 1.729 6.61 1.728 2.643 5.897 2.644 2.44 0 4.88-.916 2.44-1.017 3.05-3.864.102-.508.102-1.932v-1.83q0-2.136-.508-4.677a22 22 0 0 0-1.525-4.78q-1.017-2.236-2.644-3.66-1.525-1.526-3.762-1.526-1.932 0-3.355 1.526-1.322 1.526-2.237 3.762a24 24 0 0 0-1.22 4.576q-.407 2.339-.407 4.067m53.5 19.524q0-1.423.509-2.136.61-.813 2.135-.813 2.44 0 4.473 1.118a42 42 0 0 1 4.067 2.339 69 69 0 0 0 4.271 2.441q2.236 1.016 4.982 1.016 2.135 0 4.168-.508 2.136-.508 3.762-1.627a10 10 0 0 0 2.644-2.949q1.016-1.728 1.016-4.169 0-4.169-2.44-6.406-2.44-2.338-6.1-3.762-3.559-1.526-7.829-2.644a53.6 53.6 0 0 1-7.829-2.949q-3.558-1.83-5.999-4.678-2.44-2.948-2.44-8.033 0-4.779 1.932-8.338 2.034-3.66 5.287-6.101t7.321-3.66a30.2 30.2 0 0 1 8.54-1.221q2.542 0 5.49.509 3.051.406 5.592 1.627 2.543 1.118 4.169 3.152 1.728 2.034 1.728 5.288 0 1.424-.711 2.948-.61 1.526-2.339 1.526a8.6 8.6 0 0 1-4.067-1.017 87 87 0 0 1-3.762-2.441 28 28 0 0 0-3.863-2.338q-1.932-1.119-4.27-1.119-4.27 0-7.321 2.441-2.948 2.339-2.948 6.711 0 4.473 2.44 7.118 2.44 2.541 5.998 4.27a75 75 0 0 0 7.829 2.949q4.27 1.322 7.829 3.152 3.66 1.831 6.101 4.78 2.44 2.948 2.44 7.931 0 4.475-1.932 7.83-1.932 3.253-5.084 5.491t-7.117 3.355a31.8 31.8 0 0 1-7.93 1.017q-2.746 0-6.304-.508a28.8 28.8 0 0 1-6.812-1.831q-3.152-1.424-5.389-3.762t-2.237-5.999m60.269 0q0-1.423.509-2.136.61-.813 2.135-.813 2.44 0 4.474 1.118a42 42 0 0 1 4.066 2.339 69 69 0 0 0 4.271 2.441q2.237 1.016 4.982 1.016 2.135 0 4.168-.508 2.136-.508 3.762-1.627a10 10 0 0 0 2.644-2.949q1.016-1.728 1.016-4.169 0-4.169-2.44-6.406-2.44-2.338-6.1-3.762-3.558-1.526-7.829-2.644a53.6 53.6 0 0 1-7.829-2.949q-3.559-1.83-5.998-4.678-2.44-2.948-2.441-8.033 0-4.779 1.932-8.338 2.034-3.66 5.287-6.101t7.321-3.66a30.2 30.2 0 0 1 8.54-1.221q2.542 0 5.491.509 3.05.406 5.592 1.627 2.542 1.118 4.168 3.152 1.728 2.034 1.729 5.288 0 1.424-.712 2.948-.61 1.526-2.339 1.526a8.6 8.6 0 0 1-4.067-1.017 86 86 0 0 1-3.761-2.441 28 28 0 0 0-3.864-2.338q-1.932-1.119-4.27-1.119-4.27 0-7.321 2.441-2.948 2.339-2.948 6.711 0 4.473 2.44 7.118 2.44 2.541 5.999 4.27a75 75 0 0 0 7.828 2.949q4.27 1.322 7.829 3.152 3.66 1.831 6.101 4.78 2.44 2.948 2.44 7.931 0 4.475-1.932 7.83a17.85 17.85 0 0 1-5.084 5.491q-3.151 2.237-7.117 3.355a31.8 31.8 0 0 1-7.93 1.017q-2.745 0-6.304-.508a29 29 0 0 1-6.812-1.831q-3.152-1.424-5.389-3.762t-2.237-5.999m60.371 3.864q0-.509-.101-1.627v-6.813q0-5.492.406-10.88.508-5.492.915-10.982.508-5.491.814-10.881.304-5.49 0-10.982.508-1.728 1.525-2.237 1.017-.61 2.643-.61 2.542 0 3.661 1.627 1.22 1.525 1.525 3.763.406 2.135.305 4.474a92 92 0 0 0-.102 3.864q0 6.71-.407 13.219a212 212 0 0 0-.406 13.219q0 4.473.305 8.846.406 4.373.406 8.847 0 1.526-1.22 2.847-1.22 1.22-2.643 1.22-3.355 0-5.287-1.83-1.83-1.83-2.339-5.084m90.784-23.388q0-7.016-2.847-13.015t-7.625-10.372q-4.779-4.474-11.083-6.915a34.7 34.7 0 0 0-13.116-2.542q-3.253 0-6.812.915-3.66.916-6.608 2.746-3.051 1.83-4.982 4.677-1.932 2.746-1.932 6.61 0 2.135.813 3.457t3.152 1.322q2.949 0 5.287-1.525a94 94 0 0 0 4.474-3.254 40 40 0 0 1 4.778-3.356q2.542-1.525 5.999-1.525 4.677 0 8.541 1.83a20.6 20.6 0 0 1 6.71 4.779q2.745 2.949 4.27 7.017 1.525 3.965 1.525 8.541 0 4.983-1.728 9.355-1.83 4.372-4.88 7.728-3.153 3.254-7.422 5.186-4.373 1.83-9.456 1.83-3.151 0-5.49-.915-2.441-.915-4.372-2.237a30 30 0 0 1-3.457-2.949 43 43 0 0 0-3.254-2.949 17.6 17.6 0 0 0-3.355-2.338q-1.83-.915-4.067-.915-1.322 0-2.338.406-1.119.306-1.119 2.034a9.8 9.8 0 0 0 1.525 5.288q1.424 2.44 3.864 4.474 2.44 2.033 5.592 3.559a42 42 0 0 0 6.304 2.542 56 56 0 0 0 6.202 1.627q3.05.508 5.287.508 6.507 0 12.302-2.44 5.796-2.543 10.066-6.813t6.812-10.067q2.44-5.796 2.44-12.304M.153 355.526c-.318-1.591-.137-2.698.51-3.121.55-.361 2.968-.563 5.37-.45 4.3.203 4.373.247 4.618 2.788.165 1.706-.104 2.603-.794 2.645-.574.035-2.882.185-5.127.333-4.009.265-4.093.225-4.577-2.195m489.302 0c-.318-1.591-.137-2.698.509-3.121.551-.361 2.969-.563 5.371-.45 4.299.203 4.373.247 4.618 2.788.165 1.706-.104 2.603-.795 2.645-.573.035-2.881.185-5.126.333-4.009.265-4.093.225-4.577-2.195"/><defs><clipPath id="a"><path d="M137.231 0h226.382v297.11H137.231z"/></clipPath></defs></svg>