<svg xmlns="http://www.w3.org/2000/svg" width="326" height="360" fill="none" viewBox="0 0 326 360">
  <g clip-path="url(#a)">
    <path fill="#88C0C2" d="M276.989 31.448a15.307 15.307 0 0 0-7.011-5.024v-.014l-18.161-6.978 3.729 5.575-113.935-6.213a15.323 15.323 0 0 0-10.601 3.503 15.403 15.403 0 0 0-5.295 8.942l-58.29 303.687a15.406 15.406 0 0 0 1.185 9.435l-8.493 1.042 16.583 6.639.36.144.153.062a15.28 15.28 0 0 0 4.474.943l124.129 6.778a15.325 15.325 0 0 0 10.601-3.503 15.4 15.4 0 0 0 5.295-8.943l58.291-303.686a15.394 15.394 0 0 0-3.014-12.389Z"/>
    <path fill="#fff" d="M187.115 352.443c-.276 0-.558-.008-.845-.023l-124.129-6.777a15.312 15.312 0 0 1-11.247-5.887 15.418 15.418 0 0 1-2.974-12.368l58.291-303.686a15.403 15.403 0 0 1 5.295-8.943 15.323 15.323 0 0 1 10.602-3.502l124.125 6.777c2.185.12 4.319.707 6.259 1.722a15.338 15.338 0 0 1 4.988 4.164 15.397 15.397 0 0 1 2.974 12.369l-58.291 303.686a15.407 15.407 0 0 1-5.295 8.943 15.322 15.322 0 0 1-9.756 3.525h.003Z"/>
    <path fill="#262424" d="M187.115 353.092c-.282 0-.578 0-.871-.022l-124.128-6.778a15.925 15.925 0 0 1-6.523-1.795 15.991 15.991 0 0 1-5.199-4.34 16.07 16.07 0 0 1-3.101-12.89l58.276-303.684a16.087 16.087 0 0 1 5.866-9.587 15.999 15.999 0 0 1 10.695-3.386l124.126 6.777a15.96 15.96 0 0 1 6.524 1.795 15.99 15.99 0 0 1 5.199 4.341 16.053 16.053 0 0 1 3.1 12.893l-58.274 303.68a16.049 16.049 0 0 1-5.519 9.323 15.967 15.967 0 0 1-10.171 3.673Zm-65.858-341.2a14.673 14.673 0 0 0-9.342 3.376 14.746 14.746 0 0 0-5.07 8.564L48.568 327.51a14.76 14.76 0 0 0 2.85 11.842 14.684 14.684 0 0 0 10.768 5.636l124.129 6.777c3.543.192 7.035-.91 9.83-3.1a14.728 14.728 0 0 0 5.376-8.817l58.282-303.684a14.76 14.76 0 0 0-2.848-11.843 14.698 14.698 0 0 0-4.776-3.988 14.651 14.651 0 0 0-5.994-1.65L122.06 11.907a21.58 21.58 0 0 0-.803-.014Z"/>
    <path fill="#fff" d="m192.212 338.052 58.276-303.675a5.22 5.22 0 0 0-1.007-4.191 5.194 5.194 0 0 0-3.811-1.994l-124.128-6.777a5.182 5.182 0 0 0-3.475 1.093 5.21 5.21 0 0 0-1.904 3.114L57.886 329.314a5.222 5.222 0 0 0 1.008 4.191 5.197 5.197 0 0 0 3.81 1.994l124.129 6.777a5.18 5.18 0 0 0 3.48-1.1 5.214 5.214 0 0 0 1.899-3.124Z"/>
    <path fill="#262424" d="M187.109 342.929h-.315l-124.126-6.778a5.84 5.84 0 0 1-5.36-4.47 5.876 5.876 0 0 1-.06-2.477l58.276-303.697a5.897 5.897 0 0 1 2.146-3.503 5.864 5.864 0 0 1 3.908-1.242l124.129 6.778a5.832 5.832 0 0 1 4.287 2.243 5.867 5.867 0 0 1 1.133 4.715l-58.276 303.678-.64-.124.64.124a5.889 5.889 0 0 1-2.023 3.406 5.86 5.86 0 0 1-3.719 1.347ZM121.263 22.056a4.556 4.556 0 0 0-2.891 1.046 4.58 4.58 0 0 0-1.572 2.647L58.523 329.436a4.568 4.568 0 0 0 .883 3.669 4.538 4.538 0 0 0 3.34 1.741l124.129 6.778a4.572 4.572 0 0 0 3.035-.97 4.599 4.599 0 0 0 1.673-2.718l58.269-303.692a4.572 4.572 0 0 0-.884-3.67 4.534 4.534 0 0 0-3.34-1.74l-124.126-6.779h-.239Z"/>
    <path fill="#DE9244" d="m194.377 69.784 49.375 3 7.539-39.336c.2-3.16-.927-5.53-4.858-6.239l-34.557-1.883S192.409 56.144 192.22 56.27c-.189.127 2.157 13.513 2.157 13.513Z"/>
    <path fill="#DE9244" d="M202.639 24.82c-27.672-1.51-40.744 42.643-40.744 42.643l-.026.119 32.514 2.202s6.702-45.049 52.064-42.572l-43.808-2.392Z"/>
    <path fill="#262424" d="M194.816 68.237a.653.653 0 0 1-.555-.309.66.66 0 0 1-.084-.496c1.842-8.094 10.076-34.902 38.641-40.101a.654.654 0 0 1 .794.524.673.673 0 0 1-.116.505.657.657 0 0 1-.444.264c-27.777 5.058-35.8 31.208-37.596 39.104a.66.66 0 0 1-.64.509Z"/>
    <path fill="#88C0C2" d="m202.636 24.82-35.903-1.96s-30.193 4.649-37.278 42.445v.08l32.426 2.197.025-.119s13.058-44.15 40.73-42.643Z"/>
    <path fill="#88C0C2" d="m142.611 21.547 15.319.848-36.678-2s-47.734-2.649-56.725 40.607l32.485 2.18v-.04s4.469-43.84 45.599-41.595Z"/>
    <path fill="#DE9244" d="m157.93 22.383-15.319-.847c-41.13-2.234-45.594 41.612-45.594 41.612v.04l32.429 2.196v-.079c7.094-37.796 37.284-42.442 37.287-42.442l-8.803-.48Z"/>
    <path fill="#88C0C2" d="M64.591 60.993S60.058 76.954 77.92 78.561c17.862 1.607 19.05-15.36 19.05-15.36l-32.378-2.208Z"/>
    <path fill="#DE9244" d="M97.017 63.148s-4.533 15.961 13.328 17.568c17.862 1.607 19.051-15.36 19.051-15.36l-32.379-2.208Z"/>
    <path fill="#88C0C2" d="M129.455 65.305s-4.534 15.962 13.328 17.569c17.861 1.607 19.05-15.36 19.05-15.36l-32.378-2.209Z"/>
    <path fill="#DE9244" d="M161.889 67.463s-4.534 15.961 13.328 17.568c17.862 1.607 19.053-15.354 19.053-15.354l-32.381-2.214ZM52.269 35.26a.325.325 0 0 0-.08.444l.89 1.395c.282.472.195.822-.242 1.085l-2.973 1.793c-.434.263-.783.175-1.067-.283l-.77-1.37a.369.369 0 0 0-.486-.149c-4.489 1.816-8.37.788-10.487-2.742l-1.005-1.675a.738.738 0 0 1 .281-1.104l5.334-3.22c.433-.262.774-.282.906-.05l.24.401c.743 1.237 2.238 2.169 3.979 1.13 1.594-.963 1.368-2.412.954-3.107-1.441-2.403-7.2 1.175-11.413.743-2.106-.218-4.62-1.525-6.322-4.363-2.357-3.928-1.672-8.306 2.225-11.694a.331.331 0 0 0 .079-.447l-1.104-1.76c-.282-.473-.2-.82.237-1.086l2.9-1.751c.436-.263.783-.175 1.067.3l.966 1.694a.372.372 0 0 0 .487.155c4.658-1.87 8.682-.68 10.932 3.067l.83 1.383a.736.736 0 0 1-.281 1.105l-5.333 3.22c-.434.262-.755.304-.862.123l-.175-.282c-.805-1.344-2.34-2.5-4.19-1.384-1.306.788-1.79 2.121-1.202 3.107 1.177 1.976 5.068-.19 8.91-.72 4.206-.565 7.04 1.104 8.867 4.162 2.486 4.112 1.836 8.455-2.092 11.88Zm241.543 239.48a.343.343 0 0 0-.257.026.34.34 0 0 0-.168.197l-.597 1.666c-.214.548-.563.703-1.073.503l-3.455-1.35c-.504-.198-.659-.565-.448-1.098l.653-1.548a.398.398 0 0 0-.191-.511c-4.464-2.621-6.128-6.58-4.534-10.681l.755-1.943a.78.78 0 0 1 .44-.506.779.779 0 0 1 .669.018l6.195 2.423c.504.198.735.48.634.734l-.172.452c-.563 1.437-.366 3.313 1.656 4.103 1.853.723 2.926-.412 3.238-1.214 1.085-2.79-5.688-5.34-8.076-9.192-1.191-1.929-1.729-4.914-.448-8.207 1.774-4.561 5.914-6.84 11.312-5.747a.348.348 0 0 0 .428-.226l.763-2.084c.214-.55.564-.706 1.07-.508l3.38 1.316c.507.198.659.565.445 1.101l-.797 1.923a.401.401 0 0 0 .188.514c4.619 2.728 6.241 6.919 4.548 11.271l-.625 1.607a.785.785 0 0 1-1.11.489l-6.195-2.423c-.504-.198-.749-.441-.667-.65l.132-.342c.609-1.561.58-3.617-1.565-4.456-1.515-.593-2.96-.136-3.402 1.008-.887 2.282 3.472 4.18 6.42 7.086 3.216 3.202 3.661 6.687 2.278 10.237-1.883 4.823-5.978 7.116-11.424 6.012ZM28.158 352.547a.283.283 0 0 0-.065.368l.735 1.14c.234.39.16.678-.2.896l-2.455 1.482c-.358.218-.648.144-.881-.245l-.637-1.13a.302.302 0 0 0-.403-.124c-3.705 1.499-6.907.652-8.656-2.259l-.828-1.381a.612.612 0 0 1 .016-.748.608.608 0 0 1 .21-.165l4.404-2.657c.357-.217.639-.223.749-.042l.197.33c.614 1.022 1.847 1.79 3.286.921 1.318-.794 1.127-1.977.789-2.562-1.192-1.976-5.945.969-9.423.613-1.737-.181-3.813-1.259-5.22-3.601-1.946-3.241-1.38-6.856 1.835-9.655a.282.282 0 0 0 .065-.37l-.912-1.451c-.234-.393-.166-.681.194-.898l2.394-1.446c.36-.218.647-.144.881.245l.797 1.398a.304.304 0 0 0 .403.127c3.846-1.544 7.17-.564 9.01 2.542l.685 1.13a.608.608 0 0 1-.225.912l-4.404 2.657c-.358.218-.623.252-.713.105l-.146-.243c-.668-1.11-1.932-2.065-3.458-1.13-1.079.65-1.479 1.751-.991 2.564.971 1.621 4.19-.158 7.355-.593 3.472-.46 5.806.913 7.322 3.437 2.058 3.42 1.534 7.018-1.71 9.833Z"/>
    <path fill="#88C0C2" d="m60.553 82.638-44.785 9.744a2.745 2.745 0 0 0-2.095 3.264l5.424 25.073a2.737 2.737 0 0 0 3.255 2.101l44.786-9.743a2.746 2.746 0 0 0 2.094-3.265l-5.424-25.073a2.737 2.737 0 0 0-3.255-2.1Z"/>
    <path fill="#DE9244" d="M64.505 87.97 14.37 98.879l1.418 6.555 50.135-10.908-1.418-6.554Z"/>
    <path fill="#88C0C2" d="m324.567 146.596-37.581-26.302a2.733 2.733 0 0 0-3.811.68l-14.641 21.04a2.75 2.75 0 0 0 .678 3.822l37.581 26.301a2.732 2.732 0 0 0 3.811-.68l14.641-21.04a2.75 2.75 0 0 0-.678-3.821Z"/>
    <path fill="#DE9244" d="m323.357 153.133-42.07-29.443-3.828 5.5 42.07 29.443 3.828-5.5ZM36.823 61.973l1.51-.107a3.208 3.208 0 0 0 2.046-.936 3.226 3.226 0 0 0 .933-2.052l.107-1.514.107 1.514c.054.774.385 1.503.933 2.052a3.209 3.209 0 0 0 2.046.936l1.51.107-1.51.107a3.209 3.209 0 0 0-2.046.936 3.226 3.226 0 0 0-.933 2.052l-.105 1.503-.106-1.514a3.227 3.227 0 0 0-.934-2.052 3.209 3.209 0 0 0-2.046-.936l-1.512-.096Zm264.029 36.125 2.616-.184a5.557 5.557 0 0 0 3.544-1.62 5.585 5.585 0 0 0 1.615-3.553l.183-2.624.183 2.624a5.587 5.587 0 0 0 1.62 3.56 5.554 5.554 0 0 0 3.553 1.616l2.616.184-2.616.183a5.557 5.557 0 0 0-3.537 1.624 5.591 5.591 0 0 0-1.611 3.55l-.183 2.623-.183-2.623a5.58 5.58 0 0 0-1.615-3.554 5.555 5.555 0 0 0-3.544-1.62l-2.641-.186Zm-27.38-87.683 2.887-.203a6.126 6.126 0 0 0 3.911-1.788 6.159 6.159 0 0 0 1.783-3.923l.214-2.883.202 2.895a6.159 6.159 0 0 0 1.783 3.923 6.126 6.126 0 0 0 3.911 1.787l2.887.203-2.887.204a6.126 6.126 0 0 0-3.911 1.787 6.158 6.158 0 0 0-1.783 3.923l-.202 2.88-.203-2.894a6.163 6.163 0 0 0-1.789-3.928 6.126 6.126 0 0 0-3.922-1.782l-2.881-.201Z"/>
    <path fill="#88C0C2" d="m261.496 12.575 1.506-.104a3.197 3.197 0 0 0 2.041-.933 3.216 3.216 0 0 0 .93-2.046l.104-1.511.105 1.51a3.21 3.21 0 0 0 2.971 2.98l1.506.104-1.506.105a3.21 3.21 0 0 0-2.971 2.98l-.105 1.51-.104-1.51a3.216 3.216 0 0 0-.93-2.047 3.196 3.196 0 0 0-2.041-.933l-1.506-.105Z"/>
    <path fill="#DE9244" d="m11.603 143.118 1.69-.118a3.577 3.577 0 0 0 2.282-1.044c.61-.612.98-1.425 1.04-2.289l.119-1.694.118 1.694c.06.864.43 1.677 1.04 2.289.61.613 1.422.983 2.283 1.044l1.69.118-1.69.119a3.576 3.576 0 0 0-2.283 1.043 3.596 3.596 0 0 0-1.04 2.289l-.118 1.695-.119-1.695a3.596 3.596 0 0 0-1.04-2.289 3.576 3.576 0 0 0-2.282-1.043l-1.69-.119Zm242.504 146.129 1.689-.118a3.578 3.578 0 0 0 2.283-1.044c.61-.612.98-1.425 1.04-2.289l.118-1.694.119 1.694a3.591 3.591 0 0 0 3.323 3.333l1.689.118-1.689.119a3.577 3.577 0 0 0-2.283 1.043 3.591 3.591 0 0 0-1.04 2.289l-.119 1.695-.118-1.695a3.596 3.596 0 0 0-1.04-2.289 3.577 3.577 0 0 0-2.283-1.043l-1.689-.119Zm45.151-78.909 1.69-.118a3.58 3.58 0 0 0 2.282-1.043 3.602 3.602 0 0 0 1.041-2.289l.118-1.695.118 1.695c.061.863.43 1.676 1.041 2.289a3.58 3.58 0 0 0 2.282 1.043l1.69.118-1.69.119a3.58 3.58 0 0 0-2.282 1.043 3.602 3.602 0 0 0-1.041 2.289l-.118 1.695-.118-1.695a3.602 3.602 0 0 0-1.041-2.289 3.58 3.58 0 0 0-2.282-1.043l-1.69-.119ZM22.777 289.247l1.506-.107a3.21 3.21 0 0 0 2.974-2.982l.107-1.511.107 1.511a3.21 3.21 0 0 0 2.974 2.982l1.506.107-1.506.107a3.21 3.21 0 0 0-2.974 2.983l-.107 1.51-.107-1.51a3.21 3.21 0 0 0-2.974-2.983l-1.506-.107Z"/>
    <path fill="#88C0C2" d="M36.26 158.142c.852 0 1.543-.693 1.543-1.548 0-.854-.691-1.547-1.543-1.547s-1.543.693-1.543 1.547c0 .855.69 1.548 1.543 1.548ZM4.797 81.405a4.543 4.543 0 0 0 4.536-4.55 4.543 4.543 0 0 0-4.536-4.549 4.543 4.543 0 0 0-4.537 4.55 4.543 4.543 0 0 0 4.537 4.55Zm11.016 230.152a4.066 4.066 0 0 0 4.06-4.072 4.067 4.067 0 0 0-4.06-4.073 4.067 4.067 0 0 0-4.06 4.073 4.066 4.066 0 0 0 4.06 4.072ZM103.181 7.06a3.523 3.523 0 0 0 3.518-3.527 3.523 3.523 0 0 0-3.518-3.527 3.522 3.522 0 0 0-3.517 3.527 3.522 3.522 0 0 0 3.517 3.527Zm189.04 73.323a3.522 3.522 0 0 0 3.517-3.527 3.522 3.522 0 0 0-3.517-3.528 3.522 3.522 0 0 0-3.517 3.528 3.522 3.522 0 0 0 3.517 3.527Zm3.52 107.578a3.522 3.522 0 0 0 3.517-3.527 3.522 3.522 0 0 0-3.517-3.528 3.523 3.523 0 0 0-3.517 3.528 3.522 3.522 0 0 0 3.517 3.527ZM122.037 321.557c-1.599 7.342-5.913 10.833-12.581 9.793-6.669-1.039-5.159-12.053-6.094-21.606-.935-9.554.462-20.658 10.318-21.787 1.244.133 2.478.348 3.694.643 1.273.305 2.602.746 3.537 1.333 2.332 1.511 2.715 24.281 1.126 31.624Z"/>
    <path fill="#fff" d="M122.037 321.557c-1.599 7.342-5.913 10.833-12.581 9.793 9.202-2.824 10.137-12.99 9.951-25.226-.135-9.094-1.236-15.053-2.036-17.526 1.273.305 2.602.745 3.537 1.333 2.335 1.513 2.718 24.283 1.129 31.626Z"/>
    <path fill="#262424" d="M111.635 332.178a14.991 14.991 0 0 1-2.289-.184.65.65 0 0 1-.436-1.013.648.648 0 0 1 .345-.255c8.223-2.522 9.707-10.929 9.493-24.591-.129-8.622-1.16-14.728-2.002-17.337a.657.657 0 0 1 .425-.837.638.638 0 0 1 .344-.01c1.09.262 2.624.717 3.731 1.412 2.914 1.883 2.816 25.896 1.408 32.318-1.481 6.848-5.359 10.497-11.019 10.497Zm6.671-42.643c.817 3.171 1.628 8.859 1.743 16.588.161 10.305-.36 20.596-7.775 24.741 4.692-.265 7.82-3.482 9.118-9.437 1.811-8.312.893-29.743-.844-30.94a9.557 9.557 0 0 0-2.242-.961v.009Z"/>
    <path fill="#fff" d="M111.751 284.037s5.983 3.671 4.012 12.99c-1.971 9.32-7.603 14.05-15.412 14.756-7.808.706-18.867-.777-14.786-14.615 4.08-13.837 16.963-19.048 26.186-13.131Z"/>
    <path fill="#262424" d="M97.257 312.59c-4.168 0-8.73-.847-11.264-3.979-2.183-2.668-2.535-6.577-1.048-11.615 2.138-7.246 6.823-12.694 12.85-14.947a15.924 15.924 0 0 1 14.305 1.437c.332.206 6.333 4.095 4.303 13.688-1.949 9.221-7.48 14.499-15.99 15.27-1 .098-2.06.146-3.156.146Zm6.313-30.298a15.171 15.171 0 0 0-5.33.977c-5.632 2.109-10.04 7.246-12.059 14.097-1.357 4.6-1.087 8.105.806 10.421 3.019 3.696 9.628 3.691 13.3 3.36 7.884-.711 13.015-5.648 14.834-14.238 1.845-8.727-3.489-12.172-3.717-12.313a14.421 14.421 0 0 0-7.828-2.304h-.006Z"/>
    <path fill="#88C0C2" d="M140.699 238.443c-.589 1.313-1.864 3.671-3.579 6.665-2.028 3.572-4.664 8.045-7.48 12.747-8.414 14.033-18.394 30.101-18.394 30.101a20.809 20.809 0 0 1-.78 10.384c-1.948 5.598-5.795 8.447-5.795 8.447a89.456 89.456 0 0 1-17.53 1.313 61.634 61.634 0 0 1-5.18-.373c-6.663-.79-9.178-6.003-8.986-13.597.12-5.041 1.438-11.124 3.534-17.647 5.26-16.385 21.593-51.787 21.593-51.787 9.011-15.815 21.029-21.262 36.044-16.179 15.015 5.083 9.932 22.392 6.553 29.926Z"/>
    <path fill="#262424" d="m110.458 298.337-9.974-1.296 10.754-9.087a20.817 20.817 0 0 1-.78 10.383Zm26.662-53.229c-2.028 3.572-4.664 8.045-7.48 12.747l2.287-16.526s.211 1.85 5.193 3.779Z"/>
    <path fill="#262424" d="M136.573 245.687a.664.664 0 0 1-.245-.048l-2.306-.946a4.663 4.663 0 0 1-1.752-1.278 4.667 4.667 0 0 1-.982-1.936c-2.551-10.585-1.749-20.867-1.74-20.969a.65.65 0 0 1 1.295.108c0 .099-.791 10.18 1.709 20.556a3.349 3.349 0 0 0 1.971 2.313l2.307.946a.65.65 0 0 1 .157 1.108.65.65 0 0 1-.414.146Z"/>
    <path fill="#262424" d="M108.642 298.679h-.079l-8.166-.988a.65.65 0 0 1-.564-.737.654.654 0 0 1 .133-.314c11.089-14.032 31.167-55.186 31.364-55.602a.658.658 0 0 1 .63-.414.655.655 0 0 1 .539.979c-.197.407-19.504 39.991-30.801 54.922l7.017.847a.653.653 0 0 1 .615.69.653.653 0 0 1-.688.617Z"/>
    <path fill="#fff" d="M94.365 297.612c-.8 4.518-3.684 8.528-7.232 10.482a57.4 57.4 0 0 1-5.181-.372c-6.668-.791-9.18-5.999-8.989-13.601a2.67 2.67 0 0 1 .045-.282c1.228-6.936 6.995-11.714 12.898-10.664 5.902 1.051 9.661 7.501 8.459 14.437Z"/>
    <path fill="#88C0C2" d="M275.75 355.244c-1.245.47-2.549.763-3.874.87-3.211.305-7.795-.282-11.332-4.823-6.049-7.761-17.594-26.264-22.528-31.347-4.933-5.083 1.082-13.182 6.905-13.837a68.43 68.43 0 0 1 14.294-.023c1.374.136 2.816.305 4.292.542.002.003 10.419 26.594 12.243 48.618Z"/>
    <path fill="#fff" d="M275.751 355.244c-1.245.47-2.55.763-3.875.87-.744-4.236-1.236-12.301-4.145-23.222-4.081-15.317-6.657-22.837-8.516-26.802 1.374.135 2.816.305 4.292.542.002-.003 10.419 26.588 12.244 48.612Z"/>
    <path fill="#262424" d="M271.876 356.766a.653.653 0 0 1-.64-.539c-.2-1.13-.383-2.558-.594-4.199-.597-4.637-1.408-10.988-3.539-18.969-3.577-13.425-6.35-22.157-8.477-26.693a.659.659 0 0 1 .057-.652.636.636 0 0 1 .594-.282c1.577.155 2.993.333 4.328.545a.653.653 0 0 1 .504.406c.104.268 10.476 26.93 12.286 48.799a.649.649 0 0 1-.397.655 14.828 14.828 0 0 1-4.066.918h-.059l.003.011Zm-11.602-49.911c2.106 4.857 4.694 13.143 8.084 25.871 2.149 8.065 2.971 14.464 3.574 19.138.172 1.344.327 2.542.484 3.539a14.53 14.53 0 0 0 2.645-.599c-1.791-20.231-10.814-44.413-12.025-47.588a63.272 63.272 0 0 0-2.762-.361Z"/>
    <path fill="#fff" d="m242.483 321.695-6.793-2.138-12.069-3.798 6.477-11.48 2.331 1.059 13.162 5.996s1.682 7.913-3.108 10.361Z"/>
    <path fill="#262424" d="M242.482 322.347a.645.645 0 0 1-.194-.031l-18.867-5.93a.655.655 0 0 1-.372-.943l6.477-11.48a.648.648 0 0 1 .845-.282l15.488 7.06a.647.647 0 0 1 .366.457c.073.342 1.735 8.427-3.441 11.076a.647.647 0 0 1-.302.073Zm-17.901-6.981 17.834 5.612c3.52-2.051 2.816-7.789 2.591-9.201l-14.643-6.667-5.782 10.256Z"/>
    <path fill="#262424" d="m235.687 319.557-12.069-3.798 6.477-11.48 2.332 1.059a89.575 89.575 0 0 1 3.26 14.219Z"/>
    <path fill="#fff" d="M231.782 312.562c-2.903 8.28-11.636 15.815-15.39 16.097-1.593.121-4.739-.895-7.988-2.259-4.393-1.825-8.978-4.276-10.225-5.366-1.732-1.519-2.746-14.798 4.522-25.667a29.61 29.61 0 0 1 6.837-7.272s4.973-3.389 6.1-3.389c1.126 0 15.769 7.246 16.524 7.811.755.565 2.532 11.765-.38 20.045Z"/>
    <path fill="#262424" d="M216.122 329.317c-2.011 0-5.407-1.242-7.969-2.318-4.266-1.771-9.028-4.279-10.4-5.471-2.03-1.781-3.097-15.317 4.41-26.523a30.325 30.325 0 0 1 6.987-7.43c1.23-.847 5.26-3.518 6.491-3.518 1.565 0 16.805 7.862 16.912 7.941 1.197.903 2.698 12.668-.157 20.785-2.994 8.542-11.929 16.226-15.953 16.526a6.676 6.676 0 0 1-.321.008Zm-.515-43.961c-.563.022-3.419 1.72-5.705 3.278a28.996 28.996 0 0 0-6.663 7.097c-7.282 10.89-5.933 23.677-4.635 24.815 1.126.974 5.519 3.372 10.044 5.25 3.585 1.505 6.393 2.318 7.691 2.211 3.61-.268 12.033-7.698 14.823-15.659 2.681-7.625 1.242-18.105.563-19.345-1.427-.932-14.933-7.492-16.115-7.647h-.003Z"/>
    <path fill="#262424" d="M208.404 326.397c-4.393-1.824-8.978-4.275-10.225-5.365-1.732-1.52-2.746-14.798 4.522-25.668l5.703 31.033Z"/>
    <path fill="#88C0C2" d="M132.2 221.827c-3.123 13.73 23.348 68.386 41.297 83.206 6.384 5.273 30.412 13.177 30.412 13.177s17.645-6.023 12.765-29.37l-21.587-10.352s-15.392-34.64-21.024-52.711c-5.632-18.071-36.045-29.553-41.863-3.95Z"/>
    <path fill="#fff" d="M169.318 287.29c-5.753 8.836 12.17 27.317 22.113 15.868 9.71-11.18-13.62-28.907-22.113-15.868Z"/>
    <path fill="#262424" d="M214.655 296.838a.64.64 0 0 1-.262-.057l-28.016-12.425a.65.65 0 0 1-.282-.237c-6.158-9.356-26.059-57.822-26.901-59.87a.653.653 0 0 1 .367-.821.65.65 0 0 1 .836.327c.205.5 20.466 49.85 26.681 59.499l27.839 12.344a.653.653 0 0 1-.262 1.24Zm-168.19-99.03a.651.651 0 0 1-.406-1.16c.609-.486 14.987-11.926 23.522-12.878a.65.65 0 0 1 .7.578.654.654 0 0 1-.556.718c-8.166.91-22.708 12.482-22.854 12.598a.645.645 0 0 1-.406.144Z"/>
    <path fill="#fff" d="M118.914 146.832c-.112 2.753-1.109 6.091-3.458 10.011-4.288 7.167-12.39 18.178-20.024 27.797-7.4 9.319-14.362 17.317-17.05 19.265-5.441 3.954-10.885 2.355-15.303-4.145-4.418-6.501-8.625-17.405-8.625-17.405l3.097-4.236 12.11 6.309s25.061-39.536 28.905-42.925c3.844-3.389 7.42-4.05 11.822-4.614 3.182-.416 8.814 2.807 8.526 9.943Z"/>
    <path fill="#262424" d="M72.504 206.698c-.499 0-.997-.043-1.49-.13-3.077-.539-5.927-2.705-8.47-6.441-4.401-6.476-8.653-17.419-8.701-17.529a.652.652 0 0 1 .081-.621l3.098-4.236a.652.652 0 0 1 .825-.195l11.585 6.032c3.044-4.826 25.009-39.33 28.7-42.572 3.943-3.482 7.694-4.196 12.174-4.77 1.906-.243 4.275.65 6.043 2.276 2.208 2.028 3.348 4.993 3.213 8.348-.129 3.129-1.323 6.603-3.551 10.319-3.889 6.495-11.582 17.179-20.072 27.868-6.268 7.893-14.08 17.127-17.177 19.386-2.062 1.506-4.174 2.265-6.258 2.265Zm-17.318-24.241c.743 1.867 4.54 11.208 8.431 16.944 2.335 3.434 4.9 5.416 7.62 5.891 2.21.387 4.489-.254 6.759-1.909 2.472-1.796 9.115-9.319 16.924-19.141 8.447-10.647 16.113-21.271 19.973-27.726 2.115-3.528 3.247-6.792 3.379-9.701.153-3.798-1.436-6.086-2.793-7.342-1.498-1.379-3.461-2.141-5.001-1.943-4.399.564-7.798 1.214-11.48 4.456-3.74 3.287-28.544 42.391-28.794 42.784a.647.647 0 0 1-.845.229l-11.619-6.05-2.554 3.508Z"/>
    <path fill="#262424" d="M118.914 146.832c-.112 2.753-1.109 6.091-3.458 10.011-4.288 7.167-12.39 18.178-20.024 27.797.822-13.033 5.294-41.067 21.793-38.215.571.099 1.136.235 1.689.407Z"/>
    <path fill="#DE9244" d="m54.8 194.959-15.347.988 20.275 23.928 15.347-.988L54.8 194.959Zm-14.618 70.603 23.981-1.545 10.912-45.13-15.347.988-19.546 45.687Z"/>
    <path fill="#DE9244" d="M39.453 195.947 4.797 222.069l35.386 43.493 19.545-45.687-20.275-23.928Z"/>
    <path fill="#262424" d="M59.728 220.527a.643.643 0 0 1-.495-.228L40.86 198.613a.657.657 0 0 1 .073-.921.67.67 0 0 1 .474-.154.654.654 0 0 1 .444.228l18.16 21.434 12.9-.83a.654.654 0 0 1 .5.143.647.647 0 0 1 .198.725.652.652 0 0 1-.616.431l-13.235.847h-.042l.011.011Z"/>
    <path fill="#262424" d="M42.063 261.809a.65.65 0 0 1-.597-.909l17.665-41.268a.65.65 0 0 1 1.194.514l-17.662 41.282a.654.654 0 0 1-.6.381Zm25.344-39.09a.652.652 0 0 1-.582-.938c.123-.254 12.272-25.416 7.383-34.006-.94-1.652-2.444-2.542-4.599-2.709a.65.65 0 0 1-.351-1.132.656.656 0 0 1 .453-.167c2.58.204 4.472 1.336 5.632 3.361 5.226 9.178-6.829 34.171-7.347 35.224a.645.645 0 0 1-.589.367Z"/>
    <path fill="#fff" d="M60.086 172.841c2.816 0 3.708.706 3.753 3.578.045 2.872-.47 6.543-3.145 6.354-2.675-.189-2.256-9.932-.608-9.932Z"/>
    <path fill="#262424" d="M60.888 183.428h-.242c-2.019-.141-2.624-3.431-2.517-6.461.05-1.435.34-4.77 1.954-4.77 3.241 0 4.353 1.065 4.404 4.219.034 2.11-.22 4.906-1.627 6.244a2.76 2.76 0 0 1-1.972.768Zm-.735-9.937c-.563.542-1.126 4.549-.377 7.19.245.875.605 1.412.96 1.44a1.539 1.539 0 0 0 1.228-.418c.82-.78 1.264-2.7 1.222-5.275-.042-2.421-.566-2.926-3.035-2.937h.002Z"/>
    <path fill="#fff" d="M59.376 171.452c-.622-.729-3.801-2.754-5.28-2.824-1.478-.071-7.814 1.059-8.73 1.976-.914.918-.14 15.109.423 16.239.563 1.129 6.618 1.765 8.8 1.482 2.183-.282 4.858-3.247 5.21-4.024.352-.777.85-11.367-.423-12.849Z"/>
    <path fill="#262424" d="M53.35 189.034c-2.678 0-7.46-.528-8.141-1.901-.389-.779-1.645-15.642-.301-16.989 1.157-1.161 7.884-2.239 9.22-2.166 1.714.082 5.048 2.24 5.741 3.05 1.552 1.816.893 12.725.521 13.555-.372.831-3.202 4.075-5.717 4.4-.44.043-.881.06-1.323.051Zm.563-19.768c-1.824 0-7.442 1.155-8.076 1.79-.611 1.192 0 14.222.55 15.493.531.686 5.786 1.412 8.132 1.129 1.861-.24 4.395-2.97 4.7-3.645.377-1.13.613-11.059-.324-12.144-.513-.601-3.548-2.541-4.818-2.598h-.186l.022-.025Z"/>
    <path fill="#fff" d="M131.612 149.916c-23.655.686-25.063 3.389-17.606-14.968 0 0 3.492-1.694 10.763-2.937l.648-10.465 4.787-1.486 4.787-1.477.25 12.288c4.281-.219 8.569-.219 12.85 0 0 0 2.934 18.48-16.479 19.045Z"/>
    <path fill="#262424" d="M116.687 151.11c-3.661 0-5.779-.395-6.759-1.793-1.503-2.135-.109-5.795 3.467-14.6a.65.65 0 0 1 .321-.342c.144-.068 3.495-1.66 10.419-2.903l.62-9.966a.653.653 0 0 1 .456-.582l9.574-2.962a.655.655 0 0 1 .575.093.656.656 0 0 1 .27.517l.236 11.615c3.943-.186 8.071-.181 12.247.026a.65.65 0 0 1 .611.547c.054.339 1.265 8.357-3.523 14.154-2.954 3.578-7.524 5.479-13.581 5.648-3.019.088-5.666.209-8 .314-2.76.133-5.049.234-6.933.234Zm-2.191-15.662c-2.816 6.922-4.649 11.497-3.512 13.115 1.082 1.536 5.162 1.35 12.571 1.014 2.34-.108 4.993-.226 8.023-.314 5.668-.163 9.912-1.909 12.618-5.185 3.748-4.538 3.475-10.768 3.3-12.595a126.165 126.165 0 0 0-12.235.034.638.638 0 0 1-.477-.174.648.648 0 0 1-.207-.464l-.234-11.423-8.321 2.575-.606 10.034a.647.647 0 0 1-.563.587c-6.06 1.059-9.487 2.423-10.357 2.796Z"/>
    <path fill="#262424" d="M132.831 124.776c-1.585 8.3-8.076 7.247-8.076 7.247l.662-10.477 4.787-1.486c1.898.562 3.154 1.918 2.627 4.716Z"/>
    <path fill="#DE9244" d="M181.015 223.62s-17.459 11.861-45.9 11.861c-28.442 0-40.125-11.014-40.125-11.014s6.758-24.569 9.011-40.527c0 0-6.477-10.02-7.738-14.685-1.262-4.666 4.505-21.745 9.427-32.897l10.983-3.536-3.14 10.898a3.922 3.922 0 0 0 2.316 4.433 3.907 3.907 0 0 0 1.764.294l19.54-1.293a6.662 6.662 0 0 0 3.982-1.663 6.7 6.7 0 0 0 2.135-3.759l3.396-12.564 14.361 1.129s3.241 6.496 6.621 25.416a963.04 963.04 0 0 0 2.416 12.912 3411.968 3411.968 0 0 0 4.305 21.976c3.425 17.17 6.646 33.019 6.646 33.019Z"/>
    <path fill="#262424" d="M174.37 190.598c-16.809-9.212-16.896-35.41-16.896-35.904 0 0 6.124 6.368 12.581 13.928a4732.106 4732.106 0 0 0 4.315 21.976Zm58.037 9.249a.656.656 0 0 1-.538-.282c-.107-.158-11.072-15.979-28.658-21.491a.647.647 0 0 1-.454-.564.66.66 0 0 1 .149-.477.649.649 0 0 1 .693-.204c18.023 5.648 29.233 21.835 29.346 21.996a.657.657 0 0 1-.201.929.646.646 0 0 1-.337.093Z"/>
    <path fill="#fff" d="M160.461 131.848c-7.386 0-9.011 18.215-2.393 29.087 6.617 10.872 28.16 32.615 38.579 37.415 10.419 4.801 19.148-11.578 21.401-17.085 2.253-5.507-4.505-8.331-8.166-6.919-3.661 1.412-7.885 2.542-7.885 2.542s-29.849-45.04-41.536-45.04Z"/>
    <path fill="#262424" d="M200.471 199.864a9.716 9.716 0 0 1-4.092-.923c-10.478-4.829-32.102-26.574-38.86-37.67-5.218-8.573-5.303-20.897-2.112-26.599 1.272-2.276 3.024-3.479 5.068-3.479 11.442 0 38.65 40.205 41.812 44.938 1.177-.33 4.472-1.279 7.37-2.397 2.489-.961 6.082-.133 8.005 1.841 1.555 1.593 1.907 3.702.994 5.93-.236.579-5.913 14.242-14.457 17.619a10.06 10.06 0 0 1-3.728.74Zm-40.01-67.364c-1.563 0-2.883.946-3.928 2.824-3.007 5.366-2.751 17.325 2.089 25.281 6.672 10.957 27.986 32.414 38.298 37.164a8.37 8.37 0 0 0 3.38.805 8.368 8.368 0 0 0 3.415-.641c6.417-2.542 11.65-11.819 13.733-16.902.901-2.206.107-3.671-.721-4.519-1.568-1.609-4.598-2.312-6.611-1.533-3.661 1.412-7.908 2.542-7.95 2.561a.652.652 0 0 1-.71-.282c-.29-.458-29.787-44.758-40.995-44.758Z"/>
    <path fill="#fff" d="M208.8 163.849s-1.644-1.807-3.351-.118c-1.706 1.689-.529 9.669 2.273 9.359 2.802-.311 2.205-4.369 1.078-9.241Z"/>
    <path fill="#262424" d="M207.573 173.751c-.668 0-1.721-.331-2.565-2.107-1.194-2.514-1.442-6.964-.015-8.376a2.8 2.8 0 0 1 2.084-.91c.841.06 1.628.435 2.205 1.051.074.08.126.177.152.282 1.006 4.344 1.408 7.343.282 8.955a2.584 2.584 0 0 1-1.912 1.082 2.258 2.258 0 0 1-.231.023Zm-.563-10.088c-.211.01-.417.063-.607.154a1.576 1.576 0 0 0-.497.38c-.845.847-.845 4.538.281 6.888.257.539.772 1.429 1.47 1.361a1.305 1.305 0 0 0 .997-.54c.879-1.242.321-4.425-.433-7.718a1.974 1.974 0 0 0-1.178-.525h-.033Z"/>
    <path fill="#fff" d="M208.33 164.18c-.233-2.926 4.647-6.366 6.9-6.719 2.252-.353 7.743 1.977 8.87 4.46 1.126 2.482.563 16.096-.986 17.579-1.549 1.483-7.532 2.287-10.137 1.511-2.605-.777-3.661-4.476-4.647-16.831Z"/>
    <path fill="#262424" d="M215.652 181.963a10.532 10.532 0 0 1-2.861-.328c-2.991-.892-4.089-4.631-5.108-17.402-.265-3.315 4.832-7.003 7.445-7.415 2.41-.376 8.254 1.962 9.574 4.831 1.231 2.7.71 16.563-1.126 18.32-1.321 1.257-4.979 1.994-7.924 1.994Zm-6.674-17.834c.94 11.785 1.918 15.583 4.184 16.258 2.478.737 8.167-.074 9.504-1.359 1.276-1.22 1.938-14.436.845-16.836-1.028-2.26-6.246-4.4-8.166-4.087-2.064.325-6.545 3.601-6.35 6.024h-.017Zm-3.041 60.849a.65.65 0 0 1-.51-.248c-.651-.831-15.871-20.494-12.909-35.961 1.017-5.318 4.098-9.503 9.152-12.446a.652.652 0 0 1 .651 1.13c-4.714 2.742-7.584 6.633-8.53 11.561-2.849 14.883 12.5 34.716 12.655 34.914a.65.65 0 0 1-.168.949.644.644 0 0 1-.341.101Z"/>
    <path fill="#DE9244" d="m202.994 223.041 29.754-25.326a2.988 2.988 0 0 1 3.843-.028l38.771 32.064a3 3 0 0 1 1.088 2.24 3.006 3.006 0 0 1-.973 2.292l-43.616 39.963a2.997 2.997 0 0 1-2.526.744 2.997 2.997 0 0 1-2.135-1.543l-24.907-46.701a3.008 3.008 0 0 1 .701-3.705Z"/>
    <path fill="#262424" d="M137.903 87.683c-3.777 3.72 3.877 11.618 6.744 13.939 2.866 2.322 4.173 11.819 11.14 12.282 6.967.463.94 16.472 20.421 22.262 15.015 4.462 31.539-10.472 24.781-19.252-6.758-8.779-24.381-6.814-30.461-14.922-3.869-5.16-4.88-14.524-15.673-13.586-8.06.697-13.973-3.657-16.952-.723Z"/>
    <path fill="#fff" d="M115.594 114.169s-3.201-4.046-6.169-2.352c-2.968 1.694-1.127 11.912 6.347 9.909l-.178-7.557Z"/>
    <path fill="#262424" d="M114.471 122.613c-2.861.226-5.187-1.273-6.381-4.196-1.051-2.57-.96-6.038 1.016-7.168 3.419-1.948 6.854 2.33 7.001 2.514a.653.653 0 0 1-1.017.81c-.028-.036-2.895-3.586-5.35-2.191-1.155.661-1.374 3.301-.456 5.541.538 1.318 2.23 4.264 6.316 3.174a.669.669 0 0 1 .259-.027.659.659 0 0 1 .578.742.653.653 0 0 1-.502.544c-.479.13-.969.216-1.464.257Z"/>
    <path fill="#fff" d="m135.425 92.919 1.689-.972a1.708 1.708 0 0 1 1.741.014 5.776 5.776 0 0 1 1.903 1.762c.563.907.549 1.977.448 2.678a1.705 1.705 0 0 1-.679 1.13l-1.794 1.326a1.71 1.71 0 0 1-2.114-.055 1.723 1.723 0 0 1-.462-.597l-1.431-3.044a1.723 1.723 0 0 1 .699-2.242Z"/>
    <path fill="#262424" d="M137.897 99.829a2.367 2.367 0 0 1-2.329-1.358l-1.422-3.045a2.398 2.398 0 0 1 .963-3.072l1.69-.972a2.359 2.359 0 0 1 2.396.02 6.448 6.448 0 0 1 2.118 1.977c.664 1.062.661 2.282.54 3.106a2.333 2.333 0 0 1-.937 1.55l-1.794 1.328c-.356.268-.781.43-1.225.466Zm-2.149-6.346a1.079 1.079 0 0 0-.433 1.387l1.43 3.047a1.08 1.08 0 0 0 .706.583 1.067 1.067 0 0 0 .896-.176l1.794-1.328a1.043 1.043 0 0 0 .423-.689 3.37 3.37 0 0 0-.355-2.236 5.163 5.163 0 0 0-1.69-1.55 1.063 1.063 0 0 0-1.081 0l-1.69.962Z"/>
    <path fill="#fff" d="M113.798 116.016c.845 6.346 4.244 13.476 11.911 12.663 5.632-.596 11.354-7.907 11.157-16.551-.197-8.645-2.252-15.891-12.55-14.564a24.97 24.97 0 0 0-3.247.692c-5.883 1.799-8.13 2.513-7.651 14.363.042 1.05.216 2.2.38 3.397Z"/>
    <path fill="#262424" d="M125.445 129.36c-7.668.604-11.377-6.414-12.292-13.256l-.065-.475c-.143-1.05-.281-2.041-.318-2.982-.476-11.784 1.712-13.058 8.11-15.012a25.635 25.635 0 0 1 3.354-.715c3.883-.505 6.955.181 9.101 2.03 3.509 3.025 4.078 8.625 4.182 13.166.214 9.39-6.015 16.608-11.737 17.227l-.335.017Zm-.065-31.25a19.09 19.09 0 0 0-.983.1 24.47 24.47 0 0 0-3.142.67c-5.723 1.748-7.649 2.339-7.19 13.714.037.875.169 1.838.31 2.855l.065.477c.411 3.073 2.441 12.99 11.199 12.101 5.15-.545 10.768-7.456 10.574-15.888-.141-6.258-1.326-10.135-3.728-12.208-1.701-1.449-4.033-2.065-7.105-1.822Z"/>
    <path fill="#262424" d="M134.216 113.187a6.193 6.193 0 0 1-4.274-4.66c-.172-.737-.318-1.737-.606-2.629-4.012 4.933-12.049 8.367-15.561 9.698a2.814 2.814 0 0 1-3.19-.808c-4.683-5.885-.609-18.19 7.454-18.59 8.633-7.06 19.664-3.288 21.787 4.329 2.351 8.443-2.954 13.532-5.61 12.66Z"/>
    <path fill="#fff" d="M134.259 112.701s3.83-4.646 8.335-3.584c4.506 1.062 2.746 11.514-8.186 11.076l-.149-7.492Z"/>
    <path fill="#262424" d="M136.278 120.811c-.635.049-1.271.061-1.907.034a.65.65 0 0 1-.622-.677.63.63 0 0 1 .207-.455.646.646 0 0 1 .469-.17c6.088.243 9.335-3.106 9.768-6.3.203-1.483-.264-3.137-1.757-3.49-4.06-.958-7.642 3.321-7.679 3.366a.65.65 0 0 1-1.002-.83c.166-.204 4.142-4.945 8.977-3.804 1.971.468 3.098 2.451 2.748 4.933-.459 3.42-3.522 6.947-9.202 7.393Z"/>
  </g>
  <defs>
    <clipPath id="a">
      <path fill="#fff" d="M0 0h325.479v360H0z" transform="translate(.26)"/>
    </clipPath>
  </defs>
</svg>
