<svg xmlns="http://www.w3.org/2000/svg" width="75" height="56" fill="none" viewBox="0 0 75 56"><g clip-path="url(#a)" fill="#000"><path d="M34.76 1.053c-3.862 4.021-5.17 5.776-5.808 7.595-.607 1.724-.607 4.532 0 5.713.83 1.595 1.723 4.787 2.872 10.276.287 1.372.638 2.553.83 2.648.382.256.382.798 0 .798-.415 0-5.074-4.404-5.521-5.233-.415-.734-2.649-5.106-2.649-5.17 0-.032-.638-.16-1.436-.256-.797-.127-1.276-.127-1.085.032.192.128.958 1.468 1.755 2.936 1.82 3.447 4.213 6.32 6.83 8.17 1.148.83 2.074 1.596 2.074 1.755 0 .702 2.935 3.415 4.084 3.766 2.968.894 3.957.383 9.414-5.01 3.223-3.192 6.383-5.457 7.659-5.457.766 0 .67-.543-.16-.735-1.563-.414-8.041 3.383-11.615 6.862-2.49 2.393-4.18 3.446-5.521 3.446-.351 0-.734-.16-.83-.319-.319-.51 1.34-3.797 2.649-5.233 2.042-2.266 3.255-3.798 3.255-4.085 0-.16.415-.894.893-1.628 1.404-2.074 1.82-3.383 1.787-5.648-.032-2.873-.606-5.138-2.106-8.138C40.248 4.34 36.993 0 36.036 0c-.16 0-.734.479-1.276 1.053Zm1.404 3.638c0 .766.127 1.372.287 1.372.702 0-.51 4.022-2.106 7.117-.99 1.851-1.053 2.17-.575 2.074.702-.127 2.585-2.872 3.83-5.616.542-1.15 1.085-1.947 1.34-1.915.99.223 2.68 7.659 2.266 10.02-.128.703-.958 2.809-1.883 4.66-1.5 3.127-1.723 3.415-2.904 3.893-.702.287-1.404.447-1.532.351-.16-.064-.415-.766-.606-1.5a925.424 925.424 0 0 1-1.978-8.17c-.734-3.19-.83-7.85-.128-9.126.223-.511.447-1.054.447-1.213 0-.16.414-.894.925-1.628.479-.734 1.149-1.755 1.468-2.265l.574-.958.288.798c.191.415.319 1.372.287 2.106Z"/><path d="M20.527 25.69c.064 1.276.479 2.042 2.266 3.957 1.021 1.053 1.883 1.947 1.979 1.947.127 0 1.69 1.053 5.17 3.478 1.85 1.309 1.978 1.468 2.233 2.904.128.607.479 1.468.798 1.883.35.415.606.894.606 1.053 0 .287-1.66-.766-2.553-1.627-1.276-1.245-7.786-4.979-9.797-5.585-.638-.192-.734-.128-.734.574 0 1.053.798 1.756 3.574 3.192 1.245.638 3.064 1.723 4.053 2.457.99.702 2.298 1.596 2.904 1.978.606.415 1.277 1.054 1.468 1.468.223.383.447.575.575.415.223-.383 1.467-.127 1.467.288 0 .574 1.66.255 2.968-.543.734-.479 2.138-1.596 3.128-2.49.989-.893 2.36-1.978 3.095-2.393.734-.446 1.787-1.212 2.33-1.691.542-.51 1.084-.83 1.212-.766.128.096.543-.542.894-1.436.893-2.042.35-2.106-1.915-.16-1.915 1.628-5.265 3.447-5.776 3.16-.192-.128-.83-.575-1.404-.99-1.213-.925-1.755-.701-.766.352.638.702.638.734.064 2.297-.288.862-.766 1.979-1.021 2.458l-.48.893-.35-.734c-.192-.383-.51-1.564-.734-2.617-.543-2.872-1.085-3.702-3.255-5.074a107.793 107.793 0 0 1-5.01-3.51c-1.66-1.245-3.638-2.68-4.404-3.191-.734-.511-1.627-1.309-1.978-1.756-.543-.734-.607-.766-.607-.191Z"/></g><path fill="#000" d="M6.335 51.278c0-.699.142-1.347.425-1.944a4.957 4.957 0 0 1 1.14-1.549 5.077 5.077 0 0 1 1.655-1.033 5.19 5.19 0 0 1 1.959-.38c.324 0 .663.046 1.017.137.365.091.694.228.987.41.304.183.552.416.745.699.192.273.288.602.288.987 0 .213-.04.385-.122.516-.08.132-.237.198-.47.198-.294 0-.557-.076-.79-.228a13.998 13.998 0 0 1-.668-.486 5.982 5.982 0 0 0-.714-.501 1.708 1.708 0 0 0-.896-.228c-.465 0-.89.091-1.275.273-.385.172-.719.41-1.002.714a3.131 3.131 0 0 0-.638 1.048 3.52 3.52 0 0 0-.228 1.275c0 .496.086.962.258 1.397.183.436.425.82.73 1.154.313.324.683.582 1.108.775a3.62 3.62 0 0 0 1.412.273c.314 0 .587-.045.82-.136.243-.092.46-.203.653-.334.192-.142.364-.289.516-.44.162-.163.324-.31.486-.441.162-.142.329-.258.501-.35a1.34 1.34 0 0 1 .607-.136.95.95 0 0 1 .35.06c.111.03.167.132.167.304 0 .284-.076.547-.228.79a2.538 2.538 0 0 1-.577.668 4.06 4.06 0 0 1-.835.531 6.314 6.314 0 0 1-.942.38 8.382 8.382 0 0 1-.926.243c-.304.05-.567.076-.79.076-.647 0-1.26-.121-1.837-.364a4.867 4.867 0 0 1-1.503-1.018A4.868 4.868 0 0 1 6.7 53.115a4.687 4.687 0 0 1-.364-1.837Zm12.045 4.403a2.007 2.007 0 0 1-.242-.212.768.768 0 0 1-.168-.289v-1.215c0-1.204.02-2.399.061-3.583.05-1.185.066-2.384.046-3.6.07-.151.141-.242.212-.273a.701.701 0 0 1 .274-.045c.212 0 .384.056.516.167.132.111.233.253.304.425.08.172.136.37.167.592.04.223.06.44.06.653.01.213.01.415 0 .608v.47c0 .537-.02 1.068-.06 1.595-.04.526-.061 1.058-.061 1.594 0 .73.203 1.28.607 1.655.415.375.987.562 1.716.562.264 0 .522-.02.775-.06.263-.041.526-.061.79-.061.202 0 .333.04.394.121.06.071.091.203.091.395a.811.811 0 0 1-.106.44.665.665 0 0 1-.258.243 1.398 1.398 0 0 1-.38.107c-.141.02-.288.03-.44.03a9.59 9.59 0 0 1-1.078-.06l-1.063-.122c-.355-.04-.709-.076-1.063-.106a6.521 6.521 0 0 0-1.093-.03Zm7.425-.243v-.076a.45.45 0 0 0 .016-.076c.151-.314.303-.749.455-1.306.162-.556.334-1.159.517-1.807.192-.648.394-1.3.607-1.958.223-.669.46-1.27.713-1.807.264-.547.547-.992.85-1.337.305-.344.639-.516 1.003-.516.172 0 .324.02.456.06a.606.606 0 0 1 .349.259c.162.243.299.511.41.805.111.283.212.577.304.88l.273.912c.091.293.202.577.334.85.05.111.132.283.243.516l.38.76c.141.283.288.587.44.91.152.314.299.613.44.896.142.284.269.542.38.775.111.223.192.39.243.5.06.102.091.203.091.305.01.09.015.192.015.303 0 .203-.045.34-.136.41-.092.071-.238.107-.44.107a.89.89 0 0 1-.532-.152 2.61 2.61 0 0 1-.41-.41 54.145 54.145 0 0 0-.425-.517 2.684 2.684 0 0 0-.547-.516 2.808 2.808 0 0 0-.82-.395c-.314-.111-.714-.167-1.2-.167-.405 0-.749.056-1.032.167a2.326 2.326 0 0 0-.699.395c-.192.162-.36.334-.5.517-.132.182-.26.354-.38.516a2.489 2.489 0 0 1-.38.41.773.773 0 0 1-.486.152.87.87 0 0 1-.364-.076c-.112-.05-.168-.147-.168-.289Zm2.946-4.16c0 .384.086.713.258.986.172.264.466.395.881.395.243 0 .486-.045.73-.136.242-.102.394-.294.455-.577.01-.051.015-.147.015-.289v-.273c0-.213-.026-.446-.076-.699a3.272 3.272 0 0 0-.228-.713 1.586 1.586 0 0 0-.395-.547.764.764 0 0 0-.562-.228.664.664 0 0 0-.5.228c-.132.152-.244.34-.335.562-.08.212-.142.44-.182.683a3.62 3.62 0 0 0-.06.608Zm7.991 2.915c0-.142.025-.248.076-.319.06-.08.166-.121.318-.121.243 0 .466.055.668.167.203.1.405.217.608.349.212.132.425.253.638.364.222.102.47.152.744.152.212 0 .42-.025.622-.076.213-.05.4-.131.562-.243a1.49 1.49 0 0 0 .395-.44 1.21 1.21 0 0 0 .152-.623c0-.415-.122-.734-.365-.956a2.724 2.724 0 0 0-.91-.562 8.304 8.304 0 0 0-1.17-.395 7.992 7.992 0 0 1-1.17-.44 2.926 2.926 0 0 1-.895-.699c-.243-.293-.365-.693-.365-1.2 0-.475.097-.89.289-1.245a2.86 2.86 0 0 1 .79-.91 3.465 3.465 0 0 1 1.093-.547 4.517 4.517 0 0 1 2.095-.107c.304.04.582.122.835.243.254.112.461.269.623.471.172.203.258.466.258.79 0 .141-.035.288-.106.44-.06.152-.177.228-.35.228a1.28 1.28 0 0 1-.607-.152c-.182-.111-.37-.233-.562-.364a4.165 4.165 0 0 0-.577-.35 1.25 1.25 0 0 0-.637-.167c-.425 0-.79.122-1.094.365-.293.233-.44.567-.44 1.002 0 .445.122.8.364 1.063.243.253.542.465.896.638.365.162.755.308 1.17.44a7.22 7.22 0 0 1 1.169.47c.364.183.668.42.91.714.244.294.365.689.365 1.185 0 .445-.096.835-.288 1.17a2.667 2.667 0 0 1-.76.819c-.313.223-.667.39-1.062.501-.395.101-.79.152-1.185.152-.273 0-.587-.025-.941-.076a4.312 4.312 0 0 1-1.018-.273 2.555 2.555 0 0 1-.804-.562c-.223-.233-.334-.532-.334-.896Zm9.001 0c0-.142.025-.248.076-.319.06-.08.167-.121.319-.121.242 0 .465.055.668.167.202.1.405.217.607.349.213.132.425.253.638.364.222.102.47.152.744.152.212 0 .42-.025.622-.076.213-.05.4-.131.562-.243a1.49 1.49 0 0 0 .395-.44 1.21 1.21 0 0 0 .152-.623c0-.415-.122-.734-.365-.956a2.724 2.724 0 0 0-.91-.562 8.304 8.304 0 0 0-1.17-.395 7.992 7.992 0 0 1-1.169-.44 2.926 2.926 0 0 1-.896-.699c-.243-.293-.364-.693-.364-1.2 0-.475.096-.89.288-1.245.203-.364.466-.668.79-.91a3.463 3.463 0 0 1 1.093-.547 4.517 4.517 0 0 1 2.096-.107c.303.04.582.122.835.243.253.112.46.269.622.471.172.203.259.466.259.79 0 .141-.036.288-.107.44-.06.152-.177.228-.35.228-.212 0-.414-.05-.606-.152-.183-.111-.37-.233-.562-.364a4.165 4.165 0 0 0-.577-.35 1.25 1.25 0 0 0-.638-.167c-.425 0-.79.122-1.093.365-.294.233-.44.567-.44 1.002 0 .445.12.8.364 1.063.243.253.541.465.896.638.364.162.754.308 1.169.44a7.22 7.22 0 0 1 1.169.47c.364.183.668.42.911.714s.365.689.365 1.185c0 .445-.097.835-.289 1.17a2.667 2.667 0 0 1-.76.819c-.313.223-.667.39-1.062.501-.395.101-.79.152-1.184.152-.274 0-.588-.025-.942-.076a4.312 4.312 0 0 1-1.017-.273 2.555 2.555 0 0 1-.805-.562c-.223-.233-.334-.532-.334-.896Zm9.017.577c0-.05-.006-.132-.016-.243V53.51c0-.547.02-1.089.06-1.625a82.36 82.36 0 0 0 .137-1.64c.051-.547.091-1.088.122-1.625.03-.546.03-1.093 0-1.64.05-.172.126-.283.228-.334a.76.76 0 0 1 .394-.091c.253 0 .436.081.547.243.121.152.197.34.228.562.04.212.056.435.045.668-.01.233-.015.425-.015.577 0 .668-.02 1.326-.06 1.974a31.26 31.26 0 0 0-.061 1.974c0 .446.015.886.045 1.321.04.435.061.876.061 1.321 0 .152-.06.294-.182.425a.551.551 0 0 1-.395.183c-.334 0-.597-.091-.79-.274-.182-.182-.298-.435-.349-.759Zm13.558-3.492a4.48 4.48 0 0 0-.425-1.944 4.957 4.957 0 0 0-1.14-1.549 5.077 5.077 0 0 0-1.654-1.033 5.19 5.19 0 0 0-1.96-.38c-.323 0-.662.046-1.017.137a3.44 3.44 0 0 0-.987.41 2.342 2.342 0 0 0-.744.699c-.192.273-.288.602-.288.987 0 .213.04.385.121.516.081.132.238.198.47.198.294 0 .558-.076.79-.228.223-.152.446-.314.669-.486.222-.182.46-.35.713-.501.253-.152.552-.228.896-.228.466 0 .891.091 1.276.273.384.172.719.41 1.002.714.273.294.486.643.638 1.048.152.395.228.82.228 1.275 0 .496-.087.962-.259 1.397a3.97 3.97 0 0 1-.729 1.154 3.582 3.582 0 0 1-1.108.775 3.62 3.62 0 0 1-1.412.273c-.314 0-.587-.045-.82-.136a3.04 3.04 0 0 1-.653-.334 4.514 4.514 0 0 1-.516-.44 6.364 6.364 0 0 0-.486-.441 2.63 2.63 0 0 0-.502-.35 1.339 1.339 0 0 0-.607-.136.935.935 0 0 0-.35.06c-.11.03-.166.132-.166.304 0 .284.076.547.228.79.141.243.334.466.577.668.243.202.521.38.835.531.303.152.617.279.941.38.314.101.623.182.927.243.303.05.567.076.79.076.647 0 1.26-.121 1.837-.364a4.868 4.868 0 0 0 1.503-1.018 4.87 4.87 0 0 0 1.017-1.503c.243-.577.365-1.19.365-1.837ZM.023 53.092c-.048-.238-.02-.403.076-.466.082-.054.443-.084.802-.067.642.03.653.036.69.416.024.255-.016.389-.119.395-.086.005-.43.027-.766.05-.598.04-.61.033-.683-.328Zm73.077 0c-.047-.238-.02-.403.076-.466.082-.054.444-.084.802-.067.642.03.653.036.69.416.025.255-.016.389-.119.395-.085.005-.43.027-.765.05-.599.04-.612.033-.684-.328Z"/><defs><clipPath id="a"><path fill="#fff" d="M20.495 0h33.81v44.368h-33.81z"/></clipPath></defs></svg>