<svg xmlns="http://www.w3.org/2000/svg" width="500.232" height="373.507" fill="none" viewBox="0 0 500.232 373.507"><g clip-path="url(#a)" fill="#fff"><path d="M231.841 7.023c-25.759 26.819-34.483 38.525-38.738 50.657-4.049 11.499-4.049 30.227 0 38.104 5.536 10.638 11.492 31.928 19.156 68.538 1.914 9.151 4.255 17.028 5.536 17.662 2.548 1.707 2.548 5.322 0 5.322-2.768 0-33.842-29.374-36.824-34.903-2.768-4.896-17.668-34.056-17.668-34.483 0-.213-4.255-1.067-9.578-1.707-5.316-.847-8.511-.847-7.237.213 1.281.854 6.39 9.791 11.705 19.582 12.139 22.991 28.1 42.153 45.554 54.492 7.657 5.536 13.833 10.645 13.833 11.705 0 4.682 19.576 22.777 27.239 25.118 19.796 5.963 26.392 2.555 62.789-33.415 21.497-21.29 42.573-36.397 51.084-36.397 5.109 0 4.469-3.622-1.067-4.902-10.425-2.761-53.632 22.564-77.469 45.768-16.608 15.961-27.88 22.984-36.824 22.984-2.341 0-4.896-1.067-5.536-2.128-2.128-3.402 8.937-25.325 17.668-34.903 13.62-15.114 21.71-25.332 21.71-27.246 0-1.067 2.768-5.963 5.956-10.858 9.364-13.833 12.139-22.564 11.919-37.671-.213-19.162-4.042-34.269-14.047-54.279C268.445 28.947 246.734 0 240.351 0c-1.067 0-4.896 3.195-8.511 7.023m9.364 24.265c0 5.109.847 9.151 1.914 9.151 4.682 0-3.402 26.826-14.047 47.469-6.603 12.346-7.023 14.473-3.835 13.833 4.682-.847 17.241-19.156 25.545-37.457 3.615-7.67 7.237-12.986 8.937-12.773 6.603 1.487 17.875 51.084 15.114 66.831-.854 4.689-6.39 18.735-12.559 31.081-10.005 20.856-11.492 22.777-19.369 25.965-4.682 1.914-9.364 2.981-10.218 2.341-1.067-.427-2.768-5.109-4.042-10.005a6170 6170 0 0 1-13.193-54.492c-4.896-21.277-5.536-52.358-.854-60.868 1.487-3.408 2.981-7.03 2.981-8.09s2.761-5.963 6.17-10.858c3.195-4.896 7.664-11.705 9.791-15.107l3.828-6.39 1.921 5.322c1.274 2.768 2.128 9.151 1.914 14.047"/><path d="M136.91 171.346c.427 8.511 3.195 13.62 15.114 26.392 6.81 7.023 12.559 12.986 13.199 12.986.847 0 11.272 7.023 34.483 23.197 12.339 8.731 13.193 9.791 14.894 19.369.854 4.049 3.195 9.791 5.322 12.559 2.334 2.768 4.042 5.963 4.042 7.023 0 1.914-11.072-5.109-17.028-10.852-8.511-8.304-51.931-33.209-65.344-37.251-4.255-1.281-4.896-.854-4.896 3.828 0 7.023 5.322 11.712 23.838 21.29 8.304 4.255 20.436 11.492 27.033 16.388 6.603 4.682 15.327 10.645 19.369 13.193 4.042 2.768 8.517 7.03 9.791 9.791 1.487 2.555 2.981 3.835 3.835 2.768 1.487-2.555 9.785-.847 9.785 1.921 0 3.828 11.072 1.701 19.796-3.622 4.896-3.195 14.26-10.645 20.863-16.608 6.596-5.956 15.741-13.193 20.643-15.961 4.896-2.975 11.919-8.084 15.541-11.279 3.615-3.402 7.23-5.536 8.084-5.109.854.64 3.622-3.615 5.963-9.578 5.956-13.62 2.334-14.047-12.773-1.067-12.773 10.858-35.116 22.991-38.525 21.076-1.281-.854-5.536-3.835-9.364-6.603-8.09-6.17-11.705-4.676-5.109 2.348 4.255 4.682 4.255 4.896.427 15.32-1.921 5.749-5.109 13.199-6.81 16.394l-3.201 5.956-2.334-4.896c-1.281-2.555-3.402-10.432-4.896-17.455-3.622-19.156-7.237-24.691-21.71-33.842a720 720 0 0 1-33.415-23.411c-11.072-8.304-24.265-17.875-29.374-21.283-4.896-3.408-10.852-8.731-13.193-11.712-3.622-4.896-4.049-5.109-4.049-1.274"/></g><path fill="#fff" d="M42.253 342.012q0-6.99 2.835-12.966a33.4 33.4 0 0 1 7.604-10.331 34 34 0 0 1 11.038-6.89 34.7 34.7 0 0 1 13.066-2.535q3.242 0 6.783.914 3.648.914 6.583 2.735 3.041 1.834 4.969 4.662 1.921 2.735 1.921 6.583 0 2.134-.814 3.442-.8 1.321-3.135 1.321-2.935 0-5.269-1.521a93 93 0 0 1-4.455-3.242 40 40 0 0 0-4.762-3.342 11.34 11.34 0 0 0-5.976-1.521q-4.649 0-8.504 1.821-3.855 1.721-6.683 4.762a20.7 20.7 0 0 0-4.255 6.99 23.3 23.3 0 0 0-1.521 8.504q0 4.962 1.721 9.318 1.828 4.355 4.869 7.697 3.135 3.242 7.39 5.169a24 24 0 0 0 9.418 1.821q3.135 0 5.469-.907 2.428-.92 4.355-2.228 1.921-1.421 3.442-2.935 1.621-1.634 3.242-2.941 1.621-1.414 3.342-2.334a8.94 8.94 0 0 1 4.049-.907 6.7 6.7 0 0 1 2.334.4q1.114.307 1.114 2.028 0 2.841-1.521 5.269a16.7 16.7 0 0 1-3.848 4.455 26.7 26.7 0 0 1-5.569 3.542 42 42 0 0 1-6.283 2.535 53 53 0 0 1-6.176 1.621q-3.041.5-5.269.507-6.476 0-12.252-2.428a32.7 32.7 0 0 1-10.025-6.79 32.7 32.7 0 0 1-6.793-10.026 31.35 31.35 0 0 1-2.428-12.252Zm80.337 29.367a13.3 13.3 0 0 1-1.614-1.414 5.3 5.3 0 0 1-1.121-1.928v-8.104q0-12.046.407-23.898.5-11.852.307-24.011.7-1.507 1.414-1.821a4.7 4.7 0 0 1 1.828-.3q2.121 0 3.442 1.114t2.028 2.835q.8 1.721 1.114 3.948.4 2.228.4 4.355.1 2.128 0 4.055v3.135q0 5.369-.4 10.638t-.407 10.632q0 7.297 4.049 11.038 4.149 3.748 11.445 3.748 2.641 0 5.169-.4 2.628-.407 5.269-.407 2.021 0 2.628.807.6.714.607 2.635a5.34 5.34 0 0 1-.707 2.935 4.47 4.47 0 0 1-1.721 1.621 9.3 9.3 0 0 1-2.535.714q-1.414.2-2.935.2a67 67 0 0 1-7.19-.4l-7.09-.814q-3.548-.4-7.09-.707a43.4 43.4 0 0 0-7.29-.2Zm49.523-1.621v-.507l.107-.507q1.514-3.135 3.035-8.711 1.621-5.563 3.448-12.052 1.921-6.476 4.049-13.059 2.228-6.683 4.756-12.052 2.641-5.469 5.669-8.917 3.048-3.442 6.69-3.442 1.721 0 3.041.4a4 4 0 0 1 2.328 1.727q1.621 2.428 2.735 5.369 1.107 2.835 2.028 5.869l1.821 6.083q.907 2.935 2.228 5.669.507 1.114 1.621 3.442l2.535 5.069q1.414 2.835 2.935 6.069 1.521 3.141 2.935 5.976 1.421 2.841 2.535 5.169 1.107 2.234 1.621 3.335.6 1.014.607 2.034.1.907.1 2.021 0 2.034-.907 2.735-.92.714-2.935.714a6 6 0 0 1-3.548-1.014 17.3 17.3 0 0 1-2.735-2.735 360 360 0 0 0-2.835-3.448 18 18 0 0 0-3.648-3.442 18.7 18.7 0 0 0-5.469-2.635q-3.141-1.114-8.004-1.114-4.055 0-6.883 1.114a15.3 15.3 0 0 0-4.662 2.635q-1.928 1.621-3.335 3.448-1.327 1.821-2.535 3.442a16.7 16.7 0 0 1-2.535 2.735 5.14 5.14 0 0 1-3.242 1.014 6 6 0 0 1-2.428-.507q-1.121-.5-1.121-1.928m19.649-27.746q0 3.842 1.721 6.576 1.721 2.641 5.876 2.635 2.428 0 4.869-.907 2.421-1.02 3.035-3.848.1-.507.1-1.928v-1.821q0-2.134-.507-4.662a22 22 0 0 0-1.521-4.756 10.7 10.7 0 0 0-2.635-3.648 5.07 5.07 0 0 0-3.748-1.521 4.4 4.4 0 0 0-3.335 1.521q-1.321 1.527-2.234 3.748-.807 2.121-1.214 4.555a24 24 0 0 0-.4 4.055Zm53.298 19.442q0-1.421.507-2.128.6-.8 2.121-.807 2.434 0 4.455 1.114 2.028 1 4.055 2.328 2.121 1.321 4.255 2.428 2.221 1.02 4.962 1.014 2.128 0 4.149-.507 2.134-.5 3.748-1.621a10 10 0 0 0 2.635-2.935 8 8 0 0 0 1.014-4.155q0-4.155-2.434-6.376a18 18 0 0 0-6.069-3.748 53.4 53.4 0 0 0-7.804-2.635 53.4 53.4 0 0 1-7.804-2.935 19.3 19.3 0 0 1-5.969-4.662q-2.434-2.935-2.434-8.004 0-4.749 1.928-8.304a19.3 19.3 0 0 1 5.269-6.069 23.3 23.3 0 0 1 7.29-3.648 30 30 0 0 1 13.973-.714q3.041.4 5.569 1.621 2.535 1.121 4.155 3.141 1.721 2.028 1.721 5.269 0 1.414-.707 2.935-.6 1.521-2.334 1.521a8.7 8.7 0 0 1-4.049-1.014q-1.821-1.114-3.748-2.428a26.7 26.7 0 0 0-3.848-2.334 8.34 8.34 0 0 0-4.249-1.114q-4.255 0-7.297 2.434-2.935 2.334-2.935 6.683 0 4.455 2.428 7.09 2.434 2.528 5.976 4.255 3.655 1.614 7.804 2.935a46.7 46.7 0 0 1 7.797 3.135q3.648 1.828 6.069 4.762 2.441 2.941 2.434 7.904 0 4.455-1.921 7.804a18 18 0 0 1-5.069 5.463q-3.135 2.234-7.083 3.342-3.955 1.014-7.904 1.014-2.735 0-6.276-.507a28.7 28.7 0 0 1-6.79-1.821 17.3 17.3 0 0 1-5.362-3.748q-2.228-2.334-2.228-5.976m60.035 0q0-1.421.507-2.128.6-.8 2.128-.807 2.421 0 4.455 1.114 2.021 1 4.049 2.328 2.128 1.321 4.255 2.428 2.221 1.02 4.962 1.014 2.128 0 4.149-.507 2.134-.5 3.748-1.621a10 10 0 0 0 2.635-2.935 8 8 0 0 0 1.014-4.155q0-4.155-2.434-6.376a18 18 0 0 0-6.069-3.748 53.4 53.4 0 0 0-7.804-2.635 53.4 53.4 0 0 1-7.797-2.935 19.3 19.3 0 0 1-5.976-4.662q-2.428-2.935-2.428-8.004 0-4.749 1.921-8.304 2.028-3.642 5.269-6.069a23.3 23.3 0 0 1 7.29-3.648 30 30 0 0 1 13.98-.714q3.035.4 5.569 1.621 2.535 1.121 4.149 3.141 1.721 2.028 1.727 5.269 0 1.414-.714 2.935-.6 1.521-2.334 1.521-2.121 0-4.042-1.014-1.828-1.114-3.748-2.428a26.7 26.7 0 0 0-3.848-2.334 8.34 8.34 0 0 0-4.255-1.114q-4.255 0-7.29 2.434-2.935 2.334-2.935 6.683-.007 4.455 2.428 7.09 2.428 2.528 5.976 4.255 3.642 1.614 7.797 2.935a46.7 46.7 0 0 1 7.797 3.135q3.642 1.828 6.076 4.762c2.434 2.935 2.434 4.595 2.434 7.904q0 4.455-1.928 7.804a18 18 0 0 1-5.069 5.463q-3.135 2.234-7.083 3.342-3.955 1.014-7.897 1.014-2.741 0-6.283-.507a28.7 28.7 0 0 1-6.783-1.821 17.3 17.3 0 0 1-5.369-3.748q-2.228-2.334-2.228-5.976m60.141 3.848q0-.507-.107-1.621v-6.785q0-5.469.4-10.838a547 547 0 0 0 .914-10.938q.507-5.469.814-10.838.3-5.469 0-10.938.5-1.721 1.521-2.228a5.07 5.07 0 0 1 2.628-.607q2.535 0 3.648 1.621 1.214 1.527 1.521 3.748.4 2.121.3 4.455t-.1 3.848q0 6.683-.4 13.166a207 207 0 0 0-.407 13.166q0 4.462.3 8.811.4 4.355.407 8.811 0 1.521-1.214 2.835a3.67 3.67 0 0 1-2.635 1.221q-3.335 0-5.269-1.828-1.821-1.821-2.328-5.062Zm90.429-23.291a30 30 0 0 0-2.835-12.966 33.4 33.4 0 0 0-7.604-10.331 34 34 0 0 0-11.032-6.89 34.7 34.7 0 0 0-13.073-2.535q-3.235 0-6.783.914a22.7 22.7 0 0 0-6.583 2.735 15.6 15.6 0 0 0-4.962 4.662q-1.921 2.735-1.921 6.583 0 2.134.807 3.442.814 1.321 3.135 1.321 2.948 0 5.269-1.521 2.228-1.521 4.462-3.242 2.221-1.828 4.756-3.342 2.535-1.521 5.976-1.521 4.662 0 8.511 1.821 3.848 1.721 6.683 4.762 2.735 2.935 4.255 6.99 1.521 3.955 1.521 8.504 0 4.962-1.727 9.318a26.7 26.7 0 0 1-4.862 7.697 24 24 0 0 1-7.39 5.169 24 24 0 0 1-9.418 1.821q-3.135 0-5.469-.907a20 20 0 0 1-4.355-2.228 30 30 0 0 1-3.442-2.935 40 40 0 0 0-3.242-2.941 17.3 17.3 0 0 0-3.348-2.334 8.94 8.94 0 0 0-4.049-.907 6 6 0 0 0-2.334.4q-1.101.3-1.107 2.028 0 2.841 1.521 5.269 1.414 2.434 3.848 4.455 2.428 2.028 5.569 3.542 3.035 1.521 6.276 2.535 3.141 1.007 6.183 1.621 3.035.5 5.269.507 6.476 0 12.252-2.428a32.7 32.7 0 0 0 10.025-6.79 32.7 32.7 0 0 0 6.783-10.025q2.434-5.776 2.434-12.252M.153 354.111c-.32-1.587-.133-2.688.507-3.108.547-.36 2.955-.56 5.349-.447 4.282.2 4.355.24 4.602 2.775q.24 2.561-.794 2.635c-.574.033-2.868.18-5.109.333-3.989.267-4.069.22-4.555-2.188m487.406 0c-.313-1.587-.133-2.688.507-3.108.547-.36 2.961-.56 5.349-.447 4.282.2 4.355.24 4.602 2.775q.247 2.561-.794 2.635c-.567.033-2.868.18-5.102.333-3.995.267-4.082.22-4.562-2.188"/><defs><clipPath id="a"><path fill="#fff" d="M136.697 0h225.505v295.924H136.697z"/></clipPath></defs></svg>