<svg xmlns="http://www.w3.org/2000/svg" width="336" height="360" fill="none" viewBox="0 0 336 360">
  <g clip-path="url(#a)">
    <path fill="#88C0C2" d="m298.67 38.146-12.422-12.38-5.959 9.36H179.593c-6.506 0-12.434 5.277-13.238 11.785l-25.714 207.645-11.924 18.734 11.563 11.541c1.867 2.171 4.67 3.517 7.958 3.517h111.595c6.505 0 12.433-5.276 13.237-11.784l28.44-229.65c.416-3.483-.707-6.611-2.84-8.768Z"/>
    <path fill="#fff" d="M248.007 276.532H136.409c-6.506 0-11.128-5.276-10.309-11.784l28.44-229.65c.805-6.508 6.732-11.784 13.238-11.784h111.595c6.506 0 11.127 5.276 10.308 11.784l-28.439 229.65c-.802 6.508-6.73 11.784-13.235 11.784Z"/>
    <path fill="#262424" d="M248.007 277.392H136.409c-3.379 0-6.406-1.318-8.519-3.724-2.113-2.406-3.078-5.626-2.655-9.04l28.44-229.65c.859-6.912 7.179-12.538 14.091-12.538h111.595c3.379 0 6.406 1.318 8.519 3.724 2.114 2.406 3.079 5.626 2.655 9.04l-28.44 229.65c-.854 6.915-7.176 12.538-14.088 12.538ZM167.769 24.173c-6.076 0-11.634 4.947-12.387 11.031l-28.44 229.65c-.361 2.916.432 5.646 2.236 7.688 1.804 2.043 4.35 3.128 7.231 3.128h111.595c6.076 0 11.634-4.947 12.387-11.031l28.44-229.65c.361-2.916-.432-5.648-2.236-7.688-1.804-2.04-4.35-3.128-7.231-3.128H167.766h.003Z"/>
    <path fill="#262424" d="M248.571 268.366h-110.53a3.723 3.723 0 0 1-2.835-1.241 3.754 3.754 0 0 1-.888-3.001l28.309-228.585a4.742 4.742 0 0 1 4.581-4.065h30.926a2.709 2.709 0 0 1 2.067.909 2.742 2.742 0 0 1 .65 2.188 1.35 1.35 0 0 0 .286 1.063 1.307 1.307 0 0 0 .997.424h39.516a1.962 1.962 0 0 0 1.864-1.664 3.34 3.34 0 0 1 1.102-2.069 3.304 3.304 0 0 1 2.182-.859h30.926a3.722 3.722 0 0 1 2.834 1.24 3.757 3.757 0 0 1 .888 3.002l-28.308 228.585a4.75 4.75 0 0 1-4.567 4.073Zm-81.369-235.46a3.273 3.273 0 0 0-3.149 2.81l-28.309 228.585a2.353 2.353 0 0 0 .539 1.879 2.28 2.28 0 0 0 1.761.756h110.53a3.273 3.273 0 0 0 3.149-2.81l28.309-228.584a2.354 2.354 0 0 0-.539-1.879 2.284 2.284 0 0 0-1.761-.756h-30.925a1.87 1.87 0 0 0-1.229.49 1.899 1.899 0 0 0-.635 1.171 3.367 3.367 0 0 1-3.288 2.922H202.14a2.728 2.728 0 0 1-2.074-.914 2.763 2.763 0 0 1-.644-2.182 1.334 1.334 0 0 0-.301-1.066 1.303 1.303 0 0 0-.996-.424h-30.926l.003.003Z"/>
    <path fill="#DE9244" d="m280.742 35.631-3.056 24.666H160.284l3.055-24.666a4.012 4.012 0 0 1 3.863-3.437h30.926a1.98 1.98 0 0 1 2.004 2.291 2.054 2.054 0 0 0 .47 1.622 2.02 2.02 0 0 0 1.537.67h39.516a2.671 2.671 0 0 0 2.577-2.292 2.633 2.633 0 0 1 .86-1.621 2.592 2.592 0 0 1 1.703-.67h30.926a2.97 2.97 0 0 1 3.021 3.437Z"/>
    <path fill="#DE9244" d="M277.686 61.156H160.284a.858.858 0 0 1-.859-.965l3.056-24.666a4.89 4.89 0 0 1 4.713-4.19h30.925a2.861 2.861 0 0 1 2.177.953 2.887 2.887 0 0 1 .684 2.292 1.207 1.207 0 0 0 .263.95 1.162 1.162 0 0 0 .891.376h39.516a1.814 1.814 0 0 0 1.718-1.538 3.524 3.524 0 0 1 3.436-3.045h30.925a3.857 3.857 0 0 1 2.944 1.297 3.905 3.905 0 0 1 .922 3.114l-3.055 24.672a.863.863 0 0 1-.854.75Zm-116.431-1.718h115.684l2.961-23.913a2.214 2.214 0 0 0-.504-1.764 2.165 2.165 0 0 0-1.652-.708h-30.926a1.716 1.716 0 0 0-1.145.456c-.32.278-.528.662-.587 1.082a3.512 3.512 0 0 1-3.436 3.045h-39.516a2.867 2.867 0 0 1-2.182-.96 2.905 2.905 0 0 1-.679-2.29 1.193 1.193 0 0 0-.266-.952 1.157 1.157 0 0 0-.888-.375h-30.925a3.126 3.126 0 0 0-3.01 2.684l-2.929 23.695Zm93.306 187.59-2.127 17.187a4.012 4.012 0 0 1-3.863 3.437h-110.53a2.97 2.97 0 0 1-3.01-3.437l2.128-17.187h117.402Z"/>
    <path fill="#DE9244" d="M248.571 268.512h-110.53a3.865 3.865 0 0 1-2.941-1.286 3.905 3.905 0 0 1-.922-3.114l2.128-17.187a.856.856 0 0 1 .859-.753h117.402a.853.853 0 0 1 .648.288.87.87 0 0 1 .211.677l-2.128 17.187a4.892 4.892 0 0 1-4.727 4.188Zm-110.653-20.624-2.036 16.433a2.197 2.197 0 0 0 .504 1.765 2.162 2.162 0 0 0 1.652.707h110.53a3.128 3.128 0 0 0 3.009-2.684l2.005-16.221H137.898h.02Z"/>
    <path fill="#88C0C2" d="M239.551 32.194h-34.17a1.979 1.979 0 0 1-1.951-1.432 1.966 1.966 0 0 1-.053-.86 2.668 2.668 0 0 1 2.577-2.292h34.17a1.98 1.98 0 0 1 2.004 2.292 2.668 2.668 0 0 1-2.577 2.292Z"/>
    <path fill="#DE9244" d="m186.276 204.096 1.18 2.131c.082.14.215.243.372.287l2.382.716c.487.146.61.756.235 1.171l-1.83 2.034a.84.84 0 0 0-.214.481l-.235 2.578a.861.861 0 0 1-1.088.725l-2.314-.874a.748.748 0 0 0-.507 0l-2.525.883a.654.654 0 0 1-.877-.375.653.653 0 0 1-.031-.35l.401-2.578a.678.678 0 0 0-.098-.481l-1.328-2.034a.816.816 0 0 1 .527-1.172l2.56-.716a.88.88 0 0 0 .446-.286l1.718-2.131c.344-.447.985-.447 1.226-.009Zm15.517 0 1.18 2.131a.63.63 0 0 0 .372.287l2.382.716c.487.146.61.756.235 1.171l-1.829 2.034a.835.835 0 0 0-.215.481l-.235 2.578a.861.861 0 0 1-1.088.725l-2.314-.874a.748.748 0 0 0-.507 0l-2.525.883a.654.654 0 0 1-.877-.375.653.653 0 0 1-.031-.35l.401-2.578a.683.683 0 0 0-.097-.481l-1.329-2.034a.816.816 0 0 1 .527-1.172l2.56-.716a.88.88 0 0 0 .446-.286l1.718-2.131c.344-.447.986-.447 1.226-.009Zm15.517 0 1.18 2.131a.63.63 0 0 0 .372.287l2.383.716c.486.146.61.756.234 1.171l-1.829 2.034a.835.835 0 0 0-.215.481l-.235 2.578a.861.861 0 0 1-1.088.725l-2.314-.874a.748.748 0 0 0-.507 0l-2.525.883a.654.654 0 0 1-.877-.375.663.663 0 0 1-.031-.35l.401-2.578a.683.683 0 0 0-.097-.481l-1.329-2.034a.814.814 0 0 1 .544-1.172l2.56-.716a.88.88 0 0 0 .447-.286l1.718-2.131c.326-.447.968-.447 1.208-.009Z"/>
    <path fill="#88C0C2" d="M239.296 189.628h-72.652c-3.559 0-6.085-2.885-5.644-6.445l9-72.678c.441-3.56 3.682-6.445 7.242-6.445h72.652c3.559 0 6.085 2.885 5.644 6.445l-9 72.678c-.441 3.546-3.683 6.445-7.242 6.445Zm.467-110.156h-46.305a2.477 2.477 0 0 1-2.509-2.865 3.34 3.34 0 0 1 3.219-2.864h46.305a2.47 2.47 0 0 1 1.925.844 2.472 2.472 0 0 1 .583 2.02 3.336 3.336 0 0 1-3.218 2.865Zm-15.543 15.66h-19.097a2.477 2.477 0 0 1-2.508-2.865 3.336 3.336 0 0 1 3.218-2.864h19.097a2.472 2.472 0 0 1 1.925.844 2.485 2.485 0 0 1 .583 2.02 3.336 3.336 0 0 1-3.218 2.865Z"/>
    <path fill="#fff" d="M188.999 44.955h-16.513a2.375 2.375 0 0 1-1.813-.796 2.412 2.412 0 0 1-.573-1.917 2.924 2.924 0 0 1 2.864-2.538h16.508a2.381 2.381 0 0 1 1.812.797 2.405 2.405 0 0 1 .573 1.919 2.922 2.922 0 0 1-2.858 2.535Zm-16.035-3.818a1.511 1.511 0 0 0-1.432 1.28.998.998 0 0 0 .223.794.967.967 0 0 0 .739.312h16.514a1.511 1.511 0 0 0 1.432-1.28.999.999 0 0 0-.224-.794.972.972 0 0 0-.739-.312h-16.519.006Zm15.064 11.649h-16.51a2.374 2.374 0 0 1-1.813-.796 2.403 2.403 0 0 1-.573-1.92 2.926 2.926 0 0 1 2.864-2.537h16.513a2.375 2.375 0 0 1 1.813.796 2.413 2.413 0 0 1 .573 1.916 2.927 2.927 0 0 1-2.867 2.541Zm-16.035-3.818a1.51 1.51 0 0 0-1.432 1.28.998.998 0 0 0 .224.794.963.963 0 0 0 .738.312h16.514a1.511 1.511 0 0 0 1.432-1.28.982.982 0 0 0-.224-.794.965.965 0 0 0-.738-.312H171.99h.003Zm97.226 1.908h-12.026a.719.719 0 0 1-.716-.716V38.687a.717.717 0 0 1 .716-.716h14.89a.713.713 0 0 1 .564.275.721.721 0 0 1 .132.613l-2.864 11.472a.714.714 0 0 1-.696.545Zm-11.31-1.432h10.738l2.496-10.04h-13.257l.023 10.04Z"/>
    <path fill="#fff" d="M257.17 39.404h-3.485a.715.715 0 0 1-.506-1.223.715.715 0 0 1 .506-.21h3.485a.715.715 0 0 1 .506 1.223.715.715 0 0 1-.506.21Zm1.798 18.137a2.372 2.372 0 0 1-1.804-.793 2.4 2.4 0 0 1-.573-1.91 2.91 2.91 0 0 1 2.844-2.527 2.364 2.364 0 0 1 2.376 2.704 2.91 2.91 0 0 1-2.843 2.526Zm.469-3.795a1.495 1.495 0 0 0-1.431 1.269.976.976 0 0 0 .22.785.963.963 0 0 0 .73.31 1.495 1.495 0 0 0 1.432-1.27.976.976 0 0 0-.22-.785.957.957 0 0 0-.731-.306v-.003Zm6.332 3.795a2.372 2.372 0 0 1-1.804-.793 2.4 2.4 0 0 1-.573-1.91 2.91 2.91 0 0 1 2.843-2.527 2.369 2.369 0 0 1 1.804.793 2.385 2.385 0 0 1 .573 1.91 2.912 2.912 0 0 1-2.843 2.526Zm.469-3.795a1.5 1.5 0 0 0-1.431 1.269.976.976 0 0 0 .22.785.963.963 0 0 0 .73.31 1.497 1.497 0 0 0 1.432-1.27.992.992 0 0 0-.221-.785.944.944 0 0 0-.73-.306v-.003Z"/>
    <path fill="#88C0C2" d="M219.615 236.716h-44.956c-3.794 0-6.492-3.079-6.013-6.874.469-3.796 3.928-6.875 7.731-6.875h44.956c3.794 0 6.492 3.079 6.014 6.875-.479 3.795-3.943 6.874-7.732 6.874Z"/>
    <path fill="#DE9244" d="M246.392 288.955s-15.432 4.486-25.056-18.762c-11.74-28.358 17.43-36.857 27.203-8.88 8.304 23.775-2.147 27.642-2.147 27.642Z"/>
    <path fill="#262424" d="M243.259 290.164a18.268 18.268 0 0 1-6.073-1.062c-4.782-1.688-11.552-6.279-16.646-18.582-3.865-9.341-3.722-17.657.387-22.813 2.772-3.474 6.981-5.021 11.548-4.242 7.159 1.217 13.459 7.783 16.872 17.565 8.484 24.293-2.202 28.561-2.66 28.73l-.058.02a12.974 12.974 0 0 1-3.37.384Zm-13.054-45.175a9.95 9.95 0 0 0-7.947 3.792c-3.722 4.652-3.762 12.338-.143 21.083 3.817 9.221 9.186 15.302 15.526 17.582 4.513 1.621 8.069.793 8.461.693.287-.126 2.412-1.146 3.723-4.583 1.311-3.437 2.03-10.077-2.119-21.965-3.207-9.18-9.014-15.325-15.537-16.436a11.754 11.754 0 0 0-1.964-.166Z"/>
    <path fill="#fff" d="M258.083 317.812c-7.952-31.658-29.015-61.941-29.015-61.941s19.185 31.509 25.198 63.591l3.817-1.65Z"/>
    <path fill="#262424" d="M254.266 320.321a.86.86 0 0 1-.845-.701c-5.913-31.552-24.897-62.99-25.086-63.305a.858.858 0 0 1 1.431-.937c.212.304 21.244 30.779 29.145 62.222a.857.857 0 0 1-.493 1l-3.817 1.65a.857.857 0 0 1-.335.071Zm-11.654-39.638c4.773 10.885 9.664 24.182 12.293 37.567l2.162-.933c-3.382-13.145-9.037-26.081-14.455-36.634Z"/>
    <path fill="#DE9244" d="M290.36 294.988s15.28 2.363 32.644-14.577c30.925-30.166-8.971-37.811-27.776-7.6-12.619 20.252-4.868 22.177-4.868 22.177Z"/>
    <path fill="#262424" d="M292.413 295.962c-.73.01-1.46-.031-2.185-.123l-.074-.014c-.172-.043-1.695-.473-2.517-2.498-1.624-4.01.684-11.057 6.855-20.968 4.158-6.677 9.667-12.057 15.935-15.557 5.441-3.039 11.251-4.474 15.944-3.936 4.321.493 7.308 2.55 8.416 5.789 1.896 5.546-2.073 13.492-11.168 22.372-9.094 8.88-17.656 12.44-23.225 13.861a32.535 32.535 0 0 1-7.981 1.074Zm-1.864-1.816c.496.06 4.126.438 9.515-.954 5.341-1.378 13.553-4.821 22.336-13.397 8.487-8.278 12.393-15.774 10.76-20.595-.881-2.578-3.361-4.223-6.986-4.638-8.619-.982-21.763 5.119-30.224 18.694-7.62 12.237-7.503 17.367-6.752 19.335.438 1.16 1.177 1.492 1.351 1.555Z"/>
    <path fill="#fff" d="M271.353 318.139c15.978-25.397 44.721-49.693 44.721-49.693s-27.174 25.279-41.323 51.016l-3.398-1.323Z"/>
    <path fill="#262424" d="M274.749 320.321a.859.859 0 0 1-.313-.057l-3.399-1.323a.865.865 0 0 1-.54-.904.859.859 0 0 1 .125-.354c15.867-25.207 44.607-49.65 44.894-49.893a.862.862 0 1 1 1.145 1.286c-.272.252-27.237 25.494-41.157 50.801a.856.856 0 0 1-.755.444Zm-2.114-2.603 1.718.673c5-8.955 11.572-17.866 17.986-25.654-6.895 7.522-14.063 16.19-19.701 24.981h-.003Z"/>
    <path fill="#DE9244" d="M271.917 222.451s-10.882 10.868-13.837 39.476c-2.955 28.607 8.07 30.214 8.07 30.214s13.237 2.08 19.042-26.811c2.863-14.208 5.873-24.904 8.183-32.06a8.272 8.272 0 0 0-7.88-10.813h-13.578v-.006Z"/>
    <path fill="#262424" d="M266.734 293.029a5.075 5.075 0 0 1-.719-.043c-.473-.069-11.795-2.057-8.788-31.148 2.955-28.579 13.63-39.53 14.082-39.994a.86.86 0 0 1 .608-.252h13.578a9.116 9.116 0 0 1 4.142.992 9.123 9.123 0 0 1 4.879 6.696 9.13 9.13 0 0 1-.325 4.248c-2.098 6.497-5.217 17.316-8.16 31.965-2.452 12.191-6.495 20.521-12.027 24.754-3.19 2.467-5.996 2.782-7.27 2.782Zm5.561-69.715c-1.575 1.781-10.713 13.107-13.359 38.701-2.84 27.468 7.234 29.258 7.337 29.272.103.015 3.118.407 6.838-2.512 3.516-2.758 8.321-9.097 11.239-23.62 2.958-14.729 6.096-25.614 8.209-32.154a7.413 7.413 0 0 0-7.061-9.69h-13.201l-.002.003Z"/>
    <path fill="#fff" d="M264.718 318.551c4.51-61.013 21.836-92.373 21.836-92.373h-2.986s-16.846 31.134-23.1 92.067l4.25.306Z"/>
    <path fill="#262424" d="M264.718 319.41h-.063l-4.25-.309a.849.849 0 0 1-.596-.305.862.862 0 0 1-.164-.3.87.87 0 0 1-.033-.34c3.239-31.549 9.364-54.969 13.931-69.059 4.96-15.3 9.223-23.248 9.266-23.329a.851.851 0 0 1 .756-.449h2.987a.855.855 0 0 1 .857.847.86.86 0 0 1-.107.427c-.043.078-4.364 7.986-9.18 23.217-4.444 14.059-10.229 37.407-12.551 68.804a.859.859 0 0 1-.853.796Zm-3.305-1.962 2.512.184c2.376-31.169 8.143-54.376 12.582-68.407 3.759-11.881 7.233-19.366 8.639-22.191h-1.057c-.951 1.868-4.676 9.519-8.928 22.653-4.493 13.869-10.506 36.842-13.745 67.761h-.003Z"/>
    <path fill="#DE9244" d="M271.917 222.451h18.546a8.28 8.28 0 0 1 8.173 6.958c2.11 12.956 4.552 39.404-10.968 38.358-13.008-.885-6.583-45.316-15.751-45.316Z"/>
    <path fill="#262424" d="M288.545 268.652c-.308 0-.62-.01-.937-.031-7.78-.524-9.111-13.79-10.4-26.617-.922-9.186-1.875-18.688-5.291-18.688a.86.86 0 1 1 0-1.718h18.546a9.103 9.103 0 0 1 9.017 7.671c1.678 10.312 3.491 28.69-3.244 36.092-1.987 2.183-4.57 3.291-7.691 3.291Zm-13.527-45.336c2.362 3.191 3.089 10.444 3.9 18.516 1.16 11.553 2.474 24.635 8.805 25.076 3.032.206 5.403-.679 7.242-2.701 6.251-6.875 4.45-24.666 2.82-34.66a7.393 7.393 0 0 0-7.322-6.228h-15.445v-.003Z"/>
    <path fill="#fff" d="M284.799 222.451s5.727 18.141 5.249 38.098c0 0 3.628-17.665-1.432-38.098h-3.817Z"/>
    <path fill="#262424" d="M290.048 261.408h-.097a.86.86 0 0 1-.762-.874c.47-19.587-5.154-37.639-5.208-37.81a.856.856 0 0 1 .818-1.118h3.817a.86.86 0 0 1 .834.654c5.048 20.386 1.474 38.297 1.431 38.478a.86.86 0 0 1-.833.67Zm-4.1-38.097a140.506 140.506 0 0 1 4.461 24.119 95.56 95.56 0 0 0-2.468-24.119h-2.005.012Z"/>
    <path fill="#fff" d="M293.733 314.306s-.59 2.865-1.577 7.305c-2.082 9.358-5.931 25.78-9.782 37.524h-38.797c-.496-1.51-.991-3.096-1.481-4.735-1.145-3.787-2.25-7.857-3.298-11.896-3.706-14.274-6.586-28.198-6.586-28.198h61.521Z"/>
    <path fill="#262424" d="M282.374 359.994h-38.797a.861.861 0 0 1-.816-.59 173.746 173.746 0 0 1-1.486-4.758 335.79 335.79 0 0 1-3.308-11.927c-3.668-14.131-6.56-28.101-6.586-28.241a.866.866 0 0 1 .175-.717.86.86 0 0 1 .667-.317h61.516a.854.854 0 0 1 .835.655.851.851 0 0 1 .007.379c0 .029-.601 2.91-1.581 7.316-2.004 8.945-5.91 25.728-9.804 37.604a.86.86 0 0 1-.822.596Zm-38.173-1.718h37.549c3.808-11.768 7.616-28.072 9.566-36.852.63-2.844 1.103-5.047 1.358-6.259h-59.4c.736 3.486 3.27 15.248 6.354 27.124 1.145 4.363 2.239 8.356 3.29 11.865.43 1.438.859 2.821 1.28 4.122h.003Z"/>
    <path fill="#88C0C2" d="M272.879 337.099c9.481 13.256-9.341 18.905-30.782 17.301-1.146-3.787-2.251-7.857-3.299-11.896 9.561 2.24 25.502 4.01 19.285-11.154-4.195-10.238 7.594-14.93 20.904-17.044h14.741s-.59 2.865-1.578 7.305c-10.652.999-27.246 4.331-19.271 15.488Z"/>
    <path fill="#88C0C2" d="M247.947 330.442c-6.498-1.206-6.586 6.78.764 8.401 7.351 1.621 8.482-6.683-.764-8.401Z"/>
    <path fill="#fff" d="m87.306 306.999-.747 17.716 8.02 1.31 2.655-19.026h-9.928Z"/>
    <path fill="#262424" d="M94.579 326.884a.788.788 0 0 1-.137 0l-8.018-1.309a.859.859 0 0 1-.719-.885l.748-17.717a.86.86 0 0 1 .859-.822h9.927a.855.855 0 0 1 .654.293.856.856 0 0 1 .205.687l-2.654 19.025a.856.856 0 0 1-.865.728Zm-7.13-2.893 6.4 1.042 2.397-17.186h-8.118l-.679 16.144Z"/>
    <path fill="#88C0C2" d="M121.751 204.262c-1.02 4.692-20.045 106.389-20.045 106.389l-19.185-1.432.518-50.822.144-14.056.71-69.471c0-23.469 38.319-20.47 39.928 1.145.696 9.098-1.037 23.552-2.07 28.247Z"/>
    <path fill="#262424" d="M98.525 303.885a.857.857 0 0 1-.86-1.005l21.322-122.811a.86.86 0 0 1 1.529-.333.862.862 0 0 1 .164.619L99.358 303.166a.86.86 0 0 1-.833.719Z"/>
    <path fill="#262424" d="M117.169 196.468c-2.176 0-3.9-.788-5.126-2.34-3.742-4.741-1.323-15.113-1.217-15.554a.862.862 0 0 1 1.673.398c-.023.1-2.331 10.002.896 14.09.911 1.114 2.136 1.687 3.774 1.687a.858.858 0 0 1 0 1.719Z"/>
    <path fill="#fff" d="M97.657 251.723c-.386 5.984-4.384 10.599-8.93 10.312-2.292-.149-4.296-1.526-5.668-3.626l.144-14.056c1.675-2.578 4.2-4.162 6.92-3.984 4.545.283 7.92 5.368 7.534 11.354Z"/>
    <path fill="#262424" d="M100.698 307.563h-.074l-15.778-1.36a.865.865 0 0 1-.48-1.52.862.862 0 0 1 .63-.199l15.777 1.361a.864.864 0 0 1 .822.896.861.861 0 0 1-.897.822Z"/>
    <path fill="#88C0C2" d="M58.38 355.359v3.776h38.854s.126-1.971.246-5.285c.243-6.52.475-18.247-.246-30.363l-14.175-1.244s-7.258 12.206-16.728 22.558c-.982 1.074-3.582 2.842-4.673 3.833-2.093 1.91-3.279 4.271-3.279 6.725Z"/>
    <path fill="#262424" d="M78.713 345.663a.859.859 0 0 1-.705-1.349c6.755-9.739 10.51-20.463 10.546-20.569a.859.859 0 0 1 1.099-.526.865.865 0 0 1 .525 1.098c-.037.109-3.871 11.063-10.758 20.988a.85.85 0 0 1-.707.358Z"/>
    <path fill="#fff" d="M92.81 346.46c1.409 0 2.55-2.065 2.55-4.612s-1.141-4.612-2.55-4.612c-1.41 0-2.552 2.065-2.552 4.612s1.142 4.612 2.551 4.612Z"/>
    <path fill="#262424" d="M92.81 347.319c-1.913 0-3.41-2.403-3.41-5.471s1.497-5.471 3.41-5.471c1.912 0 3.41 2.403 3.41 5.471s-1.498 5.471-3.41 5.471Zm0-9.226c-.69 0-1.693 1.46-1.693 3.752s1.002 3.752 1.693 3.752c.781 0 1.692-1.638 1.692-3.752s-.908-3.75-1.692-3.75v-.002Z"/>
    <path fill="#fff" d="M58.38 355.36v3.775h38.854s.126-1.971.246-5.285H79.683s1.003-10.077-13.352-9.046c-.982 1.074-3.582 2.842-4.673 3.833-2.093 1.907-3.279 4.268-3.279 6.723Z"/>
    <path fill="#262424" d="M97.234 359.994H58.379a.856.856 0 0 1-.859-.859v-3.776c0-2.652 1.263-5.264 3.56-7.355.475-.433 1.193-.983 1.952-1.567 1.002-.768 2.136-1.636 2.663-2.212a.861.861 0 0 1 .573-.286c5.38-.387 9.346.693 11.792 3.205a9.054 9.054 0 0 1 2.485 5.838H97.48a.862.862 0 0 1 .803.552.86.86 0 0 1 .056.339c-.12 3.288-.246 5.288-.25 5.308a.859.859 0 0 1-.855.813Zm-37.996-1.718h37.185c.04-.74.103-1.963.166-3.567H79.695a.859.859 0 0 1-.86-.945c0-.029.258-3.108-2.004-5.443-2.03-2.073-5.426-2.976-10.094-2.692-.84.768-1.721 1.49-2.64 2.163-.73.572-1.431 1.088-1.84 1.472-1.934 1.762-2.999 3.921-2.999 6.087v2.916l-.02.009Z"/>
    <path fill="#fff" d="m93.797 304.472 11.334 11.366 7.605-3.285-11.803-14.984-7.136 6.903Z"/>
    <path fill="#262424" d="M105.142 316.698a.86.86 0 0 1-.607-.252l-11.336-11.369a.865.865 0 0 1-.19-.946.86.86 0 0 1 .19-.28l7.139-6.904a.865.865 0 0 1 .998-.142.858.858 0 0 1 .273.228l11.803 14.984a.855.855 0 0 1 .158.743.868.868 0 0 1-.493.578l-7.605 3.288a.851.851 0 0 1-.33.072Zm-10.11-12.217 10.308 10.335 6.045-2.612-10.538-13.357-5.816 5.634Z"/>
    <path fill="#88C0C2" d="m108.372 356.265 2.844 2.483 25.554-29.28s-1.401-1.392-3.817-3.661c-4.751-4.472-13.427-12.357-23.026-19.782L99.67 315.89s4.416 13.497 5.985 27.442c.163 1.446-.218 4.583-.186 6.041.057 2.83 1.054 5.276 2.903 6.892Z"/>
    <path fill="#262424" d="M113.799 334.859a.859.859 0 0 1-.834-.651c-2.886-11.489-8.498-21.377-8.553-21.483a.863.863 0 0 1 .317-1.176.863.863 0 0 1 1.175.316c.057.101 5.787 10.192 8.731 21.911a.865.865 0 0 1-.15.749.868.868 0 0 1-.686.334Z"/>
    <path fill="#fff" d="M124.319 324.449c.927-1.061.123-3.28-1.795-4.955-1.918-1.675-4.224-2.172-5.151-1.11-.927 1.062-.123 3.28 1.795 4.955 1.918 1.675 4.224 2.172 5.151 1.11Z"/>
    <path fill="#262424" d="M122.896 325.884a4.547 4.547 0 0 1-.959-.108 7.75 7.75 0 0 1-3.334-1.776c-2.31-2.006-3.135-4.727-1.878-6.171 1.257-1.443 4.052-.988 6.363 1.029a7.722 7.722 0 0 1 2.207 3.062c.45 1.243.333 2.346-.329 3.105a2.636 2.636 0 0 1-.94.659 2.634 2.634 0 0 1-1.13.2Zm-3.15-3.176a6.08 6.08 0 0 0 2.577 1.389c.636.137 1.146.063 1.375-.198.229-.26.229-.779 0-1.389a6.097 6.097 0 0 0-1.718-2.355c-1.719-1.506-3.485-1.718-3.941-1.191-.515.59.121 2.354 1.718 3.744h-.011Z"/>
    <path fill="#fff" d="m108.372 356.265 2.844 2.483 25.553-29.28s-1.4-1.392-3.817-3.661l-11.705 13.411s-6.93-7.384-15.595 4.114c.163 1.446-.218 4.583-.186 6.041.06 2.83 1.057 5.276 2.906 6.892Z"/>
    <path fill="#262424" d="M111.216 359.607a.862.862 0 0 1-.573-.211l-2.843-2.484c-2.005-1.744-3.133-4.414-3.199-7.519 0-.645.046-1.547.106-2.501.08-1.26.172-2.687.086-3.463a.863.863 0 0 1 .169-.613c3.247-4.297 6.669-6.588 10.168-6.777a9.03 9.03 0 0 1 6.034 1.965l11.139-12.761a.846.846 0 0 1 .604-.287.855.855 0 0 1 .63.232 218.006 218.006 0 0 1 3.834 3.678.86.86 0 0 1 .043 1.175l-25.551 29.271a.86.86 0 0 1-.59.287h-.057v.008Zm-4.679-16.018a31.58 31.58 0 0 1-.109 3.412c-.06.917-.114 1.785-.103 2.355.055 2.615.982 4.838 2.612 6.261l2.196 1.919 24.457-28.023c-.53-.515-1.409-1.366-2.577-2.469l-11.119 12.741a.848.848 0 0 1-.981.216.886.886 0 0 1-.293-.201c-.02-.02-2.174-2.237-5.418-2.051-2.901.172-5.81 2.137-8.665 5.84Z"/>
    <path fill="#88C0C2" d="M104.352 299.354 89.15 312.015l-34.516-35.116-.63-.642a23.917 23.917 0 0 1-6.832-18.006l.085-1.658 4.339-84.596c1.892-23.394 35.598-16.878 35.793 3.274.094 10.658-.99 21.171-2.382 25.78-.714 2.355-6.546 30.687-12.064 57.745 15.823 20.942 31.409 40.558 31.409 40.558Z"/>
    <path fill="#262424" d="M102.938 298.425a.847.847 0 0 1-.673-.326 2571.619 2571.619 0 0 1-18.023-23.088.86.86 0 1 1 1.36-1.051 2551.327 2551.327 0 0 0 18.009 23.07.868.868 0 0 1 .102.91.87.87 0 0 1-.318.354.852.852 0 0 1-.457.131Z"/>
    <path fill="#fff" d="M55.158 276.747c-.175.058-.35.109-.524.152l-.63-.642a23.917 23.917 0 0 1-6.832-18.006l.085-1.658a6.03 6.03 0 0 1 .962-.418c4.319-1.458 9.37 1.968 11.285 7.648 1.916 5.68-.031 11.469-4.346 12.924Z"/>
    <path fill="#262424" d="M96.67 297.011a.872.872 0 0 1-.662-.313c-.143-.172-14.443-17.473-28.423-35.602a.867.867 0 0 1-.163-.688c3.722-19.16 10.956-48.091 14.432-61.992l.558-2.232a.86.86 0 0 1 1.558-.222.86.86 0 0 1 .109.638l-.558 2.234c-3.437 13.798-10.595 42.394-14.338 61.523 13.885 18.003 28.008 35.078 28.148 35.25a.861.861 0 0 1-.662 1.404Z"/>
    <path fill="#262424" d="M83.243 197.238a.851.851 0 0 1-.539-.189l-2.23-1.79a5.047 5.047 0 0 1-1.896-3.947v-17.473a.86.86 0 1 1 1.718 0v17.473a3.339 3.339 0 0 0 1.254 2.618l.834.667v-21.993a.86.86 0 1 1 1.718 0v23.775a.86.86 0 0 1-.86.859Zm4.925 111.193a.862.862 0 0 1-.81-.572.86.86 0 0 1 .268-.955l12.288-9.991a.856.856 0 0 1 1.209.125.862.862 0 0 1-.124 1.21l-12.287 9.991a.856.856 0 0 1-.544.192Z"/>
    <path fill="#fff" d="m11.066 117.987 7.54 8.402 9.544-5.345-1.24-7.354-15.844 4.297Z"/>
    <path fill="#262424" d="M18.605 127.248a.86.86 0 0 1-.638-.286l-7.542-8.408a.856.856 0 0 1 .039-1.188.852.852 0 0 1 .376-.215l15.843-4.297a.851.851 0 0 1 .688.107.854.854 0 0 1 .383.581l1.24 7.353a.859.859 0 0 1-.427.893l-9.543 5.36a.857.857 0 0 1-.419.1Zm-5.97-8.797 6.15 6.852 8.417-4.715-.983-5.82-13.584 3.683Z"/>
    <path fill="#DE9244" d="M55.152 151.582a27.056 27.056 0 0 1-4.13 4.368 12.873 12.873 0 0 1-4.114 2.397c-.238.081-.481.152-.724.221-4.582 1.719-10.363 1.097-15.967-3.781-5.604-4.878-11.087-14.142-14.89-29.673l13.295-5.362 6.915 7.53c5.011-13.351 18.934-48.123 27.08-45.396 16.41 5.506 6.471 51.667-7.465 69.696Z"/>
    <path fill="#fff" d="M51.023 155.95a12.894 12.894 0 0 1-4.115 2.398c-.238.08-.48.151-.724.22-4.582 1.719-10.363 1.097-15.967-3.781a11.957 11.957 0 0 1 10.743-5.504 11.956 11.956 0 0 1 10.063 6.667Z"/>
    <path fill="#262424" d="M36.932 144.103a.862.862 0 0 1-.86-.797L35.07 129.7a.862.862 0 0 1 1.718-.126l1.003 13.606a.86.86 0 0 1-.793.92h-.063l-.003.003ZM20.18 130.067a.86.86 0 0 1-.306-1.662l10.881-4.153a.85.85 0 0 1 .658.018.877.877 0 0 1 .452.479.86.86 0 0 1-.497 1.11l-10.881 4.153a.867.867 0 0 1-.306.055Z"/>
    <path fill="#fff" d="m10.218 120.657 13.545-3.678a1.497 1.497 0 0 0 1.062-1.79l-6.406-26.926a1.496 1.496 0 0 0-1.846-1.097L3.028 90.855a1.495 1.495 0 0 0-1.062 1.79l6.405 26.926a1.495 1.495 0 0 0 1.847 1.086Z"/>
    <path fill="#262424" d="M9.823 121.571a2.362 2.362 0 0 1-2.29-1.811L1.127 92.835a2.347 2.347 0 0 1 1.672-2.82l13.542-3.677a2.354 2.354 0 0 1 2.906 1.719l6.406 26.926a2.344 2.344 0 0 1-1.673 2.818l-13.541 3.678c-.2.058-.407.088-.616.092Zm7.142-33.586a.64.64 0 0 0-.17.023l-13.54 3.678a.633.633 0 0 0-.453.762l6.406 26.926a.627.627 0 0 0 .293.399.636.636 0 0 0 .491.068l13.542-3.693a.632.632 0 0 0 .452-.762L17.581 88.46a.636.636 0 0 0-.616-.475Z"/>
    <path fill="#fff" d="m13.692 119.743 13.541-3.678a1.497 1.497 0 0 0 1.063-1.79L21.89 87.349a1.494 1.494 0 0 0-1.847-1.097L6.502 89.93a1.495 1.495 0 0 0-1.063 1.79l6.406 26.926a1.49 1.49 0 0 0 1.253 1.136c.198.027.4.014.594-.039Z"/>
    <path fill="#262424" d="M13.297 120.657a2.355 2.355 0 0 1-2.29-1.81L4.599 91.921a2.347 2.347 0 0 1 1.673-2.819l13.538-3.666a2.353 2.353 0 0 1 2.907 1.718l6.405 26.926a2.345 2.345 0 0 1-1.672 2.819l-13.533 3.661c-.202.06-.41.092-.621.097Zm7.141-33.586a.64.64 0 0 0-.169.023L6.728 90.77a.633.633 0 0 0-.452.762l6.405 26.926a.64.64 0 0 0 .294.4.635.635 0 0 0 .49.067l13.542-3.678a.633.633 0 0 0 .452-.762l-6.405-26.926a.636.636 0 0 0-.616-.487Z"/>
    <path fill="#fff" d="m13.692 119.743 13.541-3.678a1.497 1.497 0 0 0 1.063-1.79L21.89 87.349a1.494 1.494 0 0 0-1.847-1.097L6.502 89.93a1.495 1.495 0 0 0-1.063 1.79l6.406 26.926a1.49 1.49 0 0 0 1.253 1.136c.198.027.4.014.594-.039Z"/>
    <path fill="#262424" d="M13.297 120.657a2.355 2.355 0 0 1-2.29-1.81L4.599 91.921a2.347 2.347 0 0 1 1.673-2.819l13.538-3.666a2.353 2.353 0 0 1 2.907 1.718l6.405 26.926a2.345 2.345 0 0 1-1.672 2.819l-13.533 3.661c-.202.06-.41.092-.621.097Zm7.141-33.586a.64.64 0 0 0-.169.023L6.728 90.77a.633.633 0 0 0-.452.762l6.405 26.926a.64.64 0 0 0 .294.4.635.635 0 0 0 .49.067l13.542-3.678a.633.633 0 0 0 .452-.762l-6.405-26.926a.636.636 0 0 0-.616-.487Z"/>
    <path fill="#fff" d="m8.02 92.055 11.728-3.188 5.97 25.087-11.728 3.185-5.97-25.084Z"/>
    <path fill="#262424" d="M13.99 117.999a.86.86 0 0 1-.837-.662l-5.97-25.084a.86.86 0 0 1 .61-1.028l11.74-3.186a.86.86 0 0 1 1.06.63l5.97 25.087a.86.86 0 0 1-.61 1.029l-11.74 3.188a.885.885 0 0 1-.223.026ZM9.046 92.665l5.572 23.414 10.06-2.735-5.572-23.414-10.06 2.735Z"/>
    <path fill="#fff" d="M5.113 105.017c-3.19 1.656-1.544 7.296.386 12.031 2.578 6.302 8.969 3.354 8.786-.777-.172-3.921-.69-15.66-9.172-11.254Z"/>
    <path fill="#262424" d="M9.966 121.548c-1.872 0-4.008-1.08-5.263-4.174-1.892-4.649-3.948-11.065 0-13.122 2.431-1.263 4.516-1.409 6.197-.438 3.777 2.183 4.095 9.355 4.23 12.417.108 2.429-1.673 4.664-4.138 5.205-.337.074-.68.111-1.026.112Zm-4.455-15.769c-2.005 1.046-1.747 4.729.785 10.948.944 2.323 2.528 3.437 4.343 3.031 1.635-.358 2.864-1.871 2.79-3.438-.112-2.543-.413-9.298-3.374-11.008-1.145-.659-2.669-.498-4.544.476v-.009Z"/>
    <path fill="#fff" d="M3.43 101.17c-3.918 1.389-2.62 6.182 2.482 4.787 7.422-2.028 7.485-8.313-2.483-4.787Z"/>
    <path fill="#262424" d="M4.2 107.065c-2.082 0-3.39-1.088-3.783-2.346-.476-1.518.309-3.503 2.723-4.36 3.911-1.386 6.824-1.472 8.195-.24a2.242 2.242 0 0 1 .676 2.248c-.432 1.825-2.738 3.561-5.873 4.417a7.35 7.35 0 0 1-1.939.281Zm4.257-6.096c-1.09 0-2.657.287-4.744 1.012-1.458.515-1.882 1.515-1.658 2.225.266.86 1.514 1.498 3.628.923 3.064-.837 4.461-2.346 4.653-3.151a.52.52 0 0 0-.152-.573c-.278-.258-.845-.436-1.724-.436h-.003Z"/>
    <path fill="#DE9244" d="m126.177 85.498 1.186 95.762s-2.54.353-6.924.757v-10.43a1.52 1.52 0 0 0-2.107-1.409 1.516 1.516 0 0 0-.494.331 1.516 1.516 0 0 0-.446 1.078v10.693c-14.397 1.172-42.118 2.292-67.864-3.082 0 0 3.285-76.129 11.577-97.446 0 0 14.567-8.307 31.28-7.978 16.715.33 33.792 11.724 33.792 11.724Z"/>
    <path fill="#262424" d="M50.974 155.306h-.06a.862.862 0 0 1-.796-.917c1.606-23.105 4.458-53.852 8.914-69.128a.86.86 0 1 1 1.65.481c-4.416 15.127-7.25 45.746-8.852 68.764a.858.858 0 0 1-.856.8Zm44.324 24.276a346.302 346.302 0 0 1-42.465-2.733.824.824 0 0 1-.383-1.477.827.827 0 0 1 .612-.158c.309.043 31.306 4.316 60.419 2.059a.82.82 0 0 1 .615.186.833.833 0 0 1 .295.57.815.815 0 0 1-.203.609.829.829 0 0 1-.578.279c-6.125.476-12.328.665-18.312.665Z"/>
    <path fill="#fff" d="M104.762 78.604a14.715 14.715 0 0 1-9.28 8.327c-.694-3.799-2.598-8.577-2.598-8.577-2.119 2.916-3.239 6.772-3.514 8.534-6.858-1.885-7.64-8.482-7.64-8.482.837-6.605 6.518-11.581 11.386-11.412 10.784.364 11.646 11.61 11.646 11.61Z"/>
    <path fill="#262424" d="M95.481 87.79a.86.86 0 0 1-.859-.705c-.48-2.32-1.134-4.6-1.956-6.823a22.102 22.102 0 0 0-2.46 6.76.857.857 0 0 1-1.076.696c-7.33-2.005-8.23-8.914-8.264-9.209a.86.86 0 0 1 0-.209c.936-7.385 7.225-12.343 12.276-12.168 11.413.386 12.453 12.288 12.464 12.409a.859.859 0 0 1-.065.404 15.646 15.646 0 0 1-9.814 8.808.86.86 0 0 1-.246.037Zm-2.597-10.295h.106a.86.86 0 0 1 .69.533 58.57 58.57 0 0 1 2.445 7.757 13.843 13.843 0 0 0 7.758-7.333c-.172-1.51-1.578-10.312-10.787-10.616-4.295-.143-9.653 4.331-10.498 10.556.12.764 1.06 5.51 6.117 7.373.458-1.991 1.549-5.274 3.473-7.926a.858.858 0 0 1 .696-.341v-.003Z"/>
    <path fill="#fff" d="M42.112 100.482a6.504 6.504 0 0 0-7.94-.573c-4.084 2.722-10.054 6.709-12.706 8.542a1.967 1.967 0 0 0 .352 3.423 1.96 1.96 0 0 0 1.366.063l8.158-2.641.748 1.928a11.004 11.004 0 0 0 11.167 6.987l3.832-.321 7.73-6.016-12.707-11.392Z"/>
    <path fill="#262424" d="M42.367 119.107a11.932 11.932 0 0 1-11.073-7.571l-.456-1.171-7.387 2.392a2.827 2.827 0 0 1-3.403-1.435 2.824 2.824 0 0 1 .926-3.575c2.602-1.799 8.352-5.643 12.716-8.55a7.36 7.36 0 0 1 8.992.644l12.716 11.395a.858.858 0 0 1-.046 1.317l-7.731 6.016a.86.86 0 0 1-.455.177l-3.832.321c-.329.029-.647.04-.968.04Zm-11.02-10.67a.86.86 0 0 1 .803.55l.747 1.928a10.202 10.202 0 0 0 10.309 6.439l3.576-.286 6.718-5.228-11.952-10.707a5.643 5.643 0 0 0-6.893-.496c-4.36 2.905-10.102 6.74-12.694 8.533a1.11 1.11 0 0 0-.365 1.403 1.108 1.108 0 0 0 1.336.56l8.158-2.642a.872.872 0 0 1 .258-.051v-.003Z"/>
    <path fill="#DE9244" d="M94.533 148.855c-3.722 2.202-7.23 3.403-10.162 3.219-3.84-.24-7.832-1.79-11.74-4.087-14.75-8.674-28.349-28.015-28.349-28.015l8.665-12.016 28.784 15.087s37.543-42.987 45.632-36.11c13.183 11.21-13.192 50.366-32.83 61.922Z"/>
    <path fill="#fff" d="M94.533 148.855c-3.722 2.202-7.23 3.403-10.162 3.219-3.84-.24-7.832-1.79-11.74-4.087a11.961 11.961 0 0 1 17.701-4.524 11.962 11.962 0 0 1 4.201 5.392Z"/>
    <path fill="#262424" d="M82.747 138.23a.857.857 0 0 1-.859-.799l-1.016-14.322a.86.86 0 1 1 1.718-.12l1.016 14.322a.86.86 0 0 1-.796.919h-.063Z"/>
    <path fill="#262424" d="M84.947 152.951c-.215 0-.424 0-.63-.02-7.818-.49-17.064-6.119-27.49-16.737a142.932 142.932 0 0 1-13.249-15.726.862.862 0 0 1 0-.997l8.665-12.011a.858.858 0 0 1 1.094-.258l28.185 14.773c2.004-2.255 10.357-11.596 19.388-20.186 14.369-13.667 23.194-18.74 26.997-15.511 4.814 4.09 5.137 11.744.942 22.162-3.926 9.739-11.517 20.959-20.308 30.017-8.97 9.255-17.521 14.494-23.594 14.494Zm-39.608-32.964c2.883 3.955 22.621 30.214 39.084 31.242 5.529.35 14.082-4.869 22.907-13.955 8.642-8.909 16.099-19.923 19.947-29.464 2.715-6.735 4.839-15.706-.461-20.212-1.343-1.146-6.437-1.922-24.7 15.448-10.248 9.739-19.635 20.472-19.73 20.578a.852.852 0 0 1-1.045.195l-28.125-14.74-7.877 10.908Z"/>
    <path fill="#262424" d="M52.947 122.619a.856.856 0 0 1-.858-.907.86.86 0 0 1 .148-.436l6.907-10.169a.864.864 0 0 1 1.431.965l-6.918 10.169a.86.86 0 0 1-.71.378Z"/>
    <path fill="#fff" d="M49.531 120.863a1.647 1.647 0 1 0 0-3.293 1.647 1.647 0 0 0 0 3.293Z"/>
    <path fill="#262424" d="M49.53 121.723a2.501 2.501 0 0 1-2.314-1.548 2.508 2.508 0 0 1 1.826-3.417 2.5 2.5 0 0 1 2.572 1.066 2.504 2.504 0 0 1-.312 3.164 2.513 2.513 0 0 1-1.771.735Zm0-3.295a.792.792 0 0 0-.727.487.787.787 0 1 0 .728-.487Z"/>
    <path fill="#fff" d="m99.436 53.669-.175 6.628-.286 11.338c-3.812 2.663-7.52 2.947-11.096.26l.524-5.268.793-7.977 10.24-4.981Z"/>
    <path fill="#262424" d="M93.039 74.64c-1.963 0-3.86-.687-5.69-2.06a.859.859 0 0 1-.338-.774l1.317-13.242a.86.86 0 0 1 .478-.688l10.255-4.98a.859.859 0 0 1 1.234.795l-.476 17.963a.859.859 0 0 1-.366.682c-2.197 1.533-4.333 2.303-6.414 2.303Zm-4.273-3.152c2.924 2.005 5.99 1.897 9.344-.315l.427-16.11-8.55 4.154-1.22 12.271Z"/>
    <path fill="#262424" d="M95.893 55.39c-.051 2.993.224 13.177-7.808 14.29l1.096-11.027 6.712-3.263Z"/>
    <path fill="#fff" d="M79.053 57.753c1.655 5.222 4.542 11.28 10.733 8.946 7.362-2.776 11.153-9.19 9.704-16.445-1.449-7.256-5.641-10.641-14.137-7.995a13.66 13.66 0 0 0-2.102.86c-4.707 2.392-6.348 7.052-5.022 11.841.24.863.51 1.808.824 2.793Z"/>
    <path fill="#262424" d="M87.186 68.071a6.252 6.252 0 0 1-2.864-.682c-3.791-1.925-5.558-7.313-6.918-12.214-1.718-6.241 1.36-11.764 7.697-13.75a.862.862 0 0 1 1.112.899.859.859 0 0 1-.6.743c-5.469 1.719-8.04 6.273-6.551 11.639.905 3.294 2.6 9.406 6.036 11.142 1.286.653 2.72.665 4.387.037 2.712-1.022 4.914-2.54 6.549-4.514a.861.861 0 0 1 1.42.147.86.86 0 0 1-.097.95 17.319 17.319 0 0 1-7.265 5.027 8.222 8.222 0 0 1-2.906.576Z"/>
    <path fill="#262424" d="M102.041 51.136a22.679 22.679 0 0 1-1.838 3.492l-3.788 1.043-1.39-2.547s-2.456.401-3.304-1.146a.972.972 0 0 1-.057-.108c-.24-.513-1.243-2.81-1.66-6.617 0 0-5.313 3.812-8.428 4.818-1.12.36-2.551.2-3.926-.152-2.752-.71-5.784-4.317-5.924-7.161v-.055c-.16-4.17 2.522-1.821 2.522-1.821s-.08-3.369 1.902-4.028c1.981-.659 3.903 2.068 3.903 2.068a32.672 32.672 0 0 1 11.791-2.99c8.101-.447 7.285 5.382 7.285 5.382s6.159.648 2.912 9.822Z"/>
    <path fill="#fff" d="M97.162 55.084c-.962-2.957.573-6.213 3.525-7.196a5.174 5.174 0 0 1 1.941-.266c3.958.226 4.805 9.166-4.504 10.415l-.962-2.953Z"/>
    <path fill="#262424" d="M98.124 58.9a.86.86 0 0 1-.114-1.72c4.996-.676 6.666-3.62 6.585-5.94-.051-1.321-.755-2.696-2.004-2.765a4.332 4.332 0 0 0-1.624.224 4.835 4.835 0 0 0-2.983 6.118.86.86 0 1 1-1.635.533c-1.123-3.437.704-7.161 4.069-8.275a6.046 6.046 0 0 1 2.262-.307c2.004.115 3.53 1.97 3.625 4.414.126 3.28-2.317 6.935-8.064 7.711l-.117.006Z"/>
    <path fill="#88C0C2" d="M111.591 14.86a5.97 5.97 0 0 0-3.963 1.505 8.672 8.672 0 0 0-9.341-6.806 8.67 8.67 0 0 0-7.805 8.524 4.757 4.757 0 1 0-4.653 8.284 4.755 4.755 0 0 0 2.133.49h23.641a5.995 5.995 0 0 0 5.706-3.664 6.007 6.007 0 0 0-1.355-6.647 6.004 6.004 0 0 0-4.363-1.685ZM304.695 0a9.504 9.504 0 0 0-9.504 9.507v.438a5.302 5.302 0 0 0-4.781-1.423 5.302 5.302 0 0 0-4.213 5.725 5.295 5.295 0 0 0 5.271 4.767h13.215A9.509 9.509 0 0 0 304.695 0Zm25.562 192.077v-.422a16.04 16.04 0 0 0-16.035-16.04c-4.253 0-8.332 1.69-11.339 4.698a16.044 16.044 0 0 0-4.697 11.342 8.02 8.02 0 0 0 0 16.041h29.494a8.02 8.02 0 0 0 2.577-15.619ZM150.013 3.027l-6.479 6.481 6.479 6.482 6.48-6.482-6.48-6.481ZM24.864 196.378l-6.479 6.481 6.48 6.482 6.479-6.482-6.48-6.481Zm302.111-87.843-6.479 6.481 6.479 6.482 6.479-6.482-6.479-6.481Z"/>
    <path fill="#DE9244" d="m316.473 223.362-6.479 6.481 6.479 6.482 6.479-6.482-6.479-6.481ZM134.86 32.248a3.222 3.222 0 1 0-.001-6.443 3.222 3.222 0 0 0 .001 6.443Zm179.338 70.858a3.221 3.221 0 1 0 0-6.445 3.222 3.222 0 0 0 0 6.445Zm-263.02-30.81a5.084 5.084 0 0 0 5.082-5.084 5.084 5.084 0 1 0-5.082 5.084Zm177.165 106.591s-13.795 2.107-25.35.815c-11.555-1.292-22.335-5.559-22.335-5.559l9.364-23.55s-5.976-7.705-5.129-11.484c.847-3.78 8.377-20.443 8.377-20.443a99.678 99.678 0 0 1 10.965-.982c4.197-.164 8.197-.118 11.552.021 5.648.218 9.507.659 9.507.659s4.304 19.758 3.704 23.218c-.6 3.46-5.147 11.635-5.147 11.635l4.492 25.67Z"/>
    <path fill="#262424" d="M194.068 149.651a.46.46 0 0 1-.277-.16.487.487 0 0 1 .271-.782c.109-.021 10.911-2.014 23.835.248.123.02.232.089.304.191a.489.489 0 0 1-.109.669.46.46 0 0 1-.349.085c-12.763-2.238-23.402-.27-23.508-.249a.446.446 0 0 1-.167-.002Zm-.844 28.527c-7.39-1.372-12.077-2.916-12.177-2.95a.471.471 0 0 1-.323-.601.46.46 0 0 1 .249-.276.48.48 0 0 1 .374-.008c.212.073 22.453 7.393 46.813 4.203a.476.476 0 0 1 .478.405.473.473 0 0 1-.35.517c-13.418 1.757-26.192.358-35.064-1.29Zm15.306-54.799c-1.276-.224-2.284-.706-3.006-1.443-1.115-1.141-1.315-2.641-1.278-3.708a.388.388 0 0 1 .365-.372c1.017-.06 2.003-.108 2.936-.139l.889-5.088a.388.388 0 0 1 .362-.319l4.285-.25a.405.405 0 0 1 .293.106.38.38 0 0 1 .123.284l-.025 5.167c.814.001 1.599.009 2.353.024a.388.388 0 0 1 .387.368c.06 1.138-.105 2.747-1.251 3.934-.997 1.04-2.546 1.57-4.607 1.579a10.434 10.434 0 0 1-1.826-.143Zm-3.505-4.765c.022.871.243 1.961 1.059 2.782.885.897 2.32 1.356 4.27 1.35 1.839-.006 3.2-.456 4.043-1.333.842-.876 1.044-2.057 1.045-3.003-.756-.009-1.543-.015-2.359-.018a.382.382 0 0 1-.279-.114.387.387 0 0 1-.115-.276l.025-5.142-3.558.208-.89 5.093a.389.389 0 0 1-.371.319c-.911.03-1.874.073-2.869.129l-.001.005Zm-18.203 27.927a.381.381 0 0 1-.254-.186c-1.786-3.153-2.509-5.569-2.149-7.177.642-2.881 5.214-13.398 7.15-17.787a.408.408 0 0 1 .083-.133.391.391 0 0 1 .279-.119.385.385 0 0 1 .275.124.386.386 0 0 1 .099.29.401.401 0 0 1-.042.151c-1.926 4.366-6.476 14.828-7.101 17.64-.313 1.391.403 3.68 2.067 6.618a.388.388 0 0 1 .051.214.388.388 0 0 1-.458.365Zm41.712-11.757a.393.393 0 0 1-.32-.318c-.939-5.406-2.701-12.803-3.414-15.734a.411.411 0 0 1-.012-.156.406.406 0 0 1 .153-.265.386.386 0 0 1 .615.232c.717 2.932 2.48 10.362 3.426 15.786a.387.387 0 0 1-.107.344.384.384 0 0 1-.341.111Z"/>
    <path fill="#fff" d="M210.261 123.015c-4.768-.022-5.372-2.918-5.285-4.709 1.029-.053 2.045-.095 3.04-.12l.956-5.144 4.016-.208-.055 2.828-.046 2.466c.893.005 1.749.019 2.567.042.066 1.953-.598 4.864-5.193 4.845Z"/>
  </g>
  <defs>
    <clipPath id="a">
      <path fill="#fff" d="M0 0h335.435v360H0z" transform="translate(.282)"/>
    </clipPath>
  </defs>
</svg>
