<svg xmlns="http://www.w3.org/2000/svg" width="348" height="360" fill="none" viewBox="0 0 348 360">
  <g clip-path="url(#a)">
    <path fill="#262424" d="m288.362 272.544-3.447-.776a.6.6 0 0 0-.49.03.599.599 0 0 0-.297.389.59.59 0 0 0 .531.716l3.447.777a.598.598 0 0 0 .489-.03.577.577 0 0 0 .191-.163.577.577 0 0 0 .108-.477.587.587 0 0 0-.532-.466Zm6.09-.991a8.245 8.245 0 0 1-3.082 1.109.588.588 0 0 0 .168 1.153 9.429 9.429 0 0 0 3.532-1.265.586.586 0 0 0-.191-1.016.59.59 0 0 0-.412.019h-.015Zm3.765-5.199a8.195 8.195 0 0 1-1.351 2.982.594.594 0 0 0-.162.46.59.59 0 0 0 .47.525.602.602 0 0 0 .476-.111.584.584 0 0 0 .161-.192 9.37 9.37 0 0 0 1.545-3.402.586.586 0 0 0-.871-.588.593.593 0 0 0-.271.326h.003Zm1.555-6.881-.778 3.444a.589.589 0 0 0 1.137.256l.777-3.444a.598.598 0 0 0-.036-.488.595.595 0 0 0-.393-.292.599.599 0 0 0-.478.105.596.596 0 0 0-.232.431l.003-.012Zm1.554-6.884-.777 3.444a.578.578 0 0 0 .029.488.589.589 0 0 0 1.107-.233l.777-3.443a.588.588 0 1 0-1.139-.256h.003Zm1.554-6.884-.777 3.443a.585.585 0 0 0 .42.786.59.59 0 0 0 .716-.53l.777-3.443a.589.589 0 0 0-1.139-.256h.003Zm1.554-6.884-.777 3.443a.59.59 0 0 0 .864.563.58.58 0 0 0 .272-.307l.778-3.443a.588.588 0 0 0-.458-.628.593.593 0 0 0-.411.057.594.594 0 0 0-.271.315h.003Zm1.555-6.884-.781 3.434a.59.59 0 0 0 1.137.256l.777-3.443a.596.596 0 0 0-.014-.503.584.584 0 0 0-.655-.308.578.578 0 0 0-.396.311.585.585 0 0 0-.063.25l-.005.003Zm1.554-6.884-.777 3.443a.582.582 0 0 0 .192.68.599.599 0 0 0 .478.108.601.601 0 0 0 .394-.292.582.582 0 0 0 .072-.24l.777-3.444a.583.583 0 0 0-.198-.67.601.601 0 0 0-.472-.107.6.6 0 0 0-.393.283.58.58 0 0 0-.076.236l.003.003Zm1.554-6.885-.777 3.444a.586.586 0 0 0 .458.618.59.59 0 0 0 .678-.362l.777-3.444a.59.59 0 0 0-.863-.566.588.588 0 0 0-.273.308v.002Zm1.554-6.884-.777 3.444a.592.592 0 0 0 .458.617.583.583 0 0 0 .678-.361l.778-3.444a.593.593 0 0 0-.456-.621.59.59 0 0 0-.681.362v.003Zm1.555-6.884-.778 3.444a.595.595 0 0 0 .03.489.599.599 0 0 0 .39.297.59.59 0 0 0 .717-.53l.777-3.444a.595.595 0 0 0-.03-.488.593.593 0 0 0-.868-.197.585.585 0 0 0-.238.426v.003Zm1.554-6.884-.777 3.45a.578.578 0 0 0 .029.488.589.589 0 0 0 1.107-.233l.777-3.443a.59.59 0 0 0-.191-.676.59.59 0 0 0-.945.411v.003Zm1.554-6.884-.783 3.438a.589.589 0 0 0 1.136.256l.778-3.444a.591.591 0 0 0-.459-.6.584.584 0 0 0-.672.344v.006Zm1.554-6.884-.777 3.443a.6.6 0 0 0 .03.489c.04.075.095.14.163.191a.577.577 0 0 0 .478.108.601.601 0 0 0 .394-.291.602.602 0 0 0 .072-.241l.777-3.443a.595.595 0 0 0-.03-.487.593.593 0 0 0-.866-.199.585.585 0 0 0-.241.424v.006Zm1.555-6.884-.777 3.443a.585.585 0 0 0 .419.786.59.59 0 0 0 .717-.53l.777-3.443a.59.59 0 0 0-.664-.786.594.594 0 0 0-.396.282.58.58 0 0 0-.076.236v.012Zm1.554-6.884-.777 3.443a.585.585 0 0 0 .419.786.59.59 0 0 0 .717-.53l.777-3.443a.595.595 0 0 0-.03-.487.593.593 0 0 0-.387-.297.586.586 0 0 0-.479.097.59.59 0 0 0-.24.425v.006Zm1.554-6.884-.777 3.443a.582.582 0 0 0 .03.489.586.586 0 0 0 .87.196.588.588 0 0 0 .236-.429l.777-3.444a.573.573 0 0 0-.03-.486.571.571 0 0 0-.387-.297.585.585 0 0 0-.478.097.594.594 0 0 0-.241.425v.006Zm1.554-6.885-.777 3.444a.598.598 0 0 0 .03.489.587.587 0 0 0 .641.298.585.585 0 0 0 .466-.531l.777-3.444a.588.588 0 1 0-1.137-.264v.008Zm1.555-6.884-.777 3.444a.582.582 0 0 0 .192.68.59.59 0 0 0 .944-.424l.777-3.444a.586.586 0 0 0-.894-.687.592.592 0 0 0-.242.423v.008Zm1.554-6.884-.771 3.435a.582.582 0 0 0 .192.68.59.59 0 0 0 .944-.424l.777-3.444a.586.586 0 0 0-.68-.769.597.597 0 0 0-.462.525v-.003Zm1.554-6.884-.777 3.444a.585.585 0 0 0 .671.787.579.579 0 0 0 .394-.291.58.58 0 0 0 .071-.241l.778-3.443a.604.604 0 0 0-.031-.486.577.577 0 0 0-.386-.296.581.581 0 0 0-.478.095.59.59 0 0 0-.242.422v.009Zm1.555-6.884-.778 3.444a.593.593 0 0 0 .193.679.59.59 0 0 0 .944-.424l.765-3.455a.592.592 0 0 0-.004-.508.589.589 0 0 0-1.118.255l-.002.009Zm1.554-6.884-.777 3.443a.585.585 0 0 0 .419.786.59.59 0 0 0 .717-.53l.777-3.443a.587.587 0 0 0-.894-.694.59.59 0 0 0-.239.429l-.003.009Zm1.554-6.884-.774 3.426a.578.578 0 0 0 .03.489.58.58 0 0 0 .39.296.57.57 0 0 0 .25.002.587.587 0 0 0 .466-.532l.777-3.443a.587.587 0 0 0-.903-.683.58.58 0 0 0-.233.433l-.003.012Zm1.548-6.896-.777 3.443a.6.6 0 0 0 .03.489c.04.075.095.14.163.191a.577.577 0 0 0 .478.108.601.601 0 0 0 .394-.292.592.592 0 0 0 .072-.24l.777-3.443a.6.6 0 0 0-.03-.489.599.599 0 0 0-.641-.299.601.601 0 0 0-.394.292.597.597 0 0 0-.072.24Zm1.555-6.884-.777 3.443a.585.585 0 0 0 .419.786.59.59 0 0 0 .717-.53l.777-3.443a.588.588 0 1 0-1.127-.256h-.009Zm1.554-6.884-.777 3.443a.582.582 0 0 0 .192.68.587.587 0 0 0 .872-.184.582.582 0 0 0 .072-.24l.777-3.443a.59.59 0 0 0-.176-.7.59.59 0 0 0-.951.444h-.009Zm1.554-6.884-.777 3.443a.581.581 0 0 0 .03.489.594.594 0 0 0 .39.297.59.59 0 0 0 .716-.53l.777-3.444a.59.59 0 0 0-.013-.5.59.59 0 0 0-1.05-.004.598.598 0 0 0-.064.249h-.009Zm1.554-6.884-.768 3.452a.597.597 0 0 0 .03.489.593.593 0 0 0 .39.297.59.59 0 0 0 .716-.53l.778-3.444a.604.604 0 0 0 .037-.245.588.588 0 0 0-1.174-.022l-.009.002Zm1.555-6.885-.777 3.444a.582.582 0 0 0 .192.68.588.588 0 0 0 .944-.424l.777-3.444a.582.582 0 0 0-.407-.81.591.591 0 0 0-.655.303.58.58 0 0 0-.065.248l-.009.003Zm1.554-6.884-.777 3.444a.582.582 0 0 0 .192.68.586.586 0 0 0 .707.004.581.581 0 0 0 .237-.429l.777-3.443a.59.59 0 0 0-.175-.699.598.598 0 0 0-.489-.112.595.595 0 0 0-.398.304.58.58 0 0 0-.065.248l-.009.003Zm1.566-6.893-.777 3.444a.582.582 0 0 0 .192.68.592.592 0 0 0 .873-.184.596.596 0 0 0 .071-.24l.777-3.444a.582.582 0 0 0-.192-.68.59.59 0 0 0-.944.424Zm1.554-6.884-.777 3.444a.597.597 0 0 0 .03.489.593.593 0 0 0 .39.296.59.59 0 0 0 .716-.53l.778-3.443a.59.59 0 0 0-.426-.778.59.59 0 0 0-.714.528l.003-.006Zm-.715-6.42a8.24 8.24 0 0 1 1.001 3.118.586.586 0 0 0 .636.442.587.587 0 0 0 .524-.572 9.414 9.414 0 0 0-1.145-3.555.587.587 0 0 0-.597-.36.587.587 0 0 0-.422.934l.003-.006Zm-5.072-3.937a8.207 8.207 0 0 1 2.944 1.453.588.588 0 0 0 .715-.918 9.375 9.375 0 0 0-3.353-1.658.588.588 0 1 0-.306 1.129v-.006Zm-6.868-1.553 3.447.777a.592.592 0 0 0 .619-.457.59.59 0 0 0-.362-.678l-3.447-.777a.592.592 0 0 0-.633.455.59.59 0 0 0 .373.683l.003-.002Zm-6.891-1.552 3.447.776a.587.587 0 0 0 .256-1.135l-3.45-.762a.588.588 0 0 0-.256 1.124l.003-.003Zm-6.891-1.553 3.447.776a.587.587 0 0 0 .256-1.135l-3.447-.776a.59.59 0 0 0-.259 1.138l.003-.003Zm-6.909-1.55 3.447.777a.592.592 0 0 0 .619-.457.59.59 0 0 0-.363-.678l-3.447-.777a.59.59 0 0 0-.618.458.59.59 0 0 0 .362.677Zm-6.876-1.546 3.447.776a.588.588 0 0 0 .256-1.135l-3.447-.777a.587.587 0 0 0-.256 1.136Zm-6.891-1.553 3.447.776a.589.589 0 0 0 .256-1.135l-3.447-.776a.588.588 0 0 0-.259 1.129l.003.006Zm-6.891-1.553 3.447.777a.591.591 0 0 0 .618-.458.59.59 0 0 0-.362-.677l-3.447-.777a.587.587 0 0 0-.259 1.13l.003.005Zm-6.892-1.552 3.447.776a.592.592 0 0 0 .619-.457.59.59 0 0 0-.362-.678l-3.447-.776a.591.591 0 0 0-.605.455.594.594 0 0 0 .345.674l.003.006Zm-6.891-1.559 3.447.776a.587.587 0 0 0 .619-.457.59.59 0 0 0-.363-.678l-3.45-.776a.589.589 0 0 0-.253 1.135Zm-6.891-1.553 3.447.777a.588.588 0 0 0 .256-1.135l-3.447-.777a.59.59 0 0 0-.56.86c.065.123.171.22.301.272l.003.003Zm-6.891-1.552 3.447.776a.588.588 0 0 0 .256-1.135l-3.462-.78a.59.59 0 0 0-.548.866.588.588 0 0 0 .304.27l.003.003Zm-6.897-1.559 3.447.776a.587.587 0 0 0 .256-1.135l-3.447-.776a.588.588 0 0 0-.256 1.135Zm-6.891-1.553 3.447.777a.59.59 0 0 0 .256-1.135l-3.447-.777a.586.586 0 0 0-.628.457.587.587 0 0 0 .372.681v-.003Zm-6.891-1.552 3.447.776a.591.591 0 0 0 .618-.457.59.59 0 0 0-.362-.678l-3.447-.776a.59.59 0 0 0-.629.456.587.587 0 0 0 .373.682v-.003Zm-6.892-1.553 3.447.776a.592.592 0 0 0 .619-.457.59.59 0 0 0-.362-.678l-3.447-.776a.59.59 0 0 0-.629.457.587.587 0 0 0 .372.681v-.003Zm-6.891-1.553 3.447.777a.592.592 0 0 0 .619-.457.59.59 0 0 0-.363-.678l-3.441-.783a.588.588 0 0 0-.262 1.144v-.003Zm-6.891-1.552 3.447.776a.588.588 0 0 0 .256-1.135l-3.447-.776a.59.59 0 0 0-.632.454.59.59 0 0 0 .373.684l.003-.003Zm-6.891-1.553 3.447.788a.587.587 0 0 0 .256-1.135l-3.447-.776a.589.589 0 0 0-.259 1.126l.003-.003Zm-6.35 1.03a8.266 8.266 0 0 1 3.065-1.16.587.587 0 0 0-.189-1.15 9.431 9.431 0 0 0-3.497 1.324.578.578 0 0 0-.323.367.584.584 0 0 0 .474.752.592.592 0 0 0 .47-.134Zm-3.679 5.266.023-.106a8.214 8.214 0 0 1 1.281-2.905.59.59 0 0 0-.186-.752.59.59 0 0 0-.771.084 9.38 9.38 0 0 0-1.472 3.317l-.023.106a.582.582 0 0 0 .192.68.587.587 0 0 0 .872-.184.581.581 0 0 0 .072-.24h.012Zm-1.554 6.884.777-3.443a.597.597 0 0 0-.03-.49.585.585 0 0 0-.39-.296.59.59 0 0 0-.717.53l-.777 3.443a.593.593 0 0 0 .03.487.593.593 0 0 0 .866.2.6.6 0 0 0 .241-.425v-.006Zm-1.555 6.884.777-3.443a.582.582 0 0 0-.192-.68.59.59 0 0 0-.944.424l-.777 3.45a.581.581 0 0 0 .03.488.594.594 0 0 0 .39.297.59.59 0 0 0 .716-.53v-.006Zm-1.554 6.896.771-3.45a.582.582 0 0 0-.192-.68.59.59 0 0 0-.944.425l-.777 3.443a.584.584 0 0 0 .205.658.591.591 0 0 0 .857-.166.589.589 0 0 0 .08-.23Zm-1.554 6.884.777-3.443a.581.581 0 0 0-.03-.49.594.594 0 0 0-.39-.296.59.59 0 0 0-.716.53l-.777 3.443a.586.586 0 0 0 .903.683.587.587 0 0 0 .233-.433v.006Zm-1.554 6.884.777-3.443a.597.597 0 0 0-.03-.49.585.585 0 0 0-.39-.296.59.59 0 0 0-.717.53l-.765 3.438a.597.597 0 0 0 .008.504.589.589 0 0 0 1.117-.248v.005Zm-1.555 6.885.777-3.444a.582.582 0 0 0-.192-.68.588.588 0 0 0-.944.424l-.777 3.444a.593.593 0 0 0 .024.494.59.59 0 0 0 1.042.003.58.58 0 0 0 .067-.245l.003.004Zm-1.554 6.884.777-3.444a.582.582 0 0 0-.192-.68.586.586 0 0 0-.707-.005.591.591 0 0 0-.237.43l-.777 3.443a.593.593 0 0 0 .024.494.578.578 0 0 0 .393.301.59.59 0 0 0 .716-.542l.003.003Zm-1.548 6.869.777-3.444a.598.598 0 0 0-.03-.488.582.582 0 0 0-.39-.297.59.59 0 0 0-.716.53l-.778 3.443a.598.598 0 0 0 .03.489.582.582 0 0 0 .39.297.589.589 0 0 0 .717-.53Zm-1.555 6.884.778-3.443a.597.597 0 0 0-.03-.49.595.595 0 0 0-.641-.298.588.588 0 0 0-.466.532l-.777 3.443a.598.598 0 0 0 .013.498.577.577 0 0 0 .391.31.588.588 0 0 0 .724-.54l.008-.012Zm-1.554 6.884.777-3.443a.582.582 0 0 0-.192-.68.588.588 0 0 0-.944.424l-.786 3.458a.584.584 0 0 0 .193.681.584.584 0 0 0 .708.003.594.594 0 0 0 .235-.431l.009-.012Zm-1.554 6.884.777-3.443a.581.581 0 0 0-.03-.49.593.593 0 0 0-.39-.296.59.59 0 0 0-.716.53l-.777 3.444a.59.59 0 0 0 .173.696.592.592 0 0 0 .885-.183.587.587 0 0 0 .069-.246l.009-.012Zm-1.554 6.884.768-3.423a.577.577 0 0 0-.03-.488.593.593 0 0 0-.39-.297.59.59 0 0 0-.716.53l-.775 3.437a.591.591 0 0 0 .416.795.584.584 0 0 0 .484-.104.588.588 0 0 0 .234-.435l.009-.015Zm-1.555 6.885.777-3.444a.582.582 0 0 0-.192-.68.59.59 0 0 0-.944.424l-.777 3.444a.594.594 0 0 0 .013.497.59.59 0 0 0 .644.314.585.585 0 0 0 .4-.296.598.598 0 0 0 .071-.245l.008-.014Zm-1.554 6.884.777-3.444a.582.582 0 0 0-.192-.68.59.59 0 0 0-.944.424l-.777 3.444a.597.597 0 0 0 .013.497.59.59 0 0 0 .644.314.591.591 0 0 0 .47-.541l.009-.014Zm-1.566 6.898.777-3.443a.582.582 0 0 0-.192-.68.596.596 0 0 0-.478-.108.601.601 0 0 0-.394.292.582.582 0 0 0-.072.24l-.777 3.444a.578.578 0 0 0 .03.489.58.58 0 0 0 .39.296.57.57 0 0 0 .25.002.573.573 0 0 0 .229-.103.582.582 0 0 0 .237-.429Zm-1.554 6.885.777-3.444a.582.582 0 0 0-.03-.489.607.607 0 0 0-.162-.191.59.59 0 0 0-.944.424l-.777 3.444a.584.584 0 0 0 .423.775.581.581 0 0 0 .641-.283.579.579 0 0 0 .075-.236h-.003Zm-1.554 6.884.78-3.453a.589.589 0 0 0-1.137-.255l-.777 3.443a.592.592 0 0 0 .416.781.592.592 0 0 0 .644-.277.585.585 0 0 0 .076-.236l-.002-.003Zm-1.555 6.884.777-3.444a.58.58 0 0 0-.192-.679.57.57 0 0 0-.227-.106.575.575 0 0 0-.48.101.584.584 0 0 0-.237.428l-.777 3.444a.589.589 0 0 0 1.139.259l-.003-.003Zm-1.554 6.884.777-3.444a.578.578 0 0 0-.03-.488.574.574 0 0 0-.39-.297.57.57 0 0 0-.25-.002.587.587 0 0 0-.466.532l-.783 3.446a.59.59 0 0 0 1.142.256v-.003Zm-1.554 6.893.777-3.444a.589.589 0 0 0-1.136-.256l-.778 3.444a.592.592 0 0 0 .458.618.593.593 0 0 0 .679-.362Zm-1.555 6.884.789-3.446a.585.585 0 0 0-.419-.786.59.59 0 0 0-.717.53l-.777 3.443a.586.586 0 0 0 .459.583.59.59 0 0 0 .665-.33v.006Zm-1.566 6.878.778-3.443a.6.6 0 0 0-.03-.489.599.599 0 0 0-.641-.299.601.601 0 0 0-.394.292.597.597 0 0 0-.072.24l-.777 3.443a.59.59 0 0 0 .864.563.58.58 0 0 0 .272-.307Zm-1.554 6.884.777-3.443a.585.585 0 0 0-.457-.618.593.593 0 0 0-.679.362l-.777 3.443a.592.592 0 0 0 .448.686.592.592 0 0 0 .7-.427l-.012-.003Zm-1.554 6.884.777-3.443a.586.586 0 0 0-.458-.618.59.59 0 0 0-.678.362l-.777 3.444a.585.585 0 0 0 .448.685.59.59 0 0 0 .7-.427l-.012-.003Zm-1.543 6.876.778-3.444a.589.589 0 0 0-1.137-.256l-.777 3.444a.592.592 0 0 0 .458.617.589.589 0 0 0 .678-.361Zm-1.554 6.884.777-3.444a.587.587 0 0 0-.864-.562.586.586 0 0 0-.272.306l-.777 3.444a.591.591 0 0 0 .451.632.592.592 0 0 0 .685-.364v-.012Zm-1.554 6.884.777-3.444a.584.584 0 0 0-.458-.617.585.585 0 0 0-.678.362l-.777 3.458a.587.587 0 0 0 .865.559.592.592 0 0 0 .271-.306v-.012Zm-1.554 6.884.777-3.429a.589.589 0 0 0-1.136-.256l-.778 3.441a.593.593 0 0 0 .456.621.592.592 0 0 0 .681-.362v-.015Zm-1.555 6.884.778-3.423a.589.589 0 0 0-1.137-.256l-.777 3.444a.585.585 0 0 0 .461.611.588.588 0 0 0 .675-.361v-.015Zm-1.554 6.899.777-3.444a.587.587 0 0 0-1.136-.255l-.777 3.443a.585.585 0 0 0 .458.618.59.59 0 0 0 .678-.362Zm-1.554 6.884.777-3.443a.585.585 0 0 0-.458-.618.585.585 0 0 0-.678.362l-.777 3.443a.584.584 0 0 0 .457.618.593.593 0 0 0 .679-.362Zm.815 6.396a8.248 8.248 0 0 1-1.054-3.099.59.59 0 0 0-.663-.591.598.598 0 0 0-.506.489.582.582 0 0 0 .013.249 9.388 9.388 0 0 0 1.204 3.528.585.585 0 0 0 1.02-.176.59.59 0 0 0-.014-.412v.012Zm5.137 3.852a8.204 8.204 0 0 1-2.958-1.405.594.594 0 0 0-.459-.175.584.584 0 0 0-.432.233.599.599 0 0 0-.105.479.586.586 0 0 0 .295.392 9.376 9.376 0 0 0 3.379 1.603.593.593 0 0 0 .645-.435.592.592 0 0 0-.35-.695l-.015.003Zm6.879 1.553-3.45-.776a.582.582 0 0 0-.68.192.584.584 0 0 0-.005.706.588.588 0 0 0 .429.237l3.447.776a.585.585 0 0 0 .681-.192.599.599 0 0 0 .108-.478.586.586 0 0 0-.533-.465h.003Zm6.892 1.553-3.448-.777a.593.593 0 0 0-.68.192.603.603 0 0 0-.108.478.601.601 0 0 0 .292.394.58.58 0 0 0 .24.071l3.447.777c.079.03.164.044.249.039a.607.607 0 0 0 .242-.069.577.577 0 0 0 .297-.391.59.59 0 0 0-.534-.714h.003Zm6.891 1.552-3.447-.776a.584.584 0 0 0-.49.03.596.596 0 0 0-.297.389.59.59 0 0 0 .53.716l3.448.776a.582.582 0 0 0 .49-.029.589.589 0 0 0-.237-1.106h.003Zm6.891 1.553-3.447-.776a.59.59 0 0 0-.564.863.59.59 0 0 0 .308.272l3.447.776a.588.588 0 0 0 .256-1.135Zm6.891 1.553-3.459-.777a.598.598 0 0 0-.489.03.577.577 0 0 0-.191.163.564.564 0 0 0-.106.227.57.57 0 0 0-.002.25.577.577 0 0 0 .532.465l3.447.777a.588.588 0 1 0 .268-1.135Zm6.891 1.541-3.447-.777a.59.59 0 0 0-.563.864.582.582 0 0 0 .307.271l3.447.777a.59.59 0 0 0 .563-.864.582.582 0 0 0-.307-.271Zm6.891 1.552-3.447-.776a.582.582 0 0 0-.489.03.574.574 0 0 0-.297.389.575.575 0 0 0 .101.479.59.59 0 0 0 .429.237l3.447.776a.578.578 0 0 0 .508-.003.59.59 0 0 0 .205-.893.598.598 0 0 0-.457-.224v-.015Zm6.897 1.568-3.45-.768a.593.593 0 0 0-.618.457.586.586 0 0 0 .362.678l3.447.777a.591.591 0 0 0 .66-.452.584.584 0 0 0-.401-.692Zm6.891 1.552-3.447-.776a.582.582 0 0 0-.489.03.586.586 0 0 0-.196.869.6.6 0 0 0 .429.236l3.447.776a.583.583 0 0 0 .391-.117.582.582 0 0 0 .165-.747.59.59 0 0 0-.305-.271h.005Zm6.892 1.553-3.447-.776a.59.59 0 0 0-.257 1.135l3.445.767a.586.586 0 0 0 .593-.457.593.593 0 0 0-.337-.669h.003Zm6.891 1.553-3.447-.777a.59.59 0 0 0-.564.864.588.588 0 0 0 .308.271l3.447.777a.593.593 0 0 0 .615-.459.588.588 0 0 0-.362-.676h.003Zm6.891 1.552-3.447-.776a.584.584 0 0 0-.49.03.599.599 0 0 0-.297.389.59.59 0 0 0 .531.716l3.447.776a.586.586 0 0 0 .559-.863.586.586 0 0 0-.306-.272h.003Zm6.876 1.55-3.447-.776a.582.582 0 0 0-.68.192.584.584 0 0 0-.005.706.582.582 0 0 0 .429.237l3.447.776a.585.585 0 0 0 .681-.192.599.599 0 0 0 .108-.478.586.586 0 0 0-.533-.465Zm6.892 1.553-3.448-.777a.593.593 0 0 0-.618.458.59.59 0 0 0 .362.678l3.447.776a.6.6 0 0 0 .49-.024.593.593 0 0 0 .306-.638.581.581 0 0 0-.288-.396.58.58 0 0 0-.24-.074l-.011-.003Zm6.891 1.552-3.447-.776a.594.594 0 0 0-.619.457.593.593 0 0 0 .055.407c.067.124.176.22.307.271l3.448.777a.59.59 0 0 0 .575-.857.592.592 0 0 0-.305-.276l-.014-.003Zm6.891 1.553-3.447-.776a.585.585 0 0 0-.618.457.583.583 0 0 0 .362.678l3.447.776a.583.583 0 0 0 .625-.449.586.586 0 0 0-.354-.683l-.015-.003Zm6.891 1.553-3.447-.777a.6.6 0 0 0-.489.03.59.59 0 0 0-.299.64.584.584 0 0 0 .532.466l3.447.776a.587.587 0 0 0 .271-1.132l-.015-.003Z"/>
    <path fill="#fff" stroke="#262424" stroke-linecap="round" stroke-linejoin="round" stroke-width="3.73" d="M332.914 29.6 209.058 1.695c-4.757-1.072-9.484 1.912-10.557 6.665l-48.309 213.97c-1.073 4.753 1.914 9.475 6.672 10.547l123.855 27.906c4.758 1.072 9.485-1.912 10.558-6.665l48.309-213.97c1.073-4.752-1.914-9.474-6.672-10.546Z"/>
    <path fill="#88C0C2" d="m331.663 39.102-47.996 212.575a1.592 1.592 0 0 1-1.902 1.2l-122.457-27.595a1.592 1.592 0 0 1-1.201-1.9L206.101 10.81a1.59 1.59 0 0 1 1.901-1.2l122.457 27.595a1.59 1.59 0 0 1 1.204 1.897Z"/>
    <path fill="#DE9244" d="m331.605 39.355-13.503 59.799-125.56-28.296 13.503-59.798c.224-.994 1.107-1.647 1.96-1.453l122.457 27.595c.848.195 1.369 1.144 1.143 2.153Zm-45.098 199.739-2.84 12.58a1.592 1.592 0 0 1-1.902 1.2l-122.457-27.595a1.592 1.592 0 0 1-1.201-1.9l2.841-12.58 125.559 28.295Z"/>
    <path fill="#fff" stroke="#262424" stroke-linecap="round" stroke-linejoin="round" stroke-width="3.73" d="M268.216 106.143 205.401 91.99a6.928 6.928 0 1 0-3.051 13.517l62.815 14.153a6.928 6.928 0 1 0 3.051-13.517Zm29.201 6.578-8.066-1.818a6.936 6.936 0 0 0-8.291 5.235 6.927 6.927 0 0 0 5.24 8.282l8.066 1.818a6.928 6.928 0 1 0 3.051-13.517Zm-36.479 25.664-62.815-14.153a6.928 6.928 0 1 0-3.052 13.517l62.815 14.153a6.928 6.928 0 1 0 3.052-13.517Zm29.201 6.578-8.067-1.817a6.935 6.935 0 0 0-8.291 5.234 6.93 6.93 0 0 0 5.24 8.283l8.066 1.817a6.928 6.928 0 1 0 3.052-13.517Zm-36.479 25.662-62.815-14.153a6.936 6.936 0 0 0-8.292 5.234 6.928 6.928 0 0 0 5.24 8.282l62.815 14.154c3.736.841 7.449-1.502 8.291-5.235a6.927 6.927 0 0 0-5.239-8.282Zm29.197 6.58-8.066-1.817a6.928 6.928 0 1 0-3.052 13.517l8.066 1.817a6.936 6.936 0 0 0 8.292-5.234 6.929 6.929 0 0 0-5.24-8.283Zm-36.482 25.661-62.815-14.153a6.928 6.928 0 1 0-3.052 13.517l62.815 14.153a6.936 6.936 0 0 0 8.292-5.234 6.93 6.93 0 0 0-5.24-8.283Zm29.203 6.582-8.066-1.818a6.928 6.928 0 1 0-3.052 13.517l8.067 1.818a6.927 6.927 0 1 0 3.051-13.517Z"/>
    <path fill="#88C0C2" stroke="#262424" stroke-linecap="round" stroke-linejoin="round" stroke-width="3.73" d="M241.286 16.341a53.62 53.62 0 0 0-40.403 6.965 53.518 53.518 0 0 0-23.642 33.464 15.569 15.569 0 0 1-6.876 9.735 15.598 15.598 0 0 1-11.753 2.026 15.582 15.582 0 0 1-9.745-6.87 15.549 15.549 0 0 1-2.028-11.74c6.508-28.819 35.185-46.933 64.042-40.431l30.405 6.851Z"/>
    <path fill="#DE9244" stroke="#262424" stroke-linecap="round" stroke-linejoin="round" stroke-width="3.73" d="M271.689 23.19a53.62 53.62 0 0 0-40.404 6.966 53.522 53.522 0 0 0-23.642 33.465 15.565 15.565 0 0 1-6.876 9.735 15.596 15.596 0 0 1-21.498-4.843 15.554 15.554 0 0 1-2.028-11.74 53.522 53.522 0 0 1 23.642-33.464 53.622 53.622 0 0 1 40.404-6.965l30.402 6.846Z"/>
    <path fill="#88C0C2" stroke="#262424" stroke-linecap="round" stroke-linejoin="round" stroke-width="3.73" d="M302.088 30.042c-28.848-6.502-57.534 11.598-64.042 40.431a15.57 15.57 0 0 1-6.877 9.735 15.596 15.596 0 0 1-11.753 2.026 15.583 15.583 0 0 1-9.744-6.869 15.554 15.554 0 0 1-2.029-11.74 53.526 53.526 0 0 1 23.642-33.464 53.622 53.622 0 0 1 40.404-6.965l30.399 6.846Z"/>
    <path fill="#DE9244" stroke="#262424" stroke-linecap="round" stroke-linejoin="round" stroke-width="3.73" d="M332.488 36.89c-28.848-6.501-57.535 11.599-64.043 40.432a15.569 15.569 0 0 1-6.876 9.735 15.596 15.596 0 0 1-21.498-4.843 15.554 15.554 0 0 1-2.028-11.74c6.508-28.82 35.183-46.934 64.042-40.432l30.403 6.849Z"/>
    <path fill="#88C0C2" stroke="#262424" stroke-linecap="round" stroke-linejoin="round" stroke-width="3.73" d="m332.487 36.89-11.774 52.204-52.256-11.763a53.516 53.516 0 0 1 23.633-33.465 53.62 53.62 0 0 1 40.397-6.975v0Z"/>
    <path fill="#fff" stroke="#262424" stroke-linecap="round" stroke-linejoin="round" stroke-width="3.73" d="m177.32 308.227 6.365 19.587s7.947.524 7.521-.161c-.427-.685-5.841-22.508-5.841-22.508l-8.045 3.082Z"/>
    <path fill="#88C0C2" d="M208.712 358.668a8.932 8.932 0 0 0 2.255-3.867 10.453 10.453 0 0 0-2.685-10.569c-4.772-4.808-16.014-19.655-16.014-19.655-7.618 3.011-10.597-.336-10.597-.336-3.114 2.903-6.514 7.176-8.754 10.181-1.549 2.073-2.561 3.529-2.561 3.529 11.33 10.207 38.356 20.717 38.356 20.717Z"/>
    <path fill="#fff" stroke="#262424" stroke-linecap="round" stroke-linejoin="round" stroke-width="3.73" d="M208.712 358.668a8.932 8.932 0 0 0 2.255-3.867c-20.076-7.134-34.206-17.421-38.041-20.382a140.736 140.736 0 0 0-2.561 3.529c11.321 10.21 38.347 20.72 38.347 20.72Z"/>
    <path fill="#DE9244" d="M163.488 296.873s4.416-4.411 10.518-6.208c6.102-1.797 13.959 1.397 13.959 1.397s3.965 12.645 4.021 13.039c.056.394-2.546 3.822-9.393 6.834a17.107 17.107 0 0 1-12.906.294 73.39 73.39 0 0 1-6.199-15.356Z"/>
    <path fill="#88C0C2" d="M184.421 294.773s-2.944 5.293-15.896 2.941l-17.465-45.678s-36.502-41.563-44.941-53.326c-8.44-11.763-9.182-42.737 6.084-47.245 11.969-3.529 20.606 10.39 20.606 10.39 5.887 11.615 27.217 54.437 36.875 73.934 2.57 5.17 4.316 8.716 4.728 9.581.486 1.014 1.336 4.528 2.355 9.248 3.085 14.436 7.654 40.155 7.654 40.155Z"/>
    <path fill="#fff" d="M176.767 254.618a7.97 7.97 0 0 1-5.09 2.22c-4.927.233-9.146-4.311-9.419-10.151-.259-5.443 2.996-10.092 7.429-10.88 2.567 5.152 4.313 8.698 4.725 9.563.486 1.014 1.336 4.528 2.355 9.248Z"/>
    <path stroke="#262424" stroke-linecap="round" stroke-linejoin="round" stroke-width="3.96" d="m116.716 203.221 39.248 47.051 16.29 43.913M132.12 189.203s-7.359 9.016-15.601 12.448"/>
    <path fill="#fff" stroke="#262424" stroke-linecap="round" stroke-linejoin="round" stroke-width="3.73" d="m104.5 294.994-4.93 19.996s6.475 4.632 6.475 3.823c0-.809 6.918-22.202 6.918-22.202l-8.463-1.617Z"/>
    <path fill="#88C0C2" d="M104.553 354.389a8.928 8.928 0 0 0 3.956-2.096 10.456 10.456 0 0 0 3.297-10.393c-1.516-6.599-3.238-25.137-3.238-25.137-8.063-1.452-8.831-5.863-8.831-5.863-4.18.826-9.323 2.667-12.811 4.037-2.41.947-4.042 1.656-4.042 1.656 4.254 14.644 21.669 37.796 21.669 37.796Z"/>
    <path fill="#fff" stroke="#262424" stroke-linecap="round" stroke-linejoin="round" stroke-width="3.73" d="M104.553 354.389a8.928 8.928 0 0 0 3.956-2.096c-13.294-16.636-19.87-32.818-21.568-37.347-2.411.947-4.042 1.656-4.042 1.656 4.239 14.635 21.654 37.787 21.654 37.787Z"/>
    <path fill="#DE9244" d="M103.101 281.761s6.035-1.618 12.217-.147c6.181 1.47 11.406 8.16 11.406 8.16s-2.87 12.939-3.017 13.306c-.147.368-4.121 2.059-11.554 1.25a17.096 17.096 0 0 1-11.333-6.175 73.298 73.298 0 0 1 2.281-16.394Z"/>
    <path stroke="#262424" stroke-linecap="round" stroke-linejoin="round" stroke-width="3.96" d="M118.285 167.833s1.766 9.813 2.687 19.091a6.462 6.462 0 0 1-2.87 6.052 13.14 13.14 0 0 1-2.943 1.42"/>
    <path fill="#88C0C2" d="M136.291 248.751c-.041 1.515-1.053 5.397-2.49 10.205-3.727 12.444-10.303 31.112-10.303 31.112-11.039 2.352-17.662-4.999-17.662-4.999l3.827-32.936s-33.57-37.052-35.63-47.051c-2.061-9.998.883-34.7.883-34.7 1.963-23.231 33.755-17.741 37.482-3.822 3.726 13.918 4.121 35.091 4.121 35.091s10.618 22.205 16.29 36.308c2.099 5.217 3.521 9.325 3.482 10.792Z"/>
    <path stroke="#262424" stroke-linecap="round" stroke-linejoin="round" stroke-width="3.96" d="M113.422 170.941a213.477 213.477 0 0 1 2.808 23.849"/>
    <path fill="#fff" d="M136.291 248.752c-.041 1.514-1.053 5.396-2.49 10.204-4.448-.418-8.086-4.705-8.342-10.125-.256-5.42 2.943-10.034 7.359-10.881 2.09 5.226 3.512 9.334 3.473 10.802Z"/>
    <path stroke="#262424" stroke-linecap="round" stroke-linejoin="round" stroke-width="3.96" d="M80.606 183.027s-1.178 19.212-.392 21.761c.786 2.55 36.305 45.875 36.305 45.875l-5.69 32.738m-11.186-82.73s8.633.98 16.876.98m-.336-7.67c.277 4.588.336 7.67.336 7.67s4.324 9.039 8.925 19.249"/>
    <path fill="#fff" stroke="#262424" stroke-linecap="round" stroke-linejoin="round" stroke-width="3.73" d="M147.477 110.834s14.719 7.646 19.429 8.381c4.71.735 14.277.588 14.277.588l.294 12.792s-15.454 3.088-22.372 2.941c-6.918-.147-20.9-9.705-20.9-9.705l9.272-14.997Z"/>
    <path fill="#DE9244" d="M116.127 87.947c5.888-1.815 33.853 21.269 33.853 21.269s-1.178 11.616-9.126 21.467c0 0-15.531-8.548-22.778-19.408-7.247-10.86-1.949-23.328-1.949-23.328Z"/>
    <path stroke="#262424" stroke-linecap="round" stroke-linejoin="round" stroke-width="3.96" d="M146.005 108.775s-1.471 11.469-7.212 18.527"/>
    <path fill="#fff" stroke="#262424" stroke-linecap="round" stroke-linejoin="round" stroke-width="3.73" d="M178.027 113.939c-4.215.547-2.855 4.411 2.855 4.964 5.711.553 7.807.159 7.807-1.841 0-1.999-3.862-4.005-10.662-3.123Z"/>
    <path fill="#fff" stroke="#262424" stroke-linecap="round" stroke-linejoin="round" stroke-width="3.73" d="M181.109 118.994c-5.299.139-6.697 2.794-6.255 7.94.441 5.146 2.502 6.617 8.757 6.396 6.255-.22 6.182-5.146 5.961-8.601-.221-3.456-2.797-5.882-8.463-5.735Z"/>
    <path fill="#262424" d="M77.647 61.872c4.263 1.879.404 10.739-1.239 13.527-1.642 2.787.22 10.998-5.375 13.527-5.596 2.529 4.33 13.821-9.932 24.616-10.992 8.322-29.237 1.194-26.39-8.11 2.846-9.304 17.983-13.163 20.479-21.708 1.59-5.438-.48-13.44 8.707-16.021 6.86-1.906 10.386-7.316 13.75-5.831Z"/>
    <path fill="#DE9244" d="M116.127 87.947s14.006 20.399 15.013 25.193c1.007 4.793-5.493 15.15-5.493 15.15l15.207 35.917s-10.282 10.119-25.46 13.116c-15.177 2.996-43.272-3.109-43.272-3.109l4.578-36.361-9.438-16.58.957-28.042s13.54 4.746 23.49 4.705c9.95-.04 24.418-9.99 24.418-9.99Z"/>
    <path stroke="#262424" stroke-linecap="round" stroke-linejoin="round" stroke-width="3.96" d="M117.517 89.993c3.564 5.294 12.811 19.285 13.623 23.146.424 2.024-.489 5.041-1.684 7.849m6.723 42.357s-10.12 8.164-21.659 10.11c-11.539 1.947-38.539-1.499-38.539-1.499"/>
    <path fill="#88C0C2" d="M94.82 93.337c6.241-1.232 10.86 3.05 11.899 8.137 1.039 5.087-4.342 8.095-4.342 8.095s-2.837-5.175-4.874-5.384c-2.037-.209-3.344 7.09-3.344 7.09s-7.015-.744-9.044-7.278c-2.028-6.534 4.172-9.575 9.706-10.66Z"/>
    <path fill="#fff" stroke="#262424" stroke-linecap="round" stroke-linejoin="round" stroke-width="3.73" d="m66.282 136.368-4.121 16.468 18.642 26.466s8.022 1.299 12.29 2.255c4.268.956 5.52 12.204 4.563 13.527-.957 1.323-3.606-6.543-3.606-6.543s1.472 7.94.147 8.675c-1.325.735-7.874 2.132-8.39.515-.515-1.618-1.766-6.029-1.766-6.029s-6.402-2.132-6.623-7.572c0 0-27.23-11.492-35.669-32.274 0 0 2.552-11.959 5.888-21.958 3.335-9.998 21.194-9.213 18.645 6.47Z"/>
    <path fill="#DE9244" d="M68.219 93.231c-9.237-1.535-20.188 28.433-24.506 41.569 0 0 10.597 5.294 22.763 6.667 0 0 5.299-15.88 7.654-26.075 2.355-10.195 2.305-20.796-5.911-22.16Z"/>
    <path stroke="#262424" stroke-linecap="round" stroke-linejoin="round" stroke-width="3.96" d="M71.4 125.646c1.028-3.529 2.014-7.16 2.73-10.254 1.633-7.058 2.11-14.342-.495-18.585m-26.882 34.464s10.99 4.214 19.82 5.588"/>
    <path fill="#fff" stroke="#262424" stroke-linecap="round" stroke-linejoin="round" stroke-width="3.73" d="m99.642 84.144 1.322 12.742s-1.86 3.629-4.892 3.776c-3.032.147-5.97-3.123-5.97-3.123V83.38l9.54.765Z"/>
    <path fill="#fff" stroke="#262424" stroke-linecap="round" stroke-linejoin="round" stroke-width="3.89" d="m81.61 63.93-1.69-.294a1.508 1.508 0 0 0-1.428.553c-.49.593-.84 1.29-1.021 2.038-.124.81.04 1.636.462 2.338a1.49 1.49 0 0 0 .907.708l1.89.533a1.514 1.514 0 0 0 1.919-1.335l.235-2.941a1.51 1.51 0 0 0-1.274-1.6Z"/>
    <path fill="#fff" d="M106.593 76.17c1.268 5.472.677 12.38-5.888 14.094-4.83 1.261-11.807-2.967-14.324-10.125-2.517-7.157-3.058-13.748 5.829-15.853a22.21 22.21 0 0 1 2.89-.441c5.408-.35 7.477-.459 10.757 9.41.285.882.497 1.882.736 2.914Z"/>
    <path stroke="#262424" stroke-linecap="round" stroke-linejoin="round" stroke-width="3.89" d="M95.098 63.848c5.407-.35 7.477-.459 10.756 9.41.294.882.503 1.873.739 2.905 1.268 5.473.677 12.38-5.888 14.095-1.81.474-3.935 0-6.311-.914"/>
    <path fill="#262424" d="M89.087 80.419a5.528 5.528 0 0 0 1.942-5.311c-.111-.665-.332-1.541-.4-2.376 5.004 2.69 12.846 2.764 16.211 2.646a2.522 2.522 0 0 0 2.355-1.764c1.86-6.47-5.734-15.212-12.546-12.774-9.57-2.856-17.41 4.043-16.558 11.056.956 7.781 7.091 10.155 8.996 8.523Z"/>
    <path fill="#fff" d="M88.7 79.81s-4.597-2.623-7.974-.356c-3.376 2.267.548 10.586 9.42 6.831l-1.445-6.475Z"/>
    <path stroke="#262424" stroke-linecap="round" stroke-linejoin="round" stroke-width="3.89" d="M88.7 79.81s-4.597-2.623-7.974-.356c-3.376 2.267.548 10.586 9.42 6.831"/>
    <path fill="#DE9244" d="M19.63 58.378a14.857 14.857 0 0 0 9.594-6.316l4.577 4.572s-3.827 7.514-13.408 7.731l-.763-5.987Zm33.817 185.815a14.846 14.846 0 0 0 9.29 6.764l-2.675 5.881s-8.384-.926-11.96-9.819l5.346-2.826Zm231.088 47.804a14.848 14.848 0 0 0 9.29 6.764l-2.675 5.881s-8.384-.926-11.961-9.819l5.346-2.826Z"/>
    <path fill="#88C0C2" d="M89.516 16.194a7.49 7.49 0 0 0 3.877-3.873l.995-2.282.995 2.282a7.49 7.49 0 0 0 3.877 3.873l2.284.994-2.284.994a7.491 7.491 0 0 0-3.877 3.873l-.995 2.282-.995-2.282a7.491 7.491 0 0 0-3.877-3.873l-2.284-.994 2.284-.994ZM2.08 141.767a6.376 6.376 0 0 0 3.3-3.297l.848-1.943.848 1.943a6.376 6.376 0 0 0 3.3 3.297l1.945.847-1.945.847a6.374 6.374 0 0 0-3.3 3.296l-.848 1.944-.848-1.944a6.374 6.374 0 0 0-3.3-3.296l-1.934-.847 1.934-.847Zm14.383 160.387a5.588 5.588 0 0 0 2.894-2.891l.741-1.702.742 1.702a5.588 5.588 0 0 0 2.894 2.891l1.704.741-1.704.741a5.592 5.592 0 0 0-2.894 2.891l-.742 1.703-.741-1.703a5.592 5.592 0 0 0-2.894-2.891l-1.705-.741 1.705-.741Zm223.299 30.26a7.873 7.873 0 0 0 4.074-4.07l1.045-2.4 1.045 2.4a7.869 7.869 0 0 0 4.074 4.07l2.402 1.044-2.402 1.043a7.869 7.869 0 0 0-4.074 4.07l-1.045 2.4-1.045-2.4a7.873 7.873 0 0 0-4.074-4.07l-2.402-1.043 2.402-1.044Zm97.029-94.117a5.084 5.084 0 0 0 5.087-5.081 5.084 5.084 0 0 0-5.087-5.082 5.084 5.084 0 0 0-5.086 5.082 5.084 5.084 0 0 0 5.086 5.081Zm-126.263 49.024a3.922 3.922 0 0 0 3.924-3.92 3.922 3.922 0 0 0-3.924-3.92 3.922 3.922 0 0 0-3.924 3.92 3.922 3.922 0 0 0 3.924 3.92Z"/>
  </g>
  <defs>
    <clipPath id="a">
      <path fill="#fff" d="M0 0h347.707v360H0z" transform="translate(.146)"/>
    </clipPath>
  </defs>
</svg>
