<svg xmlns="http://www.w3.org/2000/svg" width="309" height="235" fill="none" viewBox="0 0 309 235">
  <g clip-path="url(#a)">
    <path fill="#3F3D56" d="M123.646 48.734h-1.127V17.866A17.863 17.863 0 0 0 111.486 1.36a17.883 17.883 0 0 0-6.84-1.36H39.221c-4.74 0-9.286 1.882-12.638 5.233a17.862 17.862 0 0 0-5.234 12.633V187.21a17.862 17.862 0 0 0 11.033 16.505 17.877 17.877 0 0 0 6.84 1.36h65.424c4.74 0 9.286-1.882 12.638-5.232a17.863 17.863 0 0 0 5.235-12.633V70.706h1.127V48.734Z"/>
    <path fill="#fff" d="M105.367 4.648h-8.54a6.336 6.336 0 0 1-2.89 7.988 6.344 6.344 0 0 1-2.98.745H53.474a6.344 6.344 0 0 1-6.308-5.692 6.337 6.337 0 0 1 .437-3.041h-7.977a13.352 13.352 0 0 0-12.33 8.236 13.336 13.336 0 0 0-1.017 5.106v169.096a13.329 13.329 0 0 0 3.91 9.434 13.354 13.354 0 0 0 9.437 3.907h65.74a13.36 13.36 0 0 0 9.438-3.907 13.338 13.338 0 0 0 3.91-9.434V17.99a13.351 13.351 0 0 0-3.91-9.434 13.347 13.347 0 0 0-9.438-3.908Z"/>
    <path fill="#CBCBCB" d="M144.616 205.105H.379a.379.379 0 0 1 0-.757h144.237a.378.378 0 1 1 0 .757Z"/>
    <path fill="#2AA952" d="M72.497 130.813c17.657 0 31.97-14.308 31.97-31.957 0-17.648-14.313-31.956-31.97-31.956-17.656 0-31.969 14.307-31.969 31.956s14.313 31.957 31.97 31.957Z"/>
    <path fill="#fff" d="M69.33 111.047a3.314 3.314 0 0 1-1.995-.663l-.036-.026-7.513-5.745a3.349 3.349 0 0 1-1.279-2.212 3.34 3.34 0 0 1 5.342-3.086l4.866 3.731 11.5-14.997a3.337 3.337 0 0 1 4.679-.618h.001l-.071.1.073-.1a3.34 3.34 0 0 1 .617 4.68l-13.526 17.63a3.335 3.335 0 0 1-2.656 1.302l-.002.004Z"/>
    <path fill="#F1F1F1" d="M262.825 208.246a9.937 9.937 0 0 1 1.365-1.739c.214-.222.439-.431.672-.634a10.653 10.653 0 0 1 10.557-2.112 10.655 10.655 0 0 1 7.009 8.17c1.562-5.772-2.503-11.457-6.589-15.824-4.089-4.366-8.762-9.155-8.738-15.136.011-3.329 1.64-6.298 4.099-8.5a8.54 8.54 0 0 1 .23-.197 15.548 15.548 0 0 1 10.709-3.731c7.268.389 13.614 5.272 18.022 11.064 7.094 9.32 10.203 22.401 5.236 33.01-4.368 9.331-13.685 14.872-23.193 19.326a201.298 201.298 0 0 1-3.976 1.81c-.008.002-.018.009-.027.011-.063.028-.127.056-.187.085l-.816.359.125.082.391.253-.405-.244c-.041-.024-.083-.048-.123-.073-4.67-2.801-9.405-5.764-12.632-10.137-3.346-4.54-4.691-11.043-1.729-15.843Z"/>
    <path fill="#fff" d="M293.983 197.701a26.45 26.45 0 0 1 2.035 7.391 22.92 22.92 0 0 1-.277 6.816 29.389 29.389 0 0 1-5.897 12.61 42.3 42.3 0 0 1-7.641 7.425 198.622 198.622 0 0 1-3.975 1.81c-.008.002-.018.008-.027.011l-.187.084-.816.36.125.082.391.253-.405-.244c-.041-.025-.083-.048-.123-.073a23.388 23.388 0 0 0-4.243-21.058 23.592 23.592 0 0 0-8.753-6.661c.214-.222.439-.431.671-.634a24.558 24.558 0 0 1 3.75 2.14 23.968 23.968 0 0 1 9.07 12.011 24.497 24.497 0 0 1 .532 13.695c.234-.154.469-.311.698-.467 4.351-2.933 8.36-6.455 11.381-10.774a27.344 27.344 0 0 0 4.853-12.331c.579-4.856-.636-9.632-2.805-13.966a57.255 57.255 0 0 0-8.971-12.741 65.054 65.054 0 0 0-12.03-10.339.466.466 0 0 1-.139-.63.405.405 0 0 1 .23-.198.348.348 0 0 1 .295.06 65.8 65.8 0 0 1 13.645 12.089c3.419 3.994 6.531 8.432 8.613 13.279Z"/>
    <path fill="#F1F1F1" d="M198.769 14.838a6.788 6.788 0 0 0 6.789-6.786 6.788 6.788 0 0 0-6.789-6.787 6.788 6.788 0 0 0-6.79 6.787 6.788 6.788 0 0 0 6.79 6.786Zm84.422 90.821a4.139 4.139 0 1 0-4.139-4.137 4.138 4.138 0 0 0 4.139 4.137Zm-121.144 11.353a4.139 4.139 0 1 0-4.14-4.138 4.139 4.139 0 0 0 4.14 4.138Z"/>
    <path fill="#CBCBCB" d="M164.384 235h144.237a.378.378 0 1 0 0-.757H164.384a.378.378 0 1 0 0 .757Z"/>
    <path fill="#FFB7B7" d="M292.704 36.569a5.547 5.547 0 0 0-10.652-2.81L270.348 47.17l3.434 9.588 11.771-15.672a5.519 5.519 0 0 0 7.151-4.518Z"/>
    <path fill="#3F3D56" d="M244.187 88.758 283.04 47.31l-5.241-8.328-48.731 41.197 15.119 8.58Z"/>
    <path fill="#2F2E41" d="M235.515 63.575c7.527 0 13.629-6.1 13.629-13.623 0-7.524-6.102-13.623-13.629-13.623-7.527 0-13.628 6.099-13.628 13.623 0 7.524 6.101 13.623 13.628 13.623Z"/>
    <path fill="#2F2E41" d="M236.611 42.256a28.585 28.585 0 0 1 10.397-6.72c2.513-.931 5.249-1.507 7.876-.978 2.628.529 5.112 2.346 5.846 4.922.599 2.108-.02 4.377-.95 6.36-.93 1.984-2.172 3.823-2.925 5.88a13.421 13.421 0 0 0 13.511 18c-2.581.345-4.961 1.558-7.484 2.204-2.524.645-5.502.601-7.377-1.206-1.984-1.912-2.024-5.02-1.928-7.774l.428-12.277c.072-2.088.134-4.242-.619-6.19-.753-1.948-2.542-3.654-4.631-3.636-1.584.014-2.985.972-4.255 1.918s-2.614 1.954-4.191 2.095c-1.577.14-3.378-1.026-3.26-2.604l-.438.006Z"/>
    <path fill="#FFB7B7" d="M183.752 141.425a5.55 5.55 0 0 1-6.617-3.239 5.545 5.545 0 0 1 2.438-6.95l11.774-13.352 9.959 2.15-14.007 13.714a5.505 5.505 0 0 1-1.429 6.567 5.521 5.521 0 0 1-2.118 1.11Z"/>
    <path fill="#3F3D56" d="m222.489 93.624-29.346 36.82-8.945-4.105 34.492-53.677 3.799 20.962Z"/>
    <path fill="#FFB7B7" d="m199.074 204.806-6.994-.11.841 23.828h6.152l.001-23.718Z"/>
    <path fill="#2F2E41" d="m200.642 226.517-12.115-.001h-.001a7.72 7.72 0 0 0-7.72 7.717v.251l19.835.001.001-7.968Z"/>
    <path fill="#FFB7B7" d="m245.38 198.486-7.64 4.903 15.282 18.378 5.177-3.322-12.819-19.959Z"/>
    <path fill="#2F2E41" d="m258.434 215.908-10.194 6.543h-.001a7.716 7.716 0 0 0-2.325 10.663l.135.211 16.692-10.711-4.307-6.706Z"/>
    <path fill="#3F3D56" d="M248.102 125.727s-16.975-56.357-22.431-57.119c-5.455-.762-14.245 14.46-14.245 14.46-11.396 14.535-23.147 61.616-23.147 61.616s19.59 1.225 33.91 8.841c14.32 7.616 31.22-.386 31.22-.386l-5.307-27.412Z"/>
    <path fill="#000" d="M248.102 125.727s-16.975-56.358-22.431-57.119c-5.455-.762-12.012 14.615-12.012 14.615-5.679 23.462-25.38 61.461-25.38 61.461s19.59 1.225 33.91 8.841c14.32 7.616 31.22-.386 31.22-.386l-5.307-27.412Z" opacity=".1"/>
    <path fill="#2F2E41" d="M234.175 108.865v28.319l3.334 41.023 16.657 31.03-7.95 5.677-22.714-29.517-8.984-29.309-14.109 64.88-10.601-.756 7.362-89.956 13.97-25.32 23.035 3.929Z"/>
    <path fill="#9D331F" d="M217.06 81.474c-5.3 5.298-.379 10.974-.379 10.974l-6.057 13.623 23.85 6.434 8.335-37.229-5.679-6.055c-11.357-.378-11.363-.613-11.363-.613-1.99 1.946-8.707 12.866-8.707 12.866Z"/>
    <path fill="#3F3D56" d="M243.77 71.42a10.192 10.192 0 0 0-7.619-1.867 10.186 10.186 0 0 0-6.683 4.104c-5.996 8.345-11.54 21.82-3.901 38.626 12.265 26.985 22.939 40.799 27.278 40.798.19.002.378-.028.558-.088 2.671-.905 6.533-5.423 7.232-9.404.25-1.425.191-3.41-1.514-4.773-4.897-3.915-13.689-16.106-16.431-32.152-1.516-8.867 1.423-16.943 4.156-22.157a10.168 10.168 0 0 0-2.945-12.99l-.131-.098Z"/>
    <path fill="#FFB7B7" d="M236.216 62.236c4.862-2.656 6.649-8.75 3.991-13.609-2.658-4.86-8.753-6.646-13.615-3.99-4.862 2.657-6.648 8.75-3.991 13.61 2.658 4.86 8.754 6.646 13.615 3.99Z"/>
    <path fill="#2F2E41" d="M217.295 52.68h14.487l.148-2.08.743 2.08h2.231l.294-4.121 1.472 4.12h4.316v-.204a10.838 10.838 0 0 0-10.824-10.82h-2.042a10.834 10.834 0 0 0-10.825 10.82v.204Z"/>
    <path fill="#2F2E41" d="m238.798 60.152 6.182-2.005V43.14h-11.677l.289.289c4.022 4.015 8.496 18.261 5.206 16.723Z"/>
  </g>
  <defs>
    <clipPath id="a">
      <path fill="#fff" d="M0 0h309v235H0z"/>
    </clipPath>
  </defs>
</svg>
