<svg xmlns="http://www.w3.org/2000/svg" width="309" height="239" fill="none" viewBox="0 0 309 239">
  <g clip-path="url(#a)">
    <path fill="#F2F2F2" d="M13.704 232.182c9.631 6.935 22.113 7.284 34.178 6.432 1.684-.119 3.357-.259 5.015-.409.01-.003.023-.002.033-.004.08-.008.16-.015.236-.02l1.023-.096-.08.153-.252.473.271-.472c.027-.048.057-.095.083-.143 3.125-5.436 6.225-11.071 7.016-17.279.817-6.443-1.48-13.738-7.153-16.905a11.493 11.493 0 0 0-2.35-.984 12.513 12.513 0 0 0-1.03-.26 12.278 12.278 0 0 0-14.687 9.535 12.262 12.262 0 0 0 .416 6.409c-4.81-4.93-3.913-12.928-2.254-19.611 1.663-6.684 3.675-14.121.294-20.124-1.88-3.342-5.185-5.415-8.894-6.25a10.233 10.233 0 0 0-.342-.07 17.912 17.912 0 0 0-12.867 2.253C5.269 179.277 1.626 187.747.443 196.044c-1.905 13.352 2.311 28.253 13.262 36.138Z"/>
    <path fill="#fff" d="M16.813 210.779c.28 2.945.988 5.834 2.101 8.575a26.437 26.437 0 0 0 4.105 6.701c3.462 4.162 8.039 7.291 13.01 9.376a48.776 48.776 0 0 0 11.853 3.183 248.16 248.16 0 0 0 5.015-.409l.033-.004c.08-.008.16-.015.236-.02l1.023-.096-.08.153-.252.473.271-.472.083-.143a26.927 26.927 0 0 1-7.552-23.559 27.152 27.152 0 0 1 5.066-11.608c-.34-.104-.684-.187-1.031-.261a28.176 28.176 0 0 0-2.57 4.255 27.581 27.581 0 0 0-2.383 17.167 28.207 28.207 0 0 0 7.152 14.072 49.594 49.594 0 0 1-.965-.078c-6.022-.51-12.032-1.804-17.495-4.454a31.512 31.512 0 0 1-11.804-9.681c-3.308-4.56-4.766-10.045-5.016-15.62-.265-5.968.51-12.042 1.872-17.846a74.889 74.889 0 0 1 6.297-17.145.538.538 0 0 0-.213-.711.454.454 0 0 0-.342-.07.394.394 0 0 0-.263.225 83.835 83.835 0 0 0-1.008 2.023 75.736 75.736 0 0 0-5.933 17.788c-1.197 5.935-1.836 12.143-1.21 18.186Z"/>
    <path fill="#3F3D56" d="M302.803 205.482H143.508a6.205 6.205 0 0 1-6.196-6.194V6.194A6.204 6.204 0 0 1 143.508 0h159.295A6.206 6.206 0 0 1 309 6.194v193.094a6.201 6.201 0 0 1-6.197 6.194ZM143.508.729a5.475 5.475 0 0 0-5.467 5.465v193.094a5.469 5.469 0 0 0 5.467 5.465h159.295a5.473 5.473 0 0 0 5.468-5.465V6.194a5.471 5.471 0 0 0-5.468-5.465H143.508Z"/>
    <path fill="#3F3D56" d="M308.635 15.153H137.676v.728h170.959v-.728ZM146.06 10.93a2.915 2.915 0 1 0-2.916-2.915 2.916 2.916 0 0 0 2.916 2.915Zm9.113 0a2.915 2.915 0 1 0-2.916-2.915 2.916 2.916 0 0 0 2.916 2.915Zm9.113 0a2.915 2.915 0 1 0-2.916-2.915 2.915 2.915 0 0 0 2.916 2.915Zm113.825 33.154h-113.73a4.74 4.74 0 0 1-4.739-4.736 4.734 4.734 0 0 1 4.739-4.737h113.73a4.738 4.738 0 0 1 3.35 8.086 4.738 4.738 0 0 1-3.35 1.387Zm-113.73-8.744a4.011 4.011 0 0 0-4.01 4.008 4.01 4.01 0 0 0 4.01 4.007h113.73a4.01 4.01 0 0 0 4.009-4.007 4.006 4.006 0 0 0-4.009-4.008h-113.73Zm42.554 75.416h-44.836a6.2 6.2 0 0 1-6.197-6.194V67.765a6.199 6.199 0 0 1 6.197-6.194h44.836a6.203 6.203 0 0 1 6.197 6.194v36.797a6.2 6.2 0 0 1-6.197 6.194ZM162.099 62.3a5.476 5.476 0 0 0-5.468 5.465v36.797a5.473 5.473 0 0 0 5.468 5.465h44.836a5.474 5.474 0 0 0 5.468-5.465V67.765a5.472 5.472 0 0 0-5.468-5.465h-44.836Z"/>
    <path fill="#F2F2F2" d="M284.213 63.393h-44.836a5.83 5.83 0 0 0-5.832 5.83v36.797a5.83 5.83 0 0 0 5.832 5.829h44.836a5.83 5.83 0 0 0 5.832-5.829V69.223a5.83 5.83 0 0 0-5.832-5.83Z"/>
    <path fill="#3F3D56" d="M206.935 179.25h-44.836a6.2 6.2 0 0 1-6.197-6.194v-36.797a6.204 6.204 0 0 1 6.197-6.194h44.836a6.2 6.2 0 0 1 4.379 1.817 6.198 6.198 0 0 1 1.818 4.377v36.797a6.2 6.2 0 0 1-6.197 6.194Zm-44.836-48.456a5.476 5.476 0 0 0-5.468 5.465v36.797a5.473 5.473 0 0 0 5.468 5.465h44.836a5.474 5.474 0 0 0 5.468-5.465v-36.797a5.475 5.475 0 0 0-5.468-5.465h-44.836Z"/>
    <path fill="#F2F2F2" d="M284.213 131.887h-44.836a5.83 5.83 0 0 0-5.832 5.829v36.798a5.83 5.83 0 0 0 5.832 5.829h44.836a5.83 5.83 0 0 0 5.832-5.829v-36.798a5.83 5.83 0 0 0-5.832-5.829Z"/>
    <path fill="#9D331F" d="M173.36 101.856h-.025l-5.099-.189a.662.662 0 0 1-.636-.587c-.351-3.13-1.795-19.08 4.256-25.71a8.665 8.665 0 0 1 6.849-2.876.284.284 0 0 0 .263-.136l1.234-1.94a.671.671 0 0 1 .639-.302c.99.12 6.035.683 8.157.07a.664.664 0 0 1 .701.215l1.621 1.98a.288.288 0 0 0 .237.11c.824-.016 3.715.143 6.246 2.972 2.739 3.063 5.567 9.974 3.478 25.501a.667.667 0 0 1-.659.578h-4.017a.67.67 0 0 1-.657-.569l-1.312-9.048a.298.298 0 0 0-.315-.256.3.3 0 0 0-.281.292l-.091 4.249a.657.657 0 0 1-.394.592c-1.432.63-8.998 3.581-17.36-.115a.671.671 0 0 1-.394-.581l-.165-3.86a.296.296 0 0 0-.289-.287.3.3 0 0 0-.308.266l-1.019 9.042a.668.668 0 0 1-.66.589Zm21.096 66.66h-.004l-19.984-.126a.595.595 0 0 1-.588-.526l-2.01-17.077a.462.462 0 0 0-.444-.409c-1.586-.052-5.361-.413-6.143-2.646-.696-1.989 1.209-4.922 5.663-8.719a.59.59 0 0 1 .559-.118.59.59 0 0 1 .402.404l2.312 7.974a.469.469 0 0 0 .442.334l18.948.127a.463.463 0 0 0 .445-.324l2.573-8.183a.597.597 0 0 1 .93-.295c1.755 1.34 7.411 5.942 6.48 8.884-.487 1.541-2.686 2.4-6.536 2.554a.457.457 0 0 0-.442.408l-2.011 17.212a.597.597 0 0 1-.592.526Z"/>
    <path fill="#fff" d="M282.026 96.603a42.141 42.141 0 0 0-17.317 7.665 3.21 3.21 0 0 0-1.381-1.639 4.853 4.853 0 0 0-1.401-.588c-.45-.115-.883.159-1.281.553a7.268 7.268 0 0 0-1.139 1.686c-6.862-4.708-17.272-7.712-17.272-7.712v-.942c.008-.222.031-.443.067-.662.036-.253.08-.477.136-.75.883-4.49 4.375-14.75 4.375-14.75h3.947l7.655 1.588 8.611-.527 8.673-1.803 1.125-.236c1.875 1.472 4.003 11.77 4.839 16.154.106.556.189 1.016.251 1.354.073.382.112.609.112.609Zm-23.557 45.201s-1.834.458-4.678 8.157c-2.843 7.699-3.851 17.646-3.851 17.646s-1.599 2.706 5.227 2.887c0 0-.549 1.788 3.302 1.513 3.851-.274 3.297-.271 3.297-.271s2.476-1.559 3.577-1.284c1.101.274 1.788.367 2.98 1.374 1.191 1.007 5 .597 5.045-.181a7.097 7.097 0 0 0 0-1.148s5.824.368 4.723-3.849c-1.101-4.217-2.018-11.138-2.018-11.138s-2.979-13.52-6.375-13.703c-3.396-.184-11.229-.003-11.229-.003Z"/>
    <path fill="#2F2E41" d="M70.221 128.825c6.04 0 10.936-4.893 10.936-10.93 0-6.036-4.896-10.929-10.936-10.929s-10.936 4.893-10.936 10.929c0 6.037 4.897 10.93 10.936 10.93Z"/>
    <path fill="#FFB8B8" d="M71.14 128.846c4.944 0 8.952-4.006 8.952-8.948s-4.008-8.949-8.953-8.949c-4.944 0-8.952 4.007-8.952 8.949s4.008 8.948 8.953 8.948Zm34.096 18.269a3.826 3.826 0 0 0-.391.461l-18.066-.638-2.066-3.874-6.256 2.353 2.99 7.212a2.914 2.914 0 0 0 3.013 1.781l20.444-2.243a3.826 3.826 0 1 0 4.614-5.818 3.828 3.828 0 0 0-4.282.766Z"/>
    <path fill="#CCC" d="M76.05 148.9a1.75 1.75 0 0 1-.963-1.099l-2.517-8.442a4.87 4.87 0 0 1 2.342-6.473 4.878 4.878 0 0 1 6.483 2.323l4.874 7.372a1.755 1.755 0 0 1-.722 2.558l-8.035 3.75a1.754 1.754 0 0 1-1.462.011Z"/>
    <path fill="#FFB8B8" d="m93.844 234.601 3.925-2.135-6.374-16.148-5.792 3.152 8.24 15.131Z"/>
    <path fill="#2F2E41" d="m92.145 233.865 7.73-4.205a5.61 5.61 0 0 1 7.608 2.243l.087.16-12.656 6.886-2.769-5.084Z"/>
    <path fill="#FFB8B8" d="M50.653 234.619h4.469l2.126-17.228h-6.596l.001 17.228Z"/>
    <path fill="#2F2E41" d="m49.513 233.161 8.801-.001a5.606 5.606 0 0 1 5.609 5.606v.182l-14.41.001v-5.788Zm28.91-75.007 1.458 17.488 16.264 48.767a1.458 1.458 0 0 1-1.045 1.879l-4.985 1.186a1.46 1.46 0 0 1-1.64-.762l-20.794-41.225a.732.732 0 0 0-.742-.394.726.726 0 0 0-.62.566l-9.152 41.666a1.46 1.46 0 0 1-1.424 1.144h-4.637a1.449 1.449 0 0 1-1.352-.913 1.454 1.454 0 0 1-.105-.564c.425-28.89-.977-61.809 10.183-67.016l1.823-4.737 16.768 2.915Z"/>
    <path fill="#CCC" d="m61.13 156.479-1.88-11.359a11.246 11.246 0 0 1 3.562-10.203 11.07 11.07 0 0 1 10.327-2.523l.32.088a11.219 11.219 0 0 1 8.102 9.963c.359 4.933.038 12.09-3.528 18.169l-.07.118-16.833-4.253Z"/>
    <path fill="#2F2E41" d="M80.046 115.142a12.183 12.183 0 0 1-6.96 2.149 7.44 7.44 0 0 0 2.959 1.216 24.556 24.556 0 0 1-10.03.057 6.494 6.494 0 0 1-2.1-.721 2.666 2.666 0 0 1-1.295-1.732c-.22-1.257.76-2.398 1.777-3.167a13.118 13.118 0 0 1 11.017-2.201c1.231.318 2.464.855 3.263 1.843.8.988 1.037 2.511.275 3.528l1.094-.972Zm-9.969-8.23c1.038-4.189-2.682-8.842-6.998-8.755-4.38.089-7.602 4.044-9.817 7.82-2.215 3.777-4.416 8.058-8.483 9.684a8.762 8.762 0 0 1-11.064-4.167 8.747 8.747 0 0 1-.946-4.174c-.546 4.588.21 9.552 3.171 13.101 2.96 3.549 8.47 5.148 12.429 2.763 2.261-1.362 3.706-3.729 4.898-6.084 1.192-2.355 2.252-4.838 4.057-6.763 1.806-1.926 4.598-3.204 7.11-2.394.998.322 1.893.949 2.923 1.139 1.031.191 2.328-.298 2.47-1.336l.25-.834Z"/>
    <path fill="#FFB8B8" d="M48.499 182.853a3.908 3.908 0 0 1-.244-4.763c.325-.471.75-.865 1.243-1.154l7.767-34.793 7.878 3.232-10.111 33.184a3.931 3.931 0 0 1-1.358 5.047 3.94 3.94 0 0 1-5.175-.753Z"/>
    <path fill="#CCC" d="M54.188 147.135a1.758 1.758 0 0 1-.123-1.457l2.986-8.286a4.878 4.878 0 0 1 8.83-1.757 4.871 4.871 0 0 1 .737 3.65l-.453 8.825a1.75 1.75 0 0 1-.677 1.296 1.769 1.769 0 0 1-1.423.334l-8.694-1.747a1.747 1.747 0 0 1-1.183-.858Z"/>
    <path fill="#3F3D56" d="m117.818 143.233-.129-.018.487-3.542a2.07 2.07 0 0 0-1.77-2.332l-7.509-1.032a2.069 2.069 0 0 0-2.333 1.768l-2.673 19.434a2.072 2.072 0 0 0 1.77 2.332l7.509 1.031a2.069 2.069 0 0 0 2.333-1.768l1.839-13.37.129.018.347-2.521Z"/>
    <path fill="#fff" d="m116.17 138.38-.935-.129a.705.705 0 0 1-.436.831.707.707 0 0 1-.338.037l-4.103-.564a.706.706 0 0 1-.534-.386.705.705 0 0 1 .023-.658l-.873-.12a1.485 1.485 0 0 0-1.093.286 1.483 1.483 0 0 0-.57.974l-2.545 18.509a1.461 1.461 0 0 0 .286 1.092 1.48 1.48 0 0 0 .974.569l7.197.989a1.479 1.479 0 0 0 1.662-1.26l2.546-18.509a1.477 1.477 0 0 0-1.261-1.661Z"/>
    <path fill="#9D331F" d="M111.066 153.747a4.009 4.009 0 1 0-4.009-4.008 4.008 4.008 0 0 0 4.009 4.008Z"/>
    <path fill="#fff" d="M110.669 151.268a.417.417 0 0 1-.25-.083l-.005-.003-.942-.721a.427.427 0 0 1-.162-.278.427.427 0 0 1 .083-.31.424.424 0 0 1 .588-.077l.61.468 1.443-1.88a.412.412 0 0 1 .277-.16.426.426 0 0 1 .31.083l-.009.012.009-.012a.415.415 0 0 1 .077.586l-1.696 2.212a.411.411 0 0 1-.148.12.409.409 0 0 1-.185.043Z"/>
    <path fill="#3F3D56" d="M148.022 239H9.14a.362.362 0 0 1-.364-.364.366.366 0 0 1 .364-.365h138.882a.366.366 0 0 1 .258.622.363.363 0 0 1-.258.107Z"/>
  </g>
  <defs>
    <clipPath id="a">
      <path fill="#fff" d="M0 0h309v239H0z"/>
    </clipPath>
  </defs>
</svg>
